<?xml version="1.0" standalone="no"?>
<!DOCTYPE svg PUBLIC "-//W3C//DTD SVG 1.1//EN" "http://www.w3.org/Graphics/SVG/1.1/DTD/svg11.dtd" >
<svg xmlns="http://www.w3.org/2000/svg" xmlns:xlink="http://www.w3.org/1999/xlink" version="1.1">
<metadata>
Created by FontForge 20161116 at Tue Mar 27 17:33:11 2012
 By Jimmy Warting
Terminal Dosis is a very simple, monoline rounded sans serif. We like you to have some freedom over how the letters should look, so we bundled Terminal Dosis with a few alternates that you can use to make your text look the way you want to.
</metadata>
<defs>
<font id="Dosis-Light" horiz-adv-x="488" >
  <font-face 
    font-family="Dosis"
    font-weight="300"
    font-stretch="normal"
    units-per-em="1000"
    panose-1="2 1 3 3 2 2 2 6 0 3"
    ascent="800"
    descent="-200"
    x-height="472"
    cap-height="731"
    bbox="-138 -237 1010 1025"
    underline-thickness="26"
    underline-position="-51"
    stemh="46"
    stemv="50"
    unicode-range="U+000D-FB02"
  />
<missing-glyph horiz-adv-x="328" 
d="M60 119l77 117l-77 118c-2 4 -4 8 -4 12c0 12 11 22 24 22c7 0 13 -4 18 -10l66 -103l66 103c4 6 12 10 18 10c12 0 23 -9 23 -22c0 -4 -1 -8 -4 -12l-76 -118l75 -117c3 -4 4 -8 4 -13c0 -11 -10 -21 -23 -21c-6 0 -13 3 -17 10l-66 101l-66 -101c-5 -7 -11 -10 -18 -10
c-13 0 -24 10 -24 21c0 5 2 9 4 13z" />
    <glyph glyph-name="fi" unicode="fi" horiz-adv-x="491" 
d="M400 472c14 0 26 -8 26 -20v-430c0 -11 -12 -22 -26 -22c-13 0 -23 11 -23 22v430c0 12 10 20 23 20zM267 720c-118 0 -152 -85 -152 -138v-110h134c11 0 20 -10 20 -21c0 -12 -9 -22 -20 -22h-134v-408c0 -13 -12 -21 -26 -21c-13 0 -23 8 -23 21v560
c0 90 68 185 199 185c71 0 148 -29 148 -60c0 -12 -10 -27 -20 -27c-17 0 -43 41 -126 41z" />
    <glyph glyph-name="fl" unicode="fl" horiz-adv-x="500" 
d="M377 22v661c-29 29 -70 43 -108 43c-78 0 -154 -55 -154 -144v-110h134c11 0 20 -10 20 -21c0 -12 -9 -22 -20 -22h-134v-408c0 -13 -12 -21 -26 -21c-13 0 -23 8 -23 21v560c0 115 100 185 204 185c56 0 117 -22 156 -69v-675c0 -11 -11 -22 -25 -22
c-13 0 -24 11 -24 22z" />
    <glyph glyph-name=".notdef" horiz-adv-x="328" 
d="M60 119l77 117l-77 118c-2 4 -4 8 -4 12c0 12 11 22 24 22c7 0 13 -4 18 -10l66 -103l66 103c4 6 12 10 18 10c12 0 23 -9 23 -22c0 -4 -1 -8 -4 -12l-76 -118l75 -117c3 -4 4 -8 4 -13c0 -11 -10 -21 -23 -21c-6 0 -13 3 -17 10l-66 101l-66 -101c-5 -7 -11 -10 -18 -10
c-13 0 -24 10 -24 21c0 5 2 9 4 13z" />
    <glyph glyph-name="A" unicode="A" horiz-adv-x="530" 
d="M51 0c-13 0 -28 8 -28 22c0 2 0 4 1 6l214 691c4 12 15 18 28 18c12 0 24 -6 28 -18l212 -691c0 -2 1 -3 1 -6c0 -12 -15 -22 -29 -22c-9 0 -17 4 -20 15l-49 159h-288l-48 -159c-4 -11 -12 -15 -22 -15zM134 220h261l-129 427z" />
    <glyph glyph-name="AE" unicode="&#xc6;" horiz-adv-x="697" 
d="M414 683v-294h154c13 0 21 -11 21 -24c0 -10 -6 -22 -21 -22h-154v-295h236c13 0 20 -12 20 -25c0 -11 -6 -23 -20 -23h-262c-12 0 -24 7 -24 22v321h-239v-316c0 -15 -3 -27 -25 -27c-17 0 -24 12 -24 27v494c0 153 89 210 201 210h373c14 0 20 -12 20 -23
c0 -13 -7 -25 -20 -25h-236zM125 521v-132h239v294h-87c-95 0 -152 -51 -152 -162z" />
    <glyph glyph-name="AEacute" unicode="&#x1fc;" horiz-adv-x="697" 
d="M421 910l-100 -55c-3 -2 -7 -3 -10 -3c-12 0 -22 11 -22 23c0 6 2 12 9 15l107 61c2 1 5 2 8 2c12 0 19 -12 19 -23c0 -7 -3 -15 -11 -20zM414 683v-294h154c13 0 21 -11 21 -24c0 -10 -6 -22 -21 -22h-154v-295h236c13 0 20 -12 20 -25c0 -11 -6 -23 -20 -23h-262
c-12 0 -24 7 -24 22v321h-239v-316c0 -15 -3 -27 -25 -27c-17 0 -24 12 -24 27v494c0 153 89 210 201 210h373c14 0 20 -12 20 -23c0 -13 -7 -25 -20 -25h-236zM125 521v-132h239v294h-87c-95 0 -152 -51 -152 -162z" />
    <glyph glyph-name="Aacute" unicode="&#xc1;" horiz-adv-x="530" 
d="M51 0c-13 0 -28 8 -28 22c0 2 0 4 1 6l214 691c4 12 15 18 28 18c12 0 24 -6 28 -18l212 -691c0 -2 1 -3 1 -6c0 -12 -15 -22 -29 -22c-9 0 -17 4 -20 15l-49 159h-288l-48 -159c-4 -11 -12 -15 -22 -15zM134 220h261l-129 427zM330 911l-100 -55c-3 -2 -7 -3 -10 -3
c-12 0 -22 11 -22 23c0 6 2 12 9 15l107 61c2 1 5 2 8 2c12 0 19 -12 19 -23c0 -7 -3 -15 -11 -20z" />
    <glyph glyph-name="Abreve" unicode="&#x102;" horiz-adv-x="530" 
d="M51 0c-13 0 -28 8 -28 22c0 2 0 4 1 6l214 691c4 12 15 18 28 18c12 0 24 -6 28 -18l212 -691c0 -2 1 -3 1 -6c0 -12 -15 -22 -29 -22c-9 0 -17 4 -20 15l-49 159h-288l-48 -159c-4 -11 -12 -15 -22 -15zM134 220h261l-129 427zM340 969h38c0 -61 -54 -113 -112 -113
c-60 0 -113 52 -113 113h38c0 -46 34 -82 75 -82c39 0 74 36 74 82z" />
    <glyph glyph-name="Acircumflex" unicode="&#xc2;" horiz-adv-x="530" 
d="M51 0c-13 0 -28 8 -28 22c0 2 0 4 1 6l214 691c4 12 15 18 28 18c12 0 24 -6 28 -18l212 -691c0 -2 1 -3 1 -6c0 -12 -15 -22 -29 -22c-9 0 -17 4 -20 15l-49 159h-288l-48 -159c-4 -11 -12 -15 -22 -15zM134 220h261l-129 427zM265 912l-104 -56c-3 -1 -6 -3 -8 -3
c-11 0 -20 10 -20 23c0 6 3 13 11 17l104 56c5 3 11 5 17 5s12 -2 17 -5l104 -55c7 -4 11 -12 11 -20c0 -11 -9 -20 -19 -20c-3 0 -6 2 -9 3z" />
    <glyph glyph-name="Adieresis" unicode="&#xc4;" horiz-adv-x="530" 
d="M51 0c-13 0 -28 8 -28 22c0 2 0 4 1 6l214 691c4 12 15 18 28 18c12 0 24 -6 28 -18l212 -691c0 -2 1 -3 1 -6c0 -12 -15 -22 -29 -22c-9 0 -17 4 -20 15l-49 159h-288l-48 -159c-4 -11 -12 -15 -22 -15zM134 220h261l-129 427zM207 919c19 0 32 -13 32 -32
s-13 -33 -32 -33s-33 14 -33 33s14 32 33 32zM324 919c19 0 32 -13 32 -32s-13 -33 -32 -33c-20 0 -33 14 -33 33s13 32 33 32z" />
    <glyph glyph-name="Agrave" unicode="&#xc0;" horiz-adv-x="530" 
d="M51 0c-13 0 -28 8 -28 22c0 2 0 4 1 6l214 691c4 12 15 18 28 18c12 0 24 -6 28 -18l212 -691c0 -2 1 -3 1 -6c0 -12 -15 -22 -29 -22c-9 0 -17 4 -20 15l-49 159h-288l-48 -159c-4 -11 -12 -15 -22 -15zM134 220h261l-129 427zM303 856l-100 55c-8 5 -11 13 -11 20
c0 11 8 23 20 23c2 0 5 -1 7 -2l107 -61c7 -3 9 -9 9 -15c0 -12 -10 -23 -22 -23c-3 0 -6 1 -10 3z" />
    <glyph glyph-name="Amacron" unicode="&#x100;" horiz-adv-x="530" 
d="M51 0c-13 0 -28 8 -28 22c0 2 0 4 1 6l214 691c4 12 15 18 28 18c12 0 24 -6 28 -18l212 -691c0 -2 1 -3 1 -6c0 -12 -15 -22 -29 -22c-9 0 -17 4 -20 15l-49 159h-288l-48 -159c-4 -11 -12 -15 -22 -15zM134 220h261l-129 427zM136 919c0 12 8 22 21 22h217
c11 0 22 -10 22 -22s-11 -20 -22 -20h-217c-13 0 -21 8 -21 20z" />
    <glyph glyph-name="Aogonek" unicode="&#x104;" horiz-adv-x="530" 
d="M481 -167c11 0 18 -5 18 -16c0 -10 -6 -15 -24 -15c-42 0 -91 17 -91 71c0 56 30 103 74 142l-49 159h-288l-48 -159c-4 -11 -12 -15 -22 -15c-13 0 -28 8 -28 22c0 2 0 4 1 6l214 691c4 12 15 18 28 18c12 0 24 -6 28 -18l212 -691c0 -2 1 -3 1 -6c0 -8 -7 -15 -16 -19
c-41 -38 -73 -76 -73 -127c0 -32 24 -43 63 -43zM134 220h261l-129 427z" />
    <glyph glyph-name="Aring" unicode="&#xc5;" horiz-adv-x="530" 
d="M51 0c-13 0 -28 8 -28 22c0 2 0 4 1 6l214 691c4 12 15 18 28 18c12 0 24 -6 28 -18l212 -691c0 -2 1 -3 1 -6c0 -12 -15 -22 -29 -22c-9 0 -17 4 -20 15l-49 159h-288l-48 -159c-4 -11 -12 -15 -22 -15zM134 220h261l-129 427zM265 1025c48 0 91 -43 91 -92
c0 -50 -43 -94 -91 -94c-50 0 -91 44 -91 94c0 48 40 92 91 92zM327 933c0 30 -28 62 -62 62c-35 0 -63 -33 -63 -62c0 -33 29 -67 63 -67s62 33 62 67z" />
    <glyph glyph-name="Atilde" unicode="&#xc3;" horiz-adv-x="530" 
d="M51 0c-13 0 -28 8 -28 22c0 2 0 4 1 6l214 691c4 12 15 18 28 18c12 0 24 -6 28 -18l212 -691c0 -2 1 -3 1 -6c0 -12 -15 -22 -29 -22c-9 0 -17 4 -20 15l-49 159h-288l-48 -159c-4 -11 -12 -15 -22 -15zM134 220h261l-129 427zM202 907c-43 0 -56 -33 -71 -33
c-10 0 -16 10 -16 21c0 31 55 54 89 54c50 0 77 -36 129 -36c45 0 50 31 67 31c10 0 17 -10 17 -19c0 -36 -54 -54 -84 -54c-51 0 -76 36 -131 36z" />
    <glyph glyph-name="B" unicode="B" horiz-adv-x="532" 
d="M79 21v688c0 15 12 22 24 22h156c115 0 205 -28 205 -168c0 -86 -34 -145 -85 -167c62 -26 103 -71 103 -174v-18c0 -151 -86 -204 -197 -204h-182c-15 0 -24 10 -24 21zM129 48h152c94 0 151 48 151 158v17c0 110 -57 150 -151 150h-152v-325zM129 683v-264h135
c102 0 150 34 150 140c0 103 -64 124 -154 124h-131z" />
    <glyph glyph-name="C" unicode="C" horiz-adv-x="517" 
d="M425 557c-3 46 -25 126 -149 126c-100 0 -154 -51 -154 -162v-317c0 -112 54 -162 157 -162c126 0 138 77 146 127c1 12 7 21 24 21s26 -6 26 -34c0 -83 -72 -162 -202 -162c-110 0 -201 57 -201 210v317c0 153 93 210 204 210c129 0 199 -78 199 -162
c0 -27 -9 -33 -25 -33c-20 0 -25 11 -25 21z" />
    <glyph glyph-name="CR" unicode="&#xd;" horiz-adv-x="0" 
 />
    <glyph glyph-name="Cacute" unicode="&#x106;" horiz-adv-x="517" 
d="M336 911l-100 -55c-3 -2 -7 -3 -10 -3c-12 0 -22 11 -22 23c0 6 2 12 9 15l107 61c2 1 5 2 8 2c12 0 19 -12 19 -23c0 -7 -3 -15 -11 -20zM425 557c-3 46 -25 126 -149 126c-100 0 -154 -51 -154 -162v-317c0 -112 54 -162 157 -162c126 0 138 77 146 127
c1 12 7 21 24 21s26 -6 26 -34c0 -83 -72 -162 -202 -162c-110 0 -201 57 -201 210v317c0 153 93 210 204 210c129 0 199 -78 199 -162c0 -27 -9 -33 -25 -33c-20 0 -25 11 -25 21z" />
    <glyph glyph-name="Ccaron" unicode="&#x10c;" horiz-adv-x="517" 
d="M173 981l99 -98l98 98c5 5 11 7 16 7c10 0 17 -10 17 -19c0 -6 -4 -12 -10 -19l-101 -96c-7 -6 -13 -10 -20 -10s-15 4 -21 10l-100 96c-7 7 -10 13 -10 19c0 9 7 19 17 19c4 0 10 -2 15 -7zM425 557c-3 46 -25 126 -149 126c-100 0 -154 -51 -154 -162v-317
c0 -112 54 -162 157 -162c126 0 138 77 146 127c1 12 7 21 24 21s26 -6 26 -34c0 -83 -72 -162 -202 -162c-110 0 -201 57 -201 210v317c0 153 93 210 204 210c129 0 199 -78 199 -162c0 -27 -9 -33 -25 -33c-20 0 -25 11 -25 21z" />
    <glyph glyph-name="Ccedilla" unicode="&#xc7;" horiz-adv-x="517" 
d="M425 557c-3 46 -25 126 -149 126c-100 0 -154 -51 -154 -162v-317c0 -112 54 -162 157 -162c126 0 138 77 146 127c1 12 7 21 24 21s26 -6 26 -34c0 -75 -59 -147 -166 -159l-15 -60c68 -2 95 -36 95 -71c0 -37 -29 -74 -85 -74c-25 0 -76 7 -76 24c0 7 6 21 14 21
c7 0 23 -13 56 -13c40 0 54 19 54 40c0 29 -26 41 -67 44l-33 2l21 84c-110 0 -201 57 -201 210v317c0 153 93 210 204 210c129 0 199 -78 199 -162c0 -27 -9 -33 -25 -33c-20 0 -25 11 -25 21z" />
    <glyph glyph-name="Ccircumflex" unicode="&#x108;" horiz-adv-x="517" 
d="M273 912l-104 -56c-3 -1 -6 -3 -8 -3c-11 0 -20 10 -20 23c0 6 3 13 11 17l104 56c5 3 11 5 17 5s12 -2 17 -5l104 -55c7 -4 11 -12 11 -20c0 -11 -9 -20 -19 -20c-3 0 -6 2 -9 3zM425 557c-3 46 -25 126 -149 126c-100 0 -154 -51 -154 -162v-317
c0 -112 54 -162 157 -162c126 0 138 77 146 127c1 12 7 21 24 21s26 -6 26 -34c0 -83 -72 -162 -202 -162c-110 0 -201 57 -201 210v317c0 153 93 210 204 210c129 0 199 -78 199 -162c0 -27 -9 -33 -25 -33c-20 0 -25 11 -25 21z" />
    <glyph glyph-name="Cdotaccent" unicode="&#x10a;" horiz-adv-x="517" 
d="M425 557c-3 46 -25 126 -149 126c-100 0 -154 -51 -154 -162v-317c0 -112 54 -162 157 -162c126 0 138 77 146 127c1 12 7 21 24 21s26 -6 26 -34c0 -83 -72 -162 -202 -162c-110 0 -201 57 -201 210v317c0 153 93 210 204 210c129 0 199 -78 199 -162
c0 -27 -9 -33 -25 -33c-20 0 -25 11 -25 21zM273 919c19 0 33 -13 33 -32s-14 -33 -33 -33s-33 14 -33 33s14 32 33 32z" />
    <glyph glyph-name="D" unicode="D" horiz-adv-x="554" 
d="M103 731h177c113 0 202 -57 202 -210v-311c0 -153 -89 -210 -202 -210h-177c-14 0 -24 10 -24 21v689c0 11 10 21 24 21zM280 683h-151v-635h151c95 0 152 51 152 162v311c0 111 -57 162 -152 162z" />
    <glyph glyph-name="Dcaron" unicode="&#x10e;" horiz-adv-x="554" 
d="M178 981l99 -98l98 98c5 5 11 7 16 7c10 0 17 -10 17 -19c0 -6 -4 -12 -10 -19l-101 -96c-7 -6 -13 -10 -20 -10s-15 4 -21 10l-100 96c-7 7 -10 13 -10 19c0 9 7 19 17 19c4 0 10 -2 15 -7zM103 731h177c113 0 202 -57 202 -210v-311c0 -153 -89 -210 -202 -210h-177
c-14 0 -24 10 -24 21v689c0 11 10 21 24 21zM280 683h-151v-635h151c95 0 152 51 152 162v311c0 111 -57 162 -152 162z" />
    <glyph glyph-name="Dcroat" unicode="&#x110;" horiz-adv-x="564" 
d="M113 731h177c113 0 202 -57 202 -210v-311c0 -153 -89 -210 -202 -210h-177c-14 0 -24 10 -24 21v341h-68c-12 0 -20 10 -20 22s8 22 20 22h68v304c0 11 10 21 24 21zM290 683h-151v-277h123c11 0 20 -10 20 -22s-9 -22 -20 -22h-123v-314h151c95 0 152 51 152 162v311
c0 111 -57 162 -152 162z" />
    <glyph glyph-name="Delta" unicode="&#x2206;" horiz-adv-x="498" 
d="M278 718l194 -688c1 -4 1 -7 1 -10c0 -13 -9 -20 -23 -20h-403c-13 0 -23 7 -23 20c0 3 1 6 2 10l195 688c4 13 15 19 28 19c15 0 25 -7 29 -19zM82 48h332l-165 600z" />
    <glyph glyph-name="E" unicode="E" horiz-adv-x="503" 
d="M129 683v-294h159c13 0 21 -11 21 -24c0 -10 -6 -22 -21 -22h-159v-295h330c13 0 21 -12 21 -25c0 -11 -6 -23 -21 -23h-356c-12 0 -24 7 -24 22v687c0 15 12 22 24 22h356c15 0 21 -12 21 -23c0 -13 -8 -25 -21 -25h-330z" />
    <glyph glyph-name="Eacute" unicode="&#xc9;" horiz-adv-x="503" 
d="M342 911l-100 -55c-3 -2 -7 -3 -10 -3c-12 0 -22 11 -22 23c0 6 2 12 9 15l107 61c2 1 5 2 8 2c12 0 19 -12 19 -23c0 -7 -3 -15 -11 -20zM129 683v-294h159c13 0 21 -11 21 -24c0 -10 -6 -22 -21 -22h-159v-295h330c13 0 21 -12 21 -25c0 -11 -6 -23 -21 -23h-356
c-12 0 -24 7 -24 22v687c0 15 12 22 24 22h356c15 0 21 -12 21 -23c0 -13 -8 -25 -21 -25h-330z" />
    <glyph glyph-name="Ebreve" unicode="&#x114;" horiz-adv-x="503" 
d="M129 683v-294h159c13 0 21 -11 21 -24c0 -10 -6 -22 -21 -22h-159v-295h330c13 0 21 -12 21 -25c0 -11 -6 -23 -21 -23h-356c-12 0 -24 7 -24 22v687c0 15 12 22 24 22h356c15 0 21 -12 21 -23c0 -13 -8 -25 -21 -25h-330zM353 969h38c0 -61 -54 -113 -112 -113
c-60 0 -113 52 -113 113h38c0 -46 34 -82 75 -82c39 0 74 36 74 82z" />
    <glyph glyph-name="Ecaron" unicode="&#x11a;" horiz-adv-x="503" 
d="M179 981l99 -98l98 98c5 5 11 7 16 7c10 0 17 -10 17 -19c0 -6 -4 -12 -10 -19l-101 -96c-7 -6 -13 -10 -20 -10s-15 4 -21 10l-100 96c-7 7 -10 13 -10 19c0 9 7 19 17 19c4 0 10 -2 15 -7zM129 683v-294h159c13 0 21 -11 21 -24c0 -10 -6 -22 -21 -22h-159v-295h330
c13 0 21 -12 21 -25c0 -11 -6 -23 -21 -23h-356c-12 0 -24 7 -24 22v687c0 15 12 22 24 22h356c15 0 21 -12 21 -23c0 -13 -8 -25 -21 -25h-330z" />
    <glyph glyph-name="Ecircumflex" unicode="&#xca;" horiz-adv-x="503" 
d="M280 912l-104 -56c-3 -1 -6 -3 -8 -3c-11 0 -20 10 -20 23c0 6 3 13 11 17l104 56c5 3 11 5 17 5s12 -2 17 -5l104 -55c7 -4 11 -12 11 -20c0 -11 -9 -20 -19 -20c-3 0 -6 2 -9 3zM129 683v-294h159c13 0 21 -11 21 -24c0 -10 -6 -22 -21 -22h-159v-295h330
c13 0 21 -12 21 -25c0 -11 -6 -23 -21 -23h-356c-12 0 -24 7 -24 22v687c0 15 12 22 24 22h356c15 0 21 -12 21 -23c0 -13 -8 -25 -21 -25h-330z" />
    <glyph glyph-name="Edieresis" unicode="&#xcb;" horiz-adv-x="503" 
d="M221 919c19 0 32 -13 32 -32s-13 -33 -32 -33s-33 14 -33 33s14 32 33 32zM338 919c19 0 32 -13 32 -32s-13 -33 -32 -33c-20 0 -33 14 -33 33s13 32 33 32zM129 683v-294h159c13 0 21 -11 21 -24c0 -10 -6 -22 -21 -22h-159v-295h330c13 0 21 -12 21 -25
c0 -11 -6 -23 -21 -23h-356c-12 0 -24 7 -24 22v687c0 15 12 22 24 22h356c15 0 21 -12 21 -23c0 -13 -8 -25 -21 -25h-330z" />
    <glyph glyph-name="Edotaccent" unicode="&#x116;" horiz-adv-x="503" 
d="M129 683v-294h159c13 0 21 -11 21 -24c0 -10 -6 -22 -21 -22h-159v-295h330c13 0 21 -12 21 -25c0 -11 -6 -23 -21 -23h-356c-12 0 -24 7 -24 22v687c0 15 12 22 24 22h356c15 0 21 -12 21 -23c0 -13 -8 -25 -21 -25h-330zM281 919c19 0 33 -13 33 -32s-14 -33 -33 -33
s-33 14 -33 33s14 32 33 32z" />
    <glyph glyph-name="Egrave" unicode="&#xc8;" horiz-adv-x="503" 
d="M129 683v-294h159c13 0 21 -11 21 -24c0 -10 -6 -22 -21 -22h-159v-295h330c13 0 21 -12 21 -25c0 -11 -6 -23 -21 -23h-356c-12 0 -24 7 -24 22v687c0 15 12 22 24 22h356c15 0 21 -12 21 -23c0 -13 -8 -25 -21 -25h-330zM318 856l-100 55c-8 5 -11 13 -11 20
c0 11 8 23 20 23c2 0 5 -1 7 -2l107 -61c7 -3 9 -9 9 -15c0 -12 -10 -23 -22 -23c-3 0 -6 1 -10 3z" />
    <glyph glyph-name="Emacron" unicode="&#x112;" horiz-adv-x="503" 
d="M129 683v-294h159c13 0 21 -11 21 -24c0 -10 -6 -22 -21 -22h-159v-295h330c13 0 21 -12 21 -25c0 -11 -6 -23 -21 -23h-356c-12 0 -24 7 -24 22v687c0 15 12 22 24 22h356c15 0 21 -12 21 -23c0 -13 -8 -25 -21 -25h-330zM150 919c0 12 8 22 21 22h217
c11 0 22 -10 22 -22s-11 -20 -22 -20h-217c-13 0 -21 8 -21 20z" />
    <glyph glyph-name="Eng" unicode="&#x14a;" horiz-adv-x="564" 
d="M355 -189c71 0 80 61 80 143v47c0 8 -3 19 -12 36l-294 576v-591c0 -15 -12 -22 -25 -22c-12 0 -25 7 -25 22v688c0 16 12 21 25 21c18 0 32 -24 41 -41l289 -571v591c0 15 13 21 25 21c13 0 25 -6 25 -21v-756c0 -111 -33 -189 -126 -189c-17 0 -25 12 -25 24
c0 13 10 22 22 22z" />
    <glyph glyph-name="Eogonek" unicode="&#x118;" horiz-adv-x="503" 
d="M129 683v-294h159c13 0 21 -11 21 -24c0 -10 -6 -22 -21 -22h-159v-295h330c13 0 21 -12 21 -25c0 -9 -4 -17 -12 -21c-41 -37 -72 -75 -72 -126c0 -32 24 -43 63 -43c11 0 18 -5 18 -16c0 -10 -6 -15 -24 -15c-42 0 -91 17 -91 71c0 49 23 91 58 127h-317
c-12 0 -24 7 -24 22v687c0 15 12 22 24 22h356c15 0 21 -12 21 -23c0 -13 -8 -25 -21 -25h-330z" />
    <glyph glyph-name="Eth" unicode="&#xd0;" horiz-adv-x="564" 
d="M113 731h177c113 0 202 -57 202 -210v-311c0 -153 -89 -210 -202 -210h-177c-14 0 -24 10 -24 21v341h-68c-12 0 -20 10 -20 22s8 22 20 22h68v304c0 11 10 21 24 21zM290 683h-151v-277h123c11 0 20 -10 20 -22s-9 -22 -20 -22h-123v-314h151c95 0 152 51 152 162v311
c0 111 -57 162 -152 162z" />
    <glyph glyph-name="Euro" unicode="&#x20ac;" horiz-adv-x="573" 
d="M172 258v-57c0 -103 53 -159 151 -159c87 0 151 43 151 127c1 14 11 21 25 21c15 0 25 -7 25 -26c0 -97 -77 -170 -202 -170c-115 0 -200 61 -200 207v57h-67c-12 0 -20 9 -20 21c0 13 8 23 20 23h67v102h-67c-12 0 -20 9 -20 21c0 13 8 23 20 23h67v73
c0 153 87 210 200 210c125 0 202 -73 202 -169c0 -19 -10 -26 -25 -26c-14 0 -25 7 -25 21c0 83 -64 126 -151 126c-95 0 -151 -51 -151 -162v-73h187c11 0 22 -10 22 -23c0 -12 -11 -21 -22 -21h-187v-102h187c11 0 22 -10 22 -22c0 -13 -11 -22 -22 -22h-187z" />
    <glyph glyph-name="F" unicode="F" horiz-adv-x="492" 
d="M79 21v688c0 15 12 22 24 22h355c14 0 21 -12 21 -23c0 -13 -8 -25 -21 -25h-329v-294h159c13 0 21 -11 21 -24c0 -10 -6 -22 -21 -22h-159v-322c0 -15 -12 -21 -25 -21c-12 0 -25 6 -25 21z" />
    <glyph glyph-name="G" unicode="G" horiz-adv-x="536" 
d="M425 557c-11 84 -64 126 -152 126c-95 0 -151 -51 -151 -162v-317c0 -111 56 -162 151 -162s152 51 152 162v134h-148c-13 0 -20 12 -20 23s7 23 20 23h177c13 0 21 -11 21 -23v-157c0 -153 -89 -210 -202 -210c-114 0 -201 57 -201 210v317c0 153 88 210 200 210
c126 0 203 -73 203 -169c0 -19 -11 -26 -25 -26c-13 0 -24 6 -25 21z" />
    <glyph glyph-name="Gbreve" unicode="&#x11e;" horiz-adv-x="536" 
d="M425 557c-11 84 -64 126 -152 126c-95 0 -151 -51 -151 -162v-317c0 -111 56 -162 151 -162s152 51 152 162v134h-148c-13 0 -20 12 -20 23s7 23 20 23h177c13 0 21 -11 21 -23v-157c0 -153 -89 -210 -202 -210c-114 0 -201 57 -201 210v317c0 153 88 210 200 210
c126 0 203 -73 203 -169c0 -19 -11 -26 -25 -26c-13 0 -24 6 -25 21zM347 969h38c0 -61 -54 -113 -112 -113c-60 0 -113 52 -113 113h38c0 -46 34 -82 75 -82c39 0 74 36 74 82z" />
    <glyph glyph-name="Gcircumflex" unicode="&#x11c;" horiz-adv-x="536" 
d="M271 912l-104 -56c-3 -1 -6 -3 -8 -3c-11 0 -20 10 -20 23c0 6 3 13 11 17l104 56c5 3 11 5 17 5s12 -2 17 -5l104 -55c7 -4 11 -12 11 -20c0 -11 -9 -20 -19 -20c-3 0 -6 2 -9 3zM425 557c-11 84 -64 126 -152 126c-95 0 -151 -51 -151 -162v-317
c0 -111 56 -162 151 -162s152 51 152 162v134h-148c-13 0 -20 12 -20 23s7 23 20 23h177c13 0 21 -11 21 -23v-157c0 -153 -89 -210 -202 -210c-114 0 -201 57 -201 210v317c0 153 88 210 200 210c126 0 203 -73 203 -169c0 -19 -11 -26 -25 -26c-13 0 -24 6 -25 21z" />
    <glyph glyph-name="Gcommaaccent" unicode="&#x122;" horiz-adv-x="536" 
d="M330 -91l-100 -55c-3 -2 -6 -3 -9 -3c-12 0 -23 11 -23 23c0 6 3 12 10 15l106 61c3 1 6 2 8 2c12 0 20 -12 20 -23c0 -7 -4 -15 -12 -20zM425 557c-11 84 -64 126 -152 126c-95 0 -151 -51 -151 -162v-317c0 -111 56 -162 151 -162s152 51 152 162v134h-148
c-13 0 -20 12 -20 23s7 23 20 23h177c13 0 21 -11 21 -23v-157c0 -153 -89 -210 -202 -210c-114 0 -201 57 -201 210v317c0 153 88 210 200 210c126 0 203 -73 203 -169c0 -19 -11 -26 -25 -26c-13 0 -24 6 -25 21z" />
    <glyph glyph-name="Gdotaccent" unicode="&#x120;" horiz-adv-x="536" 
d="M425 557c-11 84 -64 126 -152 126c-95 0 -151 -51 -151 -162v-317c0 -111 56 -162 151 -162s152 51 152 162v134h-148c-13 0 -20 12 -20 23s7 23 20 23h177c13 0 21 -11 21 -23v-157c0 -153 -89 -210 -202 -210c-114 0 -201 57 -201 210v317c0 153 88 210 200 210
c126 0 203 -73 203 -169c0 -19 -11 -26 -25 -26c-13 0 -24 6 -25 21zM273 919c19 0 33 -13 33 -32s-14 -33 -33 -33s-33 14 -33 33s14 32 33 32z" />
    <glyph glyph-name="H" unicode="H" horiz-adv-x="563" 
d="M434 22v334h-305v-334c0 -15 -12 -22 -25 -22c-12 0 -25 7 -25 22v688c0 15 13 21 25 21c13 0 25 -6 25 -21v-308h305v308c0 15 13 21 25 21c13 0 25 -6 25 -21v-688c0 -15 -12 -22 -25 -22c-12 0 -25 7 -25 22z" />
    <glyph glyph-name="Hbar" unicode="&#x126;" horiz-adv-x="565" 
d="M435 22v334h-305v-334c0 -15 -12 -22 -25 -22c-12 0 -25 7 -25 22v520h-40c-12 0 -20 9 -20 20c0 12 8 22 20 22h40v126c0 15 13 21 25 21c13 0 25 -6 25 -21v-126h305v126c0 15 13 21 25 21c13 0 25 -6 25 -21v-126h39c11 0 20 -10 20 -22c0 -11 -9 -20 -20 -20h-39
v-520c0 -15 -12 -22 -25 -22c-12 0 -25 7 -25 22zM130 402h305v140h-305v-140z" />
    <glyph glyph-name="Hcircumflex" unicode="&#x124;" horiz-adv-x="563" 
d="M282 912l-104 -56c-3 -1 -6 -3 -8 -3c-11 0 -20 10 -20 23c0 6 3 13 11 17l104 56c5 3 11 5 17 5s12 -2 17 -5l104 -55c7 -4 11 -12 11 -20c0 -11 -9 -20 -19 -20c-3 0 -6 2 -9 3zM434 22v334h-305v-334c0 -15 -12 -22 -25 -22c-12 0 -25 7 -25 22v688c0 15 13 21 25 21
c13 0 25 -6 25 -21v-308h305v308c0 15 13 21 25 21c13 0 25 -6 25 -21v-688c0 -15 -12 -22 -25 -22c-12 0 -25 7 -25 22z" />
    <glyph glyph-name="I" unicode="I" horiz-adv-x="208" 
d="M79 22v688c0 15 13 21 25 21c13 0 25 -6 25 -21v-688c0 -15 -12 -22 -25 -22c-12 0 -25 7 -25 22z" />
    <glyph glyph-name="IJ" unicode="&#x132;" horiz-adv-x="708" 
d="M79 22v688c0 15 13 21 25 21c13 0 25 -6 25 -21v-688c0 -15 -12 -22 -25 -22c-12 0 -25 7 -25 22zM582 683h-150c-14 0 -21 12 -21 25c0 11 6 23 21 23h176c12 0 24 -7 24 -22v-505c0 -153 -88 -210 -200 -210c-125 0 -203 73 -203 170c0 20 10 26 25 26
c12 0 25 -6 25 -21c1 -83 65 -127 152 -127c95 0 151 51 151 162v479z" />
    <glyph glyph-name="Iacute" unicode="&#xcd;" horiz-adv-x="208" 
d="M79 22v688c0 15 13 21 25 21c13 0 25 -6 25 -21v-688c0 -15 -12 -22 -25 -22c-12 0 -25 7 -25 22zM165 911l-100 -55c-3 -2 -7 -3 -10 -3c-12 0 -22 11 -22 23c0 6 2 12 9 15l107 61c2 1 5 2 8 2c12 0 19 -12 19 -23c0 -7 -3 -15 -11 -20z" />
    <glyph glyph-name="Ibreve" unicode="&#x12c;" horiz-adv-x="208" 
d="M79 22v688c0 15 13 21 25 21c13 0 25 -6 25 -21v-688c0 -15 -12 -22 -25 -22c-12 0 -25 7 -25 22zM179 969h38c0 -61 -54 -113 -112 -113c-60 0 -113 52 -113 113h38c0 -46 34 -82 75 -82c39 0 74 36 74 82z" />
    <glyph glyph-name="Icircumflex" unicode="&#xce;" horiz-adv-x="208" 
d="M79 22v688c0 15 13 21 25 21c13 0 25 -6 25 -21v-688c0 -15 -12 -22 -25 -22c-12 0 -25 7 -25 22zM105 912l-104 -56c-3 -1 -6 -3 -8 -3c-11 0 -20 10 -20 23c0 6 3 13 11 17l104 56c5 3 11 5 17 5s12 -2 17 -5l104 -55c7 -4 11 -12 11 -20c0 -11 -9 -20 -19 -20
c-3 0 -6 2 -9 3z" />
    <glyph glyph-name="Idieresis" unicode="&#xcf;" horiz-adv-x="208" 
d="M79 22v688c0 15 13 21 25 21c13 0 25 -6 25 -21v-688c0 -15 -12 -22 -25 -22c-12 0 -25 7 -25 22zM46 919c19 0 32 -13 32 -32s-13 -33 -32 -33s-33 14 -33 33s14 32 33 32zM163 919c19 0 32 -13 32 -32s-13 -33 -32 -33c-20 0 -33 14 -33 33s13 32 33 32z" />
    <glyph glyph-name="Idotaccent" unicode="&#x130;" horiz-adv-x="208" 
d="M79 22v688c0 15 13 21 25 21c13 0 25 -6 25 -21v-688c0 -15 -12 -22 -25 -22c-12 0 -25 7 -25 22zM104 919c19 0 33 -13 33 -32s-14 -33 -33 -33s-33 14 -33 33s14 32 33 32z" />
    <glyph glyph-name="Igrave" unicode="&#xcc;" horiz-adv-x="208" 
d="M79 22v688c0 15 13 21 25 21c13 0 25 -6 25 -21v-688c0 -15 -12 -22 -25 -22c-12 0 -25 7 -25 22zM142 856l-100 55c-8 5 -11 13 -11 20c0 11 8 23 20 23c2 0 5 -1 7 -2l107 -61c7 -3 9 -9 9 -15c0 -12 -10 -23 -22 -23c-3 0 -6 1 -10 3z" />
    <glyph glyph-name="Imacron" unicode="&#x12a;" horiz-adv-x="208" 
d="M79 22v688c0 15 13 21 25 21c13 0 25 -6 25 -21v-688c0 -15 -12 -22 -25 -22c-12 0 -25 7 -25 22zM-25 919c0 12 8 22 21 22h217c11 0 22 -10 22 -22s-11 -20 -22 -20h-217c-13 0 -21 8 -21 20z" />
    <glyph glyph-name="Iogonek" unicode="&#x12e;" horiz-adv-x="209" 
d="M113 -163c11 0 18 -5 18 -16c0 -10 -6 -15 -24 -15c-42 0 -91 17 -91 71c0 52 26 97 66 135c-2 3 -2 6 -2 10v688c0 15 13 21 25 21c13 0 25 -6 25 -21v-688c0 -10 -5 -16 -12 -19c-39 -36 -68 -74 -68 -123c0 -32 24 -43 63 -43z" />
    <glyph glyph-name="Itilde" unicode="&#x128;" horiz-adv-x="208" 
d="M79 22v688c0 15 13 21 25 21c13 0 25 -6 25 -21v-688c0 -15 -12 -22 -25 -22c-12 0 -25 7 -25 22zM41 907c-43 0 -56 -33 -71 -33c-10 0 -16 10 -16 21c0 31 55 54 89 54c50 0 77 -36 129 -36c45 0 50 31 67 31c10 0 17 -10 17 -19c0 -36 -54 -54 -84 -54
c-51 0 -76 36 -131 36z" />
    <glyph glyph-name="J" unicode="J" horiz-adv-x="503" 
d="M377 683h-150c-14 0 -21 12 -21 25c0 11 6 23 21 23h176c12 0 24 -7 24 -22v-505c0 -153 -88 -210 -200 -210c-125 0 -203 73 -203 170c0 20 10 26 25 26c12 0 25 -6 25 -21c1 -83 65 -127 152 -127c95 0 151 51 151 162v479z" />
    <glyph glyph-name="Jcircumflex" unicode="&#x134;" horiz-adv-x="503" 
d="M252 912l-104 -56c-3 -1 -6 -3 -8 -3c-11 0 -20 10 -20 23c0 6 3 13 11 17l104 56c5 3 11 5 17 5s12 -2 17 -5l104 -55c7 -4 11 -12 11 -20c0 -11 -9 -20 -19 -20c-3 0 -6 2 -9 3zM377 683h-150c-14 0 -21 12 -21 25c0 11 6 23 21 23h176c12 0 24 -7 24 -22v-505
c0 -153 -88 -210 -200 -210c-125 0 -203 73 -203 170c0 20 10 26 25 26c12 0 25 -6 25 -21c1 -83 65 -127 152 -127c95 0 151 51 151 162v479z" />
    <glyph glyph-name="K" unicode="K" horiz-adv-x="514" 
d="M79 22v688c0 15 13 21 25 21c13 0 25 -6 25 -21v-374l307 387c4 6 11 8 17 8c13 0 27 -13 27 -26c0 -4 -1 -9 -5 -12l-223 -278l252 -380c3 -3 4 -7 4 -11c0 -13 -14 -25 -28 -25c-7 0 -14 4 -19 12l-242 362l-90 -112v-239c0 -15 -12 -22 -25 -22c-12 0 -25 7 -25 22z
" />
    <glyph glyph-name="Kcommaaccent" unicode="&#x136;" horiz-adv-x="514" 
d="M317 -91l-100 -55c-3 -2 -6 -3 -9 -3c-12 0 -23 11 -23 23c0 6 3 12 10 15l106 61c3 1 6 2 8 2c12 0 20 -12 20 -23c0 -7 -4 -15 -12 -20zM79 22v688c0 15 13 21 25 21c13 0 25 -6 25 -21v-374l307 387c4 6 11 8 17 8c13 0 27 -13 27 -26c0 -4 -1 -9 -5 -12l-223 -278
l252 -380c3 -3 4 -7 4 -11c0 -13 -14 -25 -28 -25c-7 0 -14 4 -19 12l-242 362l-90 -112v-239c0 -15 -12 -22 -25 -22c-12 0 -25 7 -25 22z" />
    <glyph glyph-name="L" unicode="L" horiz-adv-x="457" 
d="M424 0h-321c-12 0 -24 7 -24 22v688c0 15 13 21 25 21c13 0 25 -6 25 -21v-662h295c13 0 19 -12 19 -24s-6 -24 -19 -24z" />
    <glyph glyph-name="Lacute" unicode="&#x139;" horiz-adv-x="457" 
d="M320 911l-100 -55c-3 -2 -7 -3 -10 -3c-12 0 -22 11 -22 23c0 6 2 12 9 15l107 61c2 1 5 2 8 2c12 0 19 -12 19 -23c0 -7 -3 -15 -11 -20zM424 0h-321c-12 0 -24 7 -24 22v688c0 15 13 21 25 21c13 0 25 -6 25 -21v-662h295c13 0 19 -12 19 -24s-6 -24 -19 -24z" />
    <glyph glyph-name="Lcaron" unicode="&#x13d;" horiz-adv-x="457" 
d="M332 741c21 0 40 -18 40 -41c0 -15 -16 -60 -37 -104c-3 -7 -10 -11 -16 -11c-9 0 -20 7 -20 18c0 2 0 5 2 7l19 51c-17 6 -29 22 -29 39c0 23 17 41 41 41zM424 0h-321c-12 0 -24 7 -24 22v688c0 15 13 21 25 21c13 0 25 -6 25 -21v-662h295c13 0 19 -12 19 -24
s-6 -24 -19 -24z" />
    <glyph glyph-name="Lcommaaccent" unicode="&#x13b;" horiz-adv-x="457" 
d="M313 -91l-100 -55c-3 -2 -6 -3 -9 -3c-12 0 -23 11 -23 23c0 6 3 12 10 15l106 61c3 1 6 2 8 2c12 0 20 -12 20 -23c0 -7 -4 -15 -12 -20zM424 0h-321c-12 0 -24 7 -24 22v688c0 15 13 21 25 21c13 0 25 -6 25 -21v-662h295c13 0 19 -12 19 -24s-6 -24 -19 -24z" />
    <glyph glyph-name="Ldot" unicode="&#x13f;" horiz-adv-x="457" 
d="M424 0h-321c-12 0 -24 7 -24 22v688c0 15 13 21 25 21c13 0 25 -6 25 -21v-662h295c13 0 19 -12 19 -24s-6 -24 -19 -24zM329 461c22 0 40 -18 40 -40c0 -21 -18 -40 -40 -40c-24 0 -41 19 -41 40c0 22 17 40 41 40z" />
    <glyph glyph-name="Lslash" unicode="&#x141;" horiz-adv-x="463" 
d="M430 0h-321c-12 0 -24 7 -24 22v274l-51 -28c-3 -2 -6 -3 -9 -3c-10 0 -21 12 -21 25c0 6 3 13 10 16l71 40v364c0 15 13 21 25 21c13 0 25 -6 25 -21v-336l107 61c3 2 6 2 9 2c12 0 22 -11 22 -23c0 -7 -4 -14 -10 -18l-128 -72v-276h295c13 0 19 -12 19 -24
s-6 -24 -19 -24z" />
    <glyph glyph-name="M" unicode="M" horiz-adv-x="659" 
d="M530 617l-178 -340c-8 -14 -18 -21 -23 -21c-10 0 -16 6 -23 21l-177 341v-596c0 -15 -12 -22 -25 -22c-12 0 -25 7 -25 22v685c0 18 12 24 25 24c17 0 33 -24 42 -41l183 -358l184 358c9 17 24 41 42 41c13 0 25 -6 25 -24v-685c0 -15 -13 -22 -25 -22
c-13 0 -25 7 -25 22v595z" />
    <glyph glyph-name="N" unicode="N" horiz-adv-x="563" 
d="M459 0c-15 0 -27 20 -36 37l-294 576v-591c0 -15 -12 -22 -25 -22c-12 0 -25 7 -25 22v688c0 16 12 21 25 21c18 0 32 -24 41 -41l289 -571v591c0 15 13 21 25 21c13 0 25 -6 25 -21v-688c0 -15 -12 -22 -25 -22z" />
    <glyph glyph-name="Nacute" unicode="&#x143;" horiz-adv-x="563" 
d="M340 911l-100 -55c-3 -2 -7 -3 -10 -3c-12 0 -22 11 -22 23c0 6 2 12 9 15l107 61c2 1 5 2 8 2c12 0 19 -12 19 -23c0 -7 -3 -15 -11 -20zM459 0c-15 0 -27 20 -36 37l-294 576v-591c0 -15 -12 -22 -25 -22c-12 0 -25 7 -25 22v688c0 16 12 21 25 21c18 0 32 -24 41 -41
l289 -571v591c0 15 13 21 25 21c13 0 25 -6 25 -21v-688c0 -15 -12 -22 -25 -22z" />
    <glyph glyph-name="Ncaron" unicode="&#x147;" horiz-adv-x="563" 
d="M182 981l99 -98l98 98c5 5 11 7 16 7c10 0 17 -10 17 -19c0 -6 -4 -12 -10 -19l-101 -96c-7 -6 -13 -10 -20 -10s-15 4 -21 10l-100 96c-7 7 -10 13 -10 19c0 9 7 19 17 19c4 0 10 -2 15 -7zM459 0c-15 0 -27 20 -36 37l-294 576v-591c0 -15 -12 -22 -25 -22
c-12 0 -25 7 -25 22v688c0 16 12 21 25 21c18 0 32 -24 41 -41l289 -571v591c0 15 13 21 25 21c13 0 25 -6 25 -21v-688c0 -15 -12 -22 -25 -22z" />
    <glyph glyph-name="Ncommaaccent" unicode="&#x145;" horiz-adv-x="563" 
d="M339 -91l-100 -55c-3 -2 -6 -3 -9 -3c-12 0 -23 11 -23 23c0 6 3 12 10 15l106 61c3 1 6 2 8 2c12 0 20 -12 20 -23c0 -7 -4 -15 -12 -20zM459 0c-15 0 -27 20 -36 37l-294 576v-591c0 -15 -12 -22 -25 -22c-12 0 -25 7 -25 22v688c0 16 12 21 25 21c18 0 32 -24 41 -41
l289 -571v591c0 15 13 21 25 21c13 0 25 -6 25 -21v-688c0 -15 -12 -22 -25 -22z" />
    <glyph glyph-name="Ntilde" unicode="&#xd1;" horiz-adv-x="563" 
d="M459 0c-15 0 -27 20 -36 37l-294 576v-591c0 -15 -12 -22 -25 -22c-12 0 -25 7 -25 22v688c0 16 12 21 25 21c18 0 32 -24 41 -41l289 -571v591c0 15 13 21 25 21c13 0 25 -6 25 -21v-688c0 -15 -12 -22 -25 -22zM217 907c-43 0 -56 -33 -71 -33c-10 0 -16 10 -16 21
c0 31 55 54 89 54c50 0 77 -36 129 -36c45 0 50 31 67 31c10 0 17 -10 17 -19c0 -36 -54 -54 -84 -54c-51 0 -76 36 -131 36z" />
    <glyph glyph-name="O" unicode="O" horiz-adv-x="547" 
d="M273 -6c-114 0 -201 57 -201 210v317c0 153 87 210 201 210c113 0 202 -57 202 -210v-317c0 -153 -89 -210 -202 -210zM425 204v317c0 111 -57 162 -152 162s-151 -51 -151 -162v-317c0 -111 56 -162 151 -162s152 51 152 162z" />
    <glyph glyph-name="OE" unicode="&#x152;" horiz-adv-x="842" 
d="M269 -6c-112 0 -197 57 -197 210v317c0 153 85 210 197 210c66 0 125 -21 159 -72v50c0 15 12 22 24 22h347c14 0 20 -12 20 -23c0 -13 -7 -25 -20 -25h-325v-294h154c13 0 20 -11 20 -24c0 -10 -6 -22 -20 -22h-154v-295h325c13 0 20 -12 20 -25c0 -11 -6 -23 -20 -23
h-347c-12 0 -24 7 -24 22v44c-34 -51 -93 -72 -159 -72zM425 204v317c0 111 -57 162 -152 162s-151 -51 -151 -162v-317c0 -111 56 -162 151 -162s152 51 152 162z" />
    <glyph glyph-name="Oacute" unicode="&#xd3;" horiz-adv-x="547" 
d="M339 911l-100 -55c-3 -2 -7 -3 -10 -3c-12 0 -22 11 -22 23c0 6 2 12 9 15l107 61c2 1 5 2 8 2c12 0 19 -12 19 -23c0 -7 -3 -15 -11 -20zM273 -6c-114 0 -201 57 -201 210v317c0 153 87 210 201 210c113 0 202 -57 202 -210v-317c0 -153 -89 -210 -202 -210zM425 204
v317c0 111 -57 162 -152 162s-151 -51 -151 -162v-317c0 -111 56 -162 151 -162s152 51 152 162z" />
    <glyph glyph-name="Obreve" unicode="&#x14e;" horiz-adv-x="547" 
d="M273 -6c-114 0 -201 57 -201 210v317c0 153 87 210 201 210c113 0 202 -57 202 -210v-317c0 -153 -89 -210 -202 -210zM425 204v317c0 111 -57 162 -152 162s-151 -51 -151 -162v-317c0 -111 56 -162 151 -162s152 51 152 162zM347 969h38c0 -61 -54 -113 -112 -113
c-60 0 -113 52 -113 113h38c0 -46 34 -82 75 -82c39 0 74 36 74 82z" />
    <glyph glyph-name="Ocircumflex" unicode="&#xd4;" horiz-adv-x="547" 
d="M273 912l-104 -56c-3 -1 -6 -3 -8 -3c-11 0 -20 10 -20 23c0 6 3 13 11 17l104 56c5 3 11 5 17 5s12 -2 17 -5l104 -55c7 -4 11 -12 11 -20c0 -11 -9 -20 -19 -20c-3 0 -6 2 -9 3zM273 -6c-114 0 -201 57 -201 210v317c0 153 87 210 201 210c113 0 202 -57 202 -210v-317
c0 -153 -89 -210 -202 -210zM425 204v317c0 111 -57 162 -152 162s-151 -51 -151 -162v-317c0 -111 56 -162 151 -162s152 51 152 162z" />
    <glyph glyph-name="Odieresis" unicode="&#xd6;" horiz-adv-x="547" 
d="M215 919c19 0 32 -13 32 -32s-13 -33 -32 -33s-33 14 -33 33s14 32 33 32zM332 919c19 0 32 -13 32 -32s-13 -33 -32 -33c-20 0 -33 14 -33 33s13 32 33 32zM273 -6c-114 0 -201 57 -201 210v317c0 153 87 210 201 210c113 0 202 -57 202 -210v-317
c0 -153 -89 -210 -202 -210zM425 204v317c0 111 -57 162 -152 162s-151 -51 -151 -162v-317c0 -111 56 -162 151 -162s152 51 152 162z" />
    <glyph glyph-name="Ograve" unicode="&#xd2;" horiz-adv-x="547" 
d="M273 -6c-114 0 -201 57 -201 210v317c0 153 87 210 201 210c113 0 202 -57 202 -210v-317c0 -153 -89 -210 -202 -210zM425 204v317c0 111 -57 162 -152 162s-151 -51 -151 -162v-317c0 -111 56 -162 151 -162s152 51 152 162zM311 856l-100 55c-8 5 -11 13 -11 20
c0 11 8 23 20 23c2 0 5 -1 7 -2l107 -61c7 -3 9 -9 9 -15c0 -12 -10 -23 -22 -23c-3 0 -6 1 -10 3z" />
    <glyph glyph-name="Ohungarumlaut" unicode="&#x150;" horiz-adv-x="547" 
d="M295 915l-93 -58c-4 -3 -7 -4 -11 -4c-11 0 -22 10 -22 21c0 5 2 10 8 13l99 64c3 2 6 3 9 3c11 0 19 -10 19 -21c0 -7 -3 -13 -9 -18zM443 915l-93 -58c-3 -3 -7 -4 -10 -4c-12 0 -22 10 -22 21c0 5 2 10 7 13l100 64c2 2 6 3 8 3c12 0 20 -10 20 -21
c0 -7 -3 -13 -10 -18zM273 -6c-114 0 -201 57 -201 210v317c0 153 87 210 201 210c113 0 202 -57 202 -210v-317c0 -153 -89 -210 -202 -210zM425 204v317c0 111 -57 162 -152 162s-151 -51 -151 -162v-317c0 -111 56 -162 151 -162s152 51 152 162z" />
    <glyph glyph-name="Omacron" unicode="&#x14c;" horiz-adv-x="547" 
d="M143 919c0 12 8 22 21 22h217c11 0 22 -10 22 -22s-11 -20 -22 -20h-217c-13 0 -21 8 -21 20zM273 -6c-114 0 -201 57 -201 210v317c0 153 87 210 201 210c113 0 202 -57 202 -210v-317c0 -153 -89 -210 -202 -210zM425 204v317c0 111 -57 162 -152 162
s-151 -51 -151 -162v-317c0 -111 56 -162 151 -162s152 51 152 162z" />
    <glyph glyph-name="Omega" unicode="&#x2126;" horiz-adv-x="540" 
d="M316 0v123c68 15 105 66 105 157v241c0 111 -56 162 -151 162s-150 -51 -150 -162v-241c0 -92 36 -143 105 -157v-123h-147c-12 0 -21 11 -21 24s10 23 21 23h106v36c-69 25 -115 86 -115 197v241c0 153 88 210 201 210c114 0 201 -57 201 -210v-241
c0 -111 -47 -172 -114 -197v-36h106c11 0 20 -10 20 -23s-8 -24 -20 -24h-147z" />
    <glyph glyph-name="Oslash" unicode="&#xd8;" horiz-adv-x="547" 
d="M465 768c10 0 23 -9 23 -23c0 -4 -1 -7 -4 -11l-42 -82c21 -32 33 -75 33 -131v-317c0 -153 -89 -210 -202 -210c-58 0 -109 14 -145 49l-27 -53c-5 -9 -12 -13 -21 -13c-11 0 -20 9 -20 19c0 4 0 7 2 11l37 73c-17 31 -27 72 -27 124v317c0 153 87 210 201 210
c54 0 102 -13 138 -44l37 71c4 8 10 10 17 10zM425 204v317c0 29 -4 54 -12 75l-260 -505c26 -33 67 -49 120 -49c95 0 152 51 152 162zM122 204c0 -25 3 -46 8 -65l257 501c-26 29 -65 43 -114 43c-95 0 -151 -51 -151 -162v-317z" />
    <glyph glyph-name="Oslashacute" unicode="&#x1fe;" horiz-adv-x="547" 
d="M465 768c10 0 23 -9 23 -23c0 -4 -1 -7 -4 -11l-42 -82c21 -32 33 -75 33 -131v-317c0 -153 -89 -210 -202 -210c-58 0 -109 14 -145 49l-27 -53c-5 -9 -12 -13 -21 -13c-11 0 -20 9 -20 19c0 4 0 7 2 11l37 73c-17 31 -27 72 -27 124v317c0 153 87 210 201 210
c54 0 102 -13 138 -44l37 71c4 8 10 10 17 10zM425 204v317c0 29 -4 54 -12 75l-260 -505c26 -33 67 -49 120 -49c95 0 152 51 152 162zM122 204c0 -25 3 -46 8 -65l257 501c-26 29 -65 43 -114 43c-95 0 -151 -51 -151 -162v-317zM336 911l-100 -55c-3 -2 -7 -3 -10 -3
c-12 0 -22 11 -22 23c0 6 2 12 9 15l107 61c2 1 5 2 8 2c12 0 19 -12 19 -23c0 -7 -3 -15 -11 -20z" />
    <glyph glyph-name="Otilde" unicode="&#xd5;" horiz-adv-x="547" 
d="M273 -6c-114 0 -201 57 -201 210v317c0 153 87 210 201 210c113 0 202 -57 202 -210v-317c0 -153 -89 -210 -202 -210zM425 204v317c0 111 -57 162 -152 162s-151 -51 -151 -162v-317c0 -111 56 -162 151 -162s152 51 152 162zM209 907c-43 0 -56 -33 -71 -33
c-10 0 -16 10 -16 21c0 31 55 54 89 54c50 0 77 -36 129 -36c45 0 50 31 67 31c10 0 17 -10 17 -19c0 -36 -54 -54 -84 -54c-51 0 -76 36 -131 36z" />
    <glyph glyph-name="P" unicode="P" horiz-adv-x="519" 
d="M79 22v688c0 11 9 20 23 21h180c113 0 201 -57 201 -209v-11c0 -152 -89 -210 -202 -210h-152v-279c0 -15 -12 -22 -25 -22c-12 0 -25 7 -25 22zM281 683h-152v-336h152c95 0 152 52 152 163v11c0 111 -57 162 -152 162z" />
    <glyph glyph-name="Q" unicode="Q" horiz-adv-x="547" 
d="M274 -109c-11 0 -22 7 -22 22v82c-103 6 -180 64 -180 209v317c0 153 87 210 201 210c113 0 202 -57 202 -210v-317c0 -144 -77 -203 -180 -209v-82c0 -15 -11 -22 -21 -22zM425 204v317c0 111 -57 162 -152 162s-151 -51 -151 -162v-317c0 -103 47 -154 130 -161v79
c0 15 11 21 22 21c10 0 21 -6 21 -21v-78c81 7 130 58 130 160z" />
    <glyph glyph-name="R" unicode="R" horiz-adv-x="516" 
d="M79 22v688c0 11 8 21 22 21h171c113 0 211 -47 211 -194c0 -126 -72 -178 -163 -191l160 -310c2 -4 3 -8 3 -12c0 -13 -10 -25 -27 -25c-12 0 -23 20 -31 35l-157 307h-139v-319c0 -15 -12 -22 -25 -22c-12 0 -25 7 -25 22zM272 683h-143v-296h143c95 0 161 42 161 149
c0 106 -66 147 -161 147z" />
    <glyph glyph-name="Racute" unicode="&#x154;" horiz-adv-x="516" 
d="M344 911l-100 -55c-3 -2 -7 -3 -10 -3c-12 0 -22 11 -22 23c0 6 2 12 9 15l107 61c2 1 5 2 8 2c12 0 19 -12 19 -23c0 -7 -3 -15 -11 -20zM79 22v688c0 11 8 21 22 21h171c113 0 211 -47 211 -194c0 -126 -72 -178 -163 -191l160 -310c2 -4 3 -8 3 -12
c0 -13 -10 -25 -27 -25c-12 0 -23 20 -31 35l-157 307h-139v-319c0 -15 -12 -22 -25 -22c-12 0 -25 7 -25 22zM272 683h-143v-296h143c95 0 161 42 161 149c0 106 -66 147 -161 147z" />
    <glyph glyph-name="Rcaron" unicode="&#x158;" horiz-adv-x="516" 
d="M177 981l99 -98l98 98c5 5 11 7 16 7c10 0 17 -10 17 -19c0 -6 -4 -12 -10 -19l-101 -96c-7 -6 -13 -10 -20 -10s-15 4 -21 10l-100 96c-7 7 -10 13 -10 19c0 9 7 19 17 19c4 0 10 -2 15 -7zM79 22v688c0 11 8 21 22 21h171c113 0 211 -47 211 -194
c0 -126 -72 -178 -163 -191l160 -310c2 -4 3 -8 3 -12c0 -13 -10 -25 -27 -25c-12 0 -23 20 -31 35l-157 307h-139v-319c0 -15 -12 -22 -25 -22c-12 0 -25 7 -25 22zM272 683h-143v-296h143c95 0 161 42 161 149c0 106 -66 147 -161 147z" />
    <glyph glyph-name="Rcommaaccent" unicode="&#x156;" horiz-adv-x="516" 
d="M306 -91l-100 -55c-3 -2 -6 -3 -9 -3c-12 0 -23 11 -23 23c0 6 3 12 10 15l106 61c3 1 6 2 8 2c12 0 20 -12 20 -23c0 -7 -4 -15 -12 -20zM79 22v688c0 11 8 21 22 21h171c113 0 211 -47 211 -194c0 -126 -72 -178 -163 -191l160 -310c2 -4 3 -8 3 -12
c0 -13 -10 -25 -27 -25c-12 0 -23 20 -31 35l-157 307h-139v-319c0 -15 -12 -22 -25 -22c-12 0 -25 7 -25 22zM272 683h-143v-296h143c95 0 161 42 161 149c0 106 -66 147 -161 147z" />
    <glyph glyph-name="S" unicode="S" horiz-adv-x="487" 
d="M233 42c102 0 159 51 159 150c0 240 -335 116 -335 363c0 145 117 177 204 177c79 0 163 -27 163 -57c0 -10 -10 -29 -23 -29c-17 0 -52 38 -141 38c-74 0 -153 -26 -153 -125c0 -201 335 -81 335 -362c0 -142 -86 -203 -204 -203c-128 0 -199 72 -199 104
c0 13 13 28 23 28c23 0 41 -84 171 -84z" />
    <glyph glyph-name="Sacute" unicode="&#x15a;" horiz-adv-x="487" 
d="M304 911l-100 -55c-3 -2 -7 -3 -10 -3c-12 0 -22 11 -22 23c0 6 2 12 9 15l107 61c2 1 5 2 8 2c12 0 19 -12 19 -23c0 -7 -3 -15 -11 -20zM233 42c102 0 159 51 159 150c0 240 -335 116 -335 363c0 145 117 177 204 177c79 0 163 -27 163 -57c0 -10 -10 -29 -23 -29
c-17 0 -52 38 -141 38c-74 0 -153 -26 -153 -125c0 -201 335 -81 335 -362c0 -142 -86 -203 -204 -203c-128 0 -199 72 -199 104c0 13 13 28 23 28c23 0 41 -84 171 -84z" />
    <glyph glyph-name="Scaron" unicode="&#x160;" horiz-adv-x="487" 
d="M141 981l99 -98l98 98c5 5 11 7 16 7c10 0 17 -10 17 -19c0 -6 -4 -12 -10 -19l-101 -96c-7 -6 -13 -10 -20 -10s-15 4 -21 10l-100 96c-7 7 -10 13 -10 19c0 9 7 19 17 19c4 0 10 -2 15 -7zM233 42c102 0 159 51 159 150c0 240 -335 116 -335 363c0 145 117 177 204 177
c79 0 163 -27 163 -57c0 -10 -10 -29 -23 -29c-17 0 -52 38 -141 38c-74 0 -153 -26 -153 -125c0 -201 335 -81 335 -362c0 -142 -86 -203 -204 -203c-128 0 -199 72 -199 104c0 13 13 28 23 28c23 0 41 -84 171 -84z" />
    <glyph glyph-name="Scedilla" unicode="&#x15e;" horiz-adv-x="487" 
d="M233 42c102 0 159 51 159 150c0 240 -335 116 -335 363c0 145 117 177 204 177c79 0 163 -27 163 -57c0 -10 -10 -29 -23 -29c-17 0 -52 38 -141 38c-74 0 -153 -26 -153 -125c0 -201 335 -81 335 -362c0 -124 -65 -186 -160 -200l-15 -60c68 -2 95 -36 95 -71
c0 -37 -29 -74 -85 -74c-25 0 -76 7 -76 24c0 7 6 21 14 21c7 0 23 -13 56 -13c40 0 54 19 54 40c0 29 -26 41 -67 44l-33 2l21 84h-8c-128 0 -199 72 -199 104c0 13 13 28 23 28c23 0 41 -84 171 -84z" />
    <glyph glyph-name="Scircumflex" unicode="&#x15c;" horiz-adv-x="487" 
d="M240 912l-104 -56c-3 -1 -6 -3 -8 -3c-11 0 -20 10 -20 23c0 6 3 13 11 17l104 56c5 3 11 5 17 5s12 -2 17 -5l104 -55c7 -4 11 -12 11 -20c0 -11 -9 -20 -19 -20c-3 0 -6 2 -9 3zM233 42c102 0 159 51 159 150c0 240 -335 116 -335 363c0 145 117 177 204 177
c79 0 163 -27 163 -57c0 -10 -10 -29 -23 -29c-17 0 -52 38 -141 38c-74 0 -153 -26 -153 -125c0 -201 335 -81 335 -362c0 -142 -86 -203 -204 -203c-128 0 -199 72 -199 104c0 13 13 28 23 28c23 0 41 -84 171 -84z" />
    <glyph glyph-name="Scommaaccent" unicode="&#x218;" horiz-adv-x="487" 
d="M314 -91l-100 -55c-3 -2 -6 -3 -9 -3c-12 0 -23 11 -23 23c0 6 3 12 10 15l106 61c3 1 6 2 8 2c12 0 20 -12 20 -23c0 -7 -4 -15 -12 -20zM233 42c102 0 159 51 159 150c0 240 -335 116 -335 363c0 145 117 177 204 177c79 0 163 -27 163 -57c0 -10 -10 -29 -23 -29
c-17 0 -52 38 -141 38c-74 0 -153 -26 -153 -125c0 -201 335 -81 335 -362c0 -142 -86 -203 -204 -203c-128 0 -199 72 -199 104c0 13 13 28 23 28c23 0 41 -84 171 -84z" />
    <glyph glyph-name="T" unicode="T" horiz-adv-x="468" 
d="M36 731h396c14 0 21 -11 21 -23s-6 -25 -21 -25h-172v-661c0 -15 -13 -22 -25 -22c-13 0 -25 7 -25 22v661h-174c-13 0 -21 12 -21 24s8 24 21 24z" />
    <glyph glyph-name="Tbar" unicode="&#x166;" horiz-adv-x="470" 
d="M37 731h396c14 0 21 -11 21 -23s-6 -25 -21 -25h-172v-296h137c14 0 21 -10 21 -21s-6 -23 -21 -23h-137v-321c0 -15 -13 -22 -25 -22c-13 0 -25 7 -25 22v321h-139c-13 0 -20 11 -20 22s7 22 20 22h139v296h-174c-13 0 -21 12 -21 24s8 24 21 24z" />
    <glyph glyph-name="Tcaron" unicode="&#x164;" horiz-adv-x="468" 
d="M134 981l99 -98l98 98c5 5 11 7 16 7c10 0 17 -10 17 -19c0 -6 -4 -12 -10 -19l-101 -96c-7 -6 -13 -10 -20 -10s-15 4 -21 10l-100 96c-7 7 -10 13 -10 19c0 9 7 19 17 19c4 0 10 -2 15 -7zM36 731h396c14 0 21 -11 21 -23s-6 -25 -21 -25h-172v-661
c0 -15 -13 -22 -25 -22c-13 0 -25 7 -25 22v661h-174c-13 0 -21 12 -21 24s8 24 21 24z" />
    <glyph glyph-name="Tcommaaccent" unicode="&#x162;" horiz-adv-x="468" 
d="M294 -91l-100 -55c-3 -2 -6 -3 -9 -3c-12 0 -23 11 -23 23c0 6 3 12 10 15l106 61c3 1 6 2 8 2c12 0 20 -12 20 -23c0 -7 -4 -15 -12 -20zM36 731h396c14 0 21 -11 21 -23s-6 -25 -21 -25h-172v-661c0 -15 -13 -22 -25 -22c-13 0 -25 7 -25 22v661h-174
c-13 0 -21 12 -21 24s8 24 21 24z" />
    <glyph glyph-name="Thorn" unicode="&#xde;" 
d="M103 733c15 0 25 -8 25 -21v-169c23 40 69 76 141 76c89 0 172 -55 172 -153v-178c0 -98 -86 -154 -167 -154c-62 0 -128 32 -146 78v-190c0 -11 -11 -22 -24 -22c-14 0 -25 11 -25 22v691c0 13 11 20 24 20zM392 288v178c0 71 -63 106 -127 106
c-72 0 -137 -43 -137 -106v-179c0 -50 58 -107 137 -107c63 0 127 36 127 108z" />
    <glyph glyph-name="U" unicode="U" horiz-adv-x="557" 
d="M431 204v506c0 15 12 21 25 21c12 0 25 -6 25 -21v-506c0 -153 -89 -210 -203 -210s-202 57 -202 210v506c0 15 13 21 25 21c13 0 25 -6 25 -21v-506c0 -111 57 -162 152 -162s153 51 153 162z" />
    <glyph glyph-name="Uacute" unicode="&#xda;" horiz-adv-x="557" 
d="M342 911l-100 -55c-3 -2 -7 -3 -10 -3c-12 0 -22 11 -22 23c0 6 2 12 9 15l107 61c2 1 5 2 8 2c12 0 19 -12 19 -23c0 -7 -3 -15 -11 -20zM431 204v506c0 15 12 21 25 21c12 0 25 -6 25 -21v-506c0 -153 -89 -210 -203 -210s-202 57 -202 210v506c0 15 13 21 25 21
c13 0 25 -6 25 -21v-506c0 -111 57 -162 152 -162s153 51 153 162z" />
    <glyph glyph-name="Ubreve" unicode="&#x16c;" horiz-adv-x="557" 
d="M431 204v506c0 15 12 21 25 21c12 0 25 -6 25 -21v-506c0 -153 -89 -210 -203 -210s-202 57 -202 210v506c0 15 13 21 25 21c13 0 25 -6 25 -21v-506c0 -111 57 -162 152 -162s153 51 153 162zM352 969h38c0 -61 -54 -113 -112 -113c-60 0 -113 52 -113 113h38
c0 -46 34 -82 75 -82c39 0 74 36 74 82z" />
    <glyph glyph-name="Ucircumflex" unicode="&#xdb;" horiz-adv-x="557" 
d="M277 912l-104 -56c-3 -1 -6 -3 -8 -3c-11 0 -20 10 -20 23c0 6 3 13 11 17l104 56c5 3 11 5 17 5s12 -2 17 -5l104 -55c7 -4 11 -12 11 -20c0 -11 -9 -20 -19 -20c-3 0 -6 2 -9 3zM431 204v506c0 15 12 21 25 21c12 0 25 -6 25 -21v-506c0 -153 -89 -210 -203 -210
s-202 57 -202 210v506c0 15 13 21 25 21c13 0 25 -6 25 -21v-506c0 -111 57 -162 152 -162s153 51 153 162z" />
    <glyph glyph-name="Udieresis" unicode="&#xdc;" horiz-adv-x="557" 
d="M220 919c19 0 32 -13 32 -32s-13 -33 -32 -33s-33 14 -33 33s14 32 33 32zM337 919c19 0 32 -13 32 -32s-13 -33 -32 -33c-20 0 -33 14 -33 33s13 32 33 32zM431 204v506c0 15 12 21 25 21c12 0 25 -6 25 -21v-506c0 -153 -89 -210 -203 -210s-202 57 -202 210v506
c0 15 13 21 25 21c13 0 25 -6 25 -21v-506c0 -111 57 -162 152 -162s153 51 153 162z" />
    <glyph glyph-name="Ugrave" unicode="&#xd9;" horiz-adv-x="557" 
d="M431 204v506c0 15 12 21 25 21c12 0 25 -6 25 -21v-506c0 -153 -89 -210 -203 -210s-202 57 -202 210v506c0 15 13 21 25 21c13 0 25 -6 25 -21v-506c0 -111 57 -162 152 -162s153 51 153 162zM315 856l-100 55c-8 5 -11 13 -11 20c0 11 8 23 20 23c2 0 5 -1 7 -2
l107 -61c7 -3 9 -9 9 -15c0 -12 -10 -23 -22 -23c-3 0 -6 1 -10 3z" />
    <glyph glyph-name="Uhungarumlaut" unicode="&#x170;" horiz-adv-x="557" 
d="M431 204v506c0 15 12 21 25 21c12 0 25 -6 25 -21v-506c0 -153 -89 -210 -203 -210s-202 57 -202 210v506c0 15 13 21 25 21c13 0 25 -6 25 -21v-506c0 -111 57 -162 152 -162s153 51 153 162zM310 915l-93 -58c-4 -3 -7 -4 -11 -4c-11 0 -22 10 -22 21c0 5 2 10 8 13
l99 64c3 2 6 3 9 3c11 0 19 -10 19 -21c0 -7 -3 -13 -9 -18zM458 915l-93 -58c-3 -3 -7 -4 -10 -4c-12 0 -22 10 -22 21c0 5 2 10 7 13l100 64c2 2 6 3 8 3c12 0 20 -10 20 -21c0 -7 -3 -13 -10 -18z" />
    <glyph glyph-name="Umacron" unicode="&#x16a;" horiz-adv-x="557" 
d="M431 204v506c0 15 12 21 25 21c12 0 25 -6 25 -21v-506c0 -153 -89 -210 -203 -210s-202 57 -202 210v506c0 15 13 21 25 21c13 0 25 -6 25 -21v-506c0 -111 57 -162 152 -162s153 51 153 162zM148 919c0 12 8 22 21 22h217c11 0 22 -10 22 -22s-11 -20 -22 -20h-217
c-13 0 -21 8 -21 20z" />
    <glyph glyph-name="Uogonek" unicode="&#x172;" horiz-adv-x="557" 
d="M431 204v506c0 15 12 21 25 21c12 0 25 -6 25 -21v-506c0 -120 -55 -181 -133 -202c-40 -37 -72 -75 -72 -126c0 -32 24 -43 63 -43c11 0 18 -5 18 -16c0 -10 -6 -15 -24 -15c-42 0 -91 17 -91 71c0 46 20 86 53 122c-6 -1 -12 -1 -17 -1c-114 0 -202 57 -202 210v506
c0 15 13 21 25 21c13 0 25 -6 25 -21v-506c0 -111 57 -162 152 -162s153 51 153 162z" />
    <glyph glyph-name="Uring" unicode="&#x16e;" horiz-adv-x="557" 
d="M278 1025c48 0 91 -43 91 -92c0 -50 -43 -94 -91 -94c-50 0 -91 44 -91 94c0 48 40 92 91 92zM340 933c0 30 -28 62 -62 62c-35 0 -63 -33 -63 -62c0 -33 29 -67 63 -67s62 33 62 67zM431 204v506c0 15 12 21 25 21c12 0 25 -6 25 -21v-506c0 -153 -89 -210 -203 -210
s-202 57 -202 210v506c0 15 13 21 25 21c13 0 25 -6 25 -21v-506c0 -111 57 -162 152 -162s153 51 153 162z" />
    <glyph glyph-name="Utilde" unicode="&#x168;" horiz-adv-x="557" 
d="M431 204v506c0 15 12 21 25 21c12 0 25 -6 25 -21v-506c0 -153 -89 -210 -203 -210s-202 57 -202 210v506c0 15 13 21 25 21c13 0 25 -6 25 -21v-506c0 -111 57 -162 152 -162s153 51 153 162zM214 907c-43 0 -56 -33 -71 -33c-10 0 -16 10 -16 21c0 31 55 54 89 54
c50 0 77 -36 129 -36c45 0 50 31 67 31c10 0 17 -10 17 -19c0 -36 -54 -54 -84 -54c-51 0 -76 36 -131 36z" />
    <glyph glyph-name="V" unicode="V" horiz-adv-x="528" 
d="M237 12l-214 691c-1 2 -1 4 -1 6c0 14 15 22 28 22c10 0 18 -4 22 -15l193 -632l192 632c3 11 11 15 20 15c14 0 29 -10 29 -22c0 -3 -1 -4 -1 -6l-212 -691c-3 -12 -16 -18 -28 -18c-13 0 -24 6 -28 18z" />
    <glyph glyph-name="W" unicode="W" horiz-adv-x="762" 
d="M737 703l-196 -691c-4 -12 -17 -18 -29 -18s-25 6 -27 18l-103 374l-103 -374c-3 -12 -15 -18 -28 -18s-25 6 -28 18l-198 691c-1 3 -1 4 -1 7c0 13 14 21 27 21c10 0 20 -5 23 -15l177 -632l102 379c3 13 15 20 27 20c11 0 24 -7 28 -20l105 -379l175 632
c3 10 13 15 23 15c13 0 27 -8 27 -21c0 -3 0 -4 -1 -7z" />
    <glyph glyph-name="Wacute" unicode="&#x1e82;" horiz-adv-x="762" 
d="M444 911l-100 -55c-3 -2 -7 -3 -10 -3c-12 0 -22 11 -22 23c0 6 2 12 9 15l107 61c2 1 5 2 8 2c12 0 19 -12 19 -23c0 -7 -3 -15 -11 -20zM737 703l-196 -691c-4 -12 -17 -18 -29 -18s-25 6 -27 18l-103 374l-103 -374c-3 -12 -15 -18 -28 -18s-25 6 -28 18l-198 691
c-1 3 -1 4 -1 7c0 13 14 21 27 21c10 0 20 -5 23 -15l177 -632l102 379c3 13 15 20 27 20c11 0 24 -7 28 -20l105 -379l175 632c3 10 13 15 23 15c13 0 27 -8 27 -21c0 -3 0 -4 -1 -7z" />
    <glyph glyph-name="Wcircumflex" unicode="&#x174;" horiz-adv-x="762" 
d="M381 912l-104 -56c-3 -1 -6 -3 -8 -3c-11 0 -20 10 -20 23c0 6 3 13 11 17l104 56c5 3 11 5 17 5s12 -2 17 -5l104 -55c7 -4 11 -12 11 -20c0 -11 -9 -20 -19 -20c-3 0 -6 2 -9 3zM737 703l-196 -691c-4 -12 -17 -18 -29 -18s-25 6 -27 18l-103 374l-103 -374
c-3 -12 -15 -18 -28 -18s-25 6 -28 18l-198 691c-1 3 -1 4 -1 7c0 13 14 21 27 21c10 0 20 -5 23 -15l177 -632l102 379c3 13 15 20 27 20c11 0 24 -7 28 -20l105 -379l175 632c3 10 13 15 23 15c13 0 27 -8 27 -21c0 -3 0 -4 -1 -7z" />
    <glyph glyph-name="Wdieresis" unicode="&#x1e84;" horiz-adv-x="762" 
d="M323 919c19 0 32 -13 32 -32s-13 -33 -32 -33s-33 14 -33 33s14 32 33 32zM440 919c19 0 32 -13 32 -32s-13 -33 -32 -33c-20 0 -33 14 -33 33s13 32 33 32zM737 703l-196 -691c-4 -12 -17 -18 -29 -18s-25 6 -27 18l-103 374l-103 -374c-3 -12 -15 -18 -28 -18
s-25 6 -28 18l-198 691c-1 3 -1 4 -1 7c0 13 14 21 27 21c10 0 20 -5 23 -15l177 -632l102 379c3 13 15 20 27 20c11 0 24 -7 28 -20l105 -379l175 632c3 10 13 15 23 15c13 0 27 -8 27 -21c0 -3 0 -4 -1 -7z" />
    <glyph glyph-name="Wgrave" unicode="&#x1e80;" horiz-adv-x="762" 
d="M737 703l-196 -691c-4 -12 -17 -18 -29 -18s-25 6 -27 18l-103 374l-103 -374c-3 -12 -15 -18 -28 -18s-25 6 -28 18l-198 691c-1 3 -1 4 -1 7c0 13 14 21 27 21c10 0 20 -5 23 -15l177 -632l102 379c3 13 15 20 27 20c11 0 24 -7 28 -20l105 -379l175 632
c3 10 13 15 23 15c13 0 27 -8 27 -21c0 -3 0 -4 -1 -7zM418 856l-100 55c-8 5 -11 13 -11 20c0 11 8 23 20 23c2 0 5 -1 7 -2l107 -61c7 -3 9 -9 9 -15c0 -12 -10 -23 -22 -23c-3 0 -6 1 -10 3z" />
    <glyph glyph-name="X" unicode="X" horiz-adv-x="465" 
d="M381 33l-149 286l-148 -286c-7 -14 -15 -34 -30 -34c-13 0 -28 11 -28 25c0 4 2 8 4 13l172 329l-169 326c-4 7 -6 13 -6 19c0 13 12 21 28 21c14 0 24 -19 32 -35l145 -283l146 283c8 14 17 35 32 35c16 0 28 -8 28 -21c0 -6 -2 -12 -6 -19l-170 -326l173 -329
c2 -5 4 -9 4 -13c0 -14 -14 -25 -28 -25c-15 0 -23 20 -30 34z" />
    <glyph glyph-name="Y" unicode="Y" horiz-adv-x="520" 
d="M235 22v254c0 3 -1 5 -2 7l-207 407c-3 8 -5 15 -5 19c0 14 12 22 24 22c8 0 16 -6 23 -18l192 -385l193 385c6 12 14 18 23 18c11 0 22 -8 22 -22c0 -4 0 -11 -4 -19l-208 -407c-1 -2 -1 -4 -1 -7v-254c0 -15 -13 -22 -25 -22c-13 0 -25 7 -25 22z" />
    <glyph glyph-name="Yacute" unicode="&#xdd;" horiz-adv-x="520" 
d="M235 22v254c0 3 -1 5 -2 7l-207 407c-3 8 -5 15 -5 19c0 14 12 22 24 22c8 0 16 -6 23 -18l192 -385l193 385c6 12 14 18 23 18c11 0 22 -8 22 -22c0 -4 0 -11 -4 -19l-208 -407c-1 -2 -1 -4 -1 -7v-254c0 -15 -13 -22 -25 -22c-13 0 -25 7 -25 22zM322 911l-100 -55
c-3 -2 -7 -3 -10 -3c-12 0 -22 11 -22 23c0 6 2 12 9 15l107 61c2 1 5 2 8 2c12 0 19 -12 19 -23c0 -7 -3 -15 -11 -20z" />
    <glyph glyph-name="Ycircumflex" unicode="&#x176;" horiz-adv-x="520" 
d="M235 22v254c0 3 -1 5 -2 7l-207 407c-3 8 -5 15 -5 19c0 14 12 22 24 22c8 0 16 -6 23 -18l192 -385l193 385c6 12 14 18 23 18c11 0 22 -8 22 -22c0 -4 0 -11 -4 -19l-208 -407c-1 -2 -1 -4 -1 -7v-254c0 -15 -13 -22 -25 -22c-13 0 -25 7 -25 22zM260 912l-104 -56
c-3 -1 -6 -3 -8 -3c-11 0 -20 10 -20 23c0 6 3 13 11 17l104 56c5 3 11 5 17 5s12 -2 17 -5l104 -55c7 -4 11 -12 11 -20c0 -11 -9 -20 -19 -20c-3 0 -6 2 -9 3z" />
    <glyph glyph-name="Ydieresis" unicode="&#x178;" horiz-adv-x="520" 
d="M235 22v254c0 3 -1 5 -2 7l-207 407c-3 8 -5 15 -5 19c0 14 12 22 24 22c8 0 16 -6 23 -18l192 -385l193 385c6 12 14 18 23 18c11 0 22 -8 22 -22c0 -4 0 -11 -4 -19l-208 -407c-1 -2 -1 -4 -1 -7v-254c0 -15 -13 -22 -25 -22c-13 0 -25 7 -25 22zM202 919
c19 0 32 -13 32 -32s-13 -33 -32 -33s-33 14 -33 33s14 32 33 32zM319 919c19 0 32 -13 32 -32s-13 -33 -32 -33c-20 0 -33 14 -33 33s13 32 33 32z" />
    <glyph glyph-name="Ygrave" unicode="&#x1ef2;" horiz-adv-x="520" 
d="M235 22v254c0 3 -1 5 -2 7l-207 407c-3 8 -5 15 -5 19c0 14 12 22 24 22c8 0 16 -6 23 -18l192 -385l193 385c6 12 14 18 23 18c11 0 22 -8 22 -22c0 -4 0 -11 -4 -19l-208 -407c-1 -2 -1 -4 -1 -7v-254c0 -15 -13 -22 -25 -22c-13 0 -25 7 -25 22zM297 856l-100 55
c-8 5 -11 13 -11 20c0 11 8 23 20 23c2 0 5 -1 7 -2l107 -61c7 -3 9 -9 9 -15c0 -12 -10 -23 -22 -23c-3 0 -6 1 -10 3z" />
    <glyph glyph-name="Z" unicode="Z" horiz-adv-x="474" 
d="M432 692l-341 -644h337c14 0 21 -12 21 -24s-7 -24 -21 -24h-381c-13 0 -21 8 -21 20c0 5 1 11 5 17l342 646h-315c-14 0 -21 12 -21 24s7 24 21 24h359c14 0 21 -7 21 -18c0 -6 -2 -14 -6 -21z" />
    <glyph glyph-name="Zacute" unicode="&#x179;" horiz-adv-x="474" 
d="M293 911l-100 -55c-3 -2 -7 -3 -10 -3c-12 0 -22 11 -22 23c0 6 2 12 9 15l107 61c2 1 5 2 8 2c12 0 19 -12 19 -23c0 -7 -3 -15 -11 -20zM432 692l-341 -644h337c14 0 21 -12 21 -24s-7 -24 -21 -24h-381c-13 0 -21 8 -21 20c0 5 1 11 5 17l342 646h-315
c-14 0 -21 12 -21 24s7 24 21 24h359c14 0 21 -7 21 -18c0 -6 -2 -14 -6 -21z" />
    <glyph glyph-name="Zcaron" unicode="&#x17d;" horiz-adv-x="474" 
d="M129 981l99 -98l98 98c5 5 11 7 16 7c10 0 17 -10 17 -19c0 -6 -4 -12 -10 -19l-101 -96c-7 -6 -13 -10 -20 -10s-15 4 -21 10l-100 96c-7 7 -10 13 -10 19c0 9 7 19 17 19c4 0 10 -2 15 -7zM432 692l-341 -644h337c14 0 21 -12 21 -24s-7 -24 -21 -24h-381
c-13 0 -21 8 -21 20c0 5 1 11 5 17l342 646h-315c-14 0 -21 12 -21 24s7 24 21 24h359c14 0 21 -7 21 -18c0 -6 -2 -14 -6 -21z" />
    <glyph glyph-name="Zdotaccent" unicode="&#x17b;" horiz-adv-x="474" 
d="M432 692l-341 -644h337c14 0 21 -12 21 -24s-7 -24 -21 -24h-381c-13 0 -21 8 -21 20c0 5 1 11 5 17l342 646h-315c-14 0 -21 12 -21 24s7 24 21 24h359c14 0 21 -7 21 -18c0 -6 -2 -14 -6 -21zM231 919c19 0 33 -13 33 -32s-14 -33 -33 -33s-33 14 -33 33s14 32 33 32z
" />
    <glyph glyph-name="a" unicode="a" horiz-adv-x="431" 
d="M196 478c128 0 173 -93 173 -192v-264c0 -12 -10 -22 -24 -22c-13 0 -24 10 -24 22v48c-34 -39 -84 -76 -150 -76c-77 0 -138 42 -138 132c0 107 94 134 233 134h54v26c0 70 -35 147 -126 147c-64 0 -91 -28 -105 -28s-22 17 -22 27c0 22 67 46 129 46zM320 146v74h-49
c-98 0 -189 -9 -189 -92c0 -62 42 -90 96 -90c70 0 142 64 142 108z" />
    <glyph glyph-name="a.ss01" horiz-adv-x="441" 
d="M197 478c127 0 172 -93 172 -192v-185c0 -38 13 -60 41 -60c11 -1 20 -9 20 -22c0 -16 -12 -25 -25 -25c-53 0 -74 30 -79 76c-38 -41 -88 -76 -156 -76c-74 0 -137 41 -137 130c0 109 93 135 233 135h54v27c0 70 -34 147 -127 147c-62 0 -91 -28 -104 -28
c-14 0 -22 17 -22 26c0 24 67 47 130 47zM320 146v74h-49c-102 0 -189 -9 -189 -94c0 -59 42 -88 93 -88c74 0 145 64 145 108z" />
    <glyph glyph-name="aacute" unicode="&#xe1;" horiz-adv-x="431" 
d="M196 478c128 0 173 -93 173 -192v-264c0 -12 -10 -22 -24 -22c-13 0 -24 10 -24 22v48c-34 -39 -84 -76 -150 -76c-77 0 -138 42 -138 132c0 107 94 134 233 134h54v26c0 70 -35 147 -126 147c-64 0 -91 -28 -105 -28s-22 17 -22 27c0 22 67 46 129 46zM320 146v74h-49
c-98 0 -189 -9 -189 -92c0 -62 42 -90 96 -90c70 0 142 64 142 108zM264 654l-100 -55c-3 -2 -7 -3 -10 -3c-12 0 -22 11 -22 23c0 6 2 12 9 15l107 61c2 1 5 2 8 2c12 0 19 -12 19 -23c0 -7 -3 -15 -11 -20z" />
    <glyph glyph-name="abreve" unicode="&#x103;" horiz-adv-x="431" 
d="M196 478c128 0 173 -93 173 -192v-264c0 -12 -10 -22 -24 -22c-13 0 -24 10 -24 22v48c-34 -39 -84 -76 -150 -76c-77 0 -138 42 -138 132c0 107 94 134 233 134h54v26c0 70 -35 147 -126 147c-64 0 -91 -28 -105 -28s-22 17 -22 27c0 22 67 46 129 46zM320 146v74h-49
c-98 0 -189 -9 -189 -92c0 -62 42 -90 96 -90c70 0 142 64 142 108zM285 712h38c0 -61 -54 -113 -112 -113c-60 0 -113 52 -113 113h38c0 -46 34 -82 75 -82c39 0 74 36 74 82z" />
    <glyph glyph-name="acircumflex" unicode="&#xe2;" horiz-adv-x="431" 
d="M204 655l-104 -56c-3 -1 -6 -3 -8 -3c-11 0 -20 10 -20 23c0 6 3 13 11 17l104 56c5 3 11 5 17 5s12 -2 17 -5l104 -55c7 -4 11 -12 11 -20c0 -11 -9 -20 -19 -20c-3 0 -6 2 -9 3zM196 478c128 0 173 -93 173 -192v-264c0 -12 -10 -22 -24 -22c-13 0 -24 10 -24 22v48
c-34 -39 -84 -76 -150 -76c-77 0 -138 42 -138 132c0 107 94 134 233 134h54v26c0 70 -35 147 -126 147c-64 0 -91 -28 -105 -28s-22 17 -22 27c0 22 67 46 129 46zM320 146v74h-49c-98 0 -189 -9 -189 -92c0 -62 42 -90 96 -90c70 0 142 64 142 108z" />
    <glyph glyph-name="acute" unicode="&#xb4;" horiz-adv-x="143" 
d="M132 654l-100 -55c-3 -2 -7 -3 -10 -3c-12 0 -22 11 -22 23c0 6 2 12 9 15l107 61c2 1 5 2 8 2c12 0 19 -12 19 -23c0 -7 -3 -15 -11 -20z" />
    <glyph glyph-name="adieresis" unicode="&#xe4;" horiz-adv-x="431" 
d="M143 662c19 0 32 -13 32 -32s-13 -33 -32 -33s-33 14 -33 33s14 32 33 32zM260 662c19 0 32 -13 32 -32s-13 -33 -32 -33c-20 0 -33 14 -33 33s13 32 33 32zM196 478c128 0 173 -93 173 -192v-264c0 -12 -10 -22 -24 -22c-13 0 -24 10 -24 22v48
c-34 -39 -84 -76 -150 -76c-77 0 -138 42 -138 132c0 107 94 134 233 134h54v26c0 70 -35 147 -126 147c-64 0 -91 -28 -105 -28s-22 17 -22 27c0 22 67 46 129 46zM320 146v74h-49c-98 0 -189 -9 -189 -92c0 -62 42 -90 96 -90c70 0 142 64 142 108z" />
    <glyph glyph-name="ae" unicode="&#xe6;" horiz-adv-x="723" 
d="M503 478c80 0 182 -53 182 -193c0 -56 -17 -65 -84 -65h-230v-42c0 -86 67 -139 157 -139c79 0 101 40 121 40c10 0 22 -11 22 -24c0 -30 -83 -61 -154 -61c-74 0 -143 36 -175 102c-42 -74 -112 -102 -170 -102c-75 0 -139 42 -139 131c0 108 92 135 231 135h54v27
c0 71 -34 147 -128 147c-60 0 -90 -28 -104 -28c-12 0 -21 17 -21 27c0 22 67 46 130 46c81 0 129 -41 152 -97c30 55 88 96 156 96zM371 261h211c48 0 55 8 55 34c0 71 -53 139 -133 139c-76 0 -133 -60 -133 -131v-42zM318 146v74h-49c-100 0 -187 -9 -187 -94
c0 -59 42 -88 95 -88c77 0 141 65 141 108z" />
    <glyph glyph-name="aeacute" unicode="&#x1fd;" horiz-adv-x="723" 
d="M423 654l-100 -55c-3 -2 -7 -3 -10 -3c-12 0 -22 11 -22 23c0 6 2 12 9 15l107 61c2 1 5 2 8 2c12 0 19 -12 19 -23c0 -7 -3 -15 -11 -20zM503 478c80 0 182 -53 182 -193c0 -56 -17 -65 -84 -65h-230v-42c0 -86 67 -139 157 -139c79 0 101 40 121 40c10 0 22 -11 22 -24
c0 -30 -83 -61 -154 -61c-74 0 -143 36 -175 102c-42 -74 -112 -102 -170 -102c-75 0 -139 42 -139 131c0 108 92 135 231 135h54v27c0 71 -34 147 -128 147c-60 0 -90 -28 -104 -28c-12 0 -21 17 -21 27c0 22 67 46 130 46c81 0 129 -41 152 -97c30 55 88 96 156 96z
M371 261h211c48 0 55 8 55 34c0 71 -53 139 -133 139c-76 0 -133 -60 -133 -131v-42zM318 146v74h-49c-100 0 -187 -9 -187 -94c0 -59 42 -88 95 -88c77 0 141 65 141 108z" />
    <glyph glyph-name="agrave" unicode="&#xe0;" horiz-adv-x="431" 
d="M196 478c128 0 173 -93 173 -192v-264c0 -12 -10 -22 -24 -22c-13 0 -24 10 -24 22v48c-34 -39 -84 -76 -150 -76c-77 0 -138 42 -138 132c0 107 94 134 233 134h54v26c0 70 -35 147 -126 147c-64 0 -91 -28 -105 -28s-22 17 -22 27c0 22 67 46 129 46zM320 146v74h-49
c-98 0 -189 -9 -189 -92c0 -62 42 -90 96 -90c70 0 142 64 142 108zM240 599l-100 55c-8 5 -11 13 -11 20c0 11 8 23 20 23c2 0 5 -1 7 -2l107 -61c7 -3 9 -9 9 -15c0 -12 -10 -23 -22 -23c-3 0 -6 1 -10 3z" />
    <glyph glyph-name="amacron" unicode="&#x101;" horiz-adv-x="431" 
d="M196 478c128 0 173 -93 173 -192v-264c0 -12 -10 -22 -24 -22c-13 0 -24 10 -24 22v48c-34 -39 -84 -76 -150 -76c-77 0 -138 42 -138 132c0 107 94 134 233 134h54v26c0 70 -35 147 -126 147c-64 0 -91 -28 -105 -28s-22 17 -22 27c0 22 67 46 129 46zM320 146v74h-49
c-98 0 -189 -9 -189 -92c0 -62 42 -90 96 -90c70 0 142 64 142 108zM80 662c0 12 8 22 21 22h217c11 0 22 -10 22 -22s-11 -20 -22 -20h-217c-13 0 -21 8 -21 20z" />
    <glyph glyph-name="ampersand" unicode="&#x26;" horiz-adv-x="602" 
d="M261 -10c-143 0 -223 98 -223 211c0 104 70 168 138 198c-40 49 -83 103 -83 182c0 107 79 167 173 167c107 0 155 -67 155 -91c0 -13 -10 -23 -23 -23c-23 0 -34 71 -128 71c-77 0 -123 -51 -123 -128c0 -72 43 -124 91 -176l213 -236c30 69 36 146 37 195
c0 17 6 24 23 24c15 0 21 -9 21 -29c0 -38 -6 -140 -48 -225l94 -102c4 -5 6 -9 6 -13c0 -12 -12 -21 -23 -21c-5 0 -10 2 -15 7l-86 92c-40 -59 -103 -103 -199 -103zM269 37c80 0 128 37 159 89l-223 240c-48 -27 -116 -68 -116 -160c0 -89 64 -169 180 -169z" />
    <glyph glyph-name="aogonek" unicode="&#x105;" horiz-adv-x="431" 
d="M347 -167c11 0 18 -5 18 -16c0 -10 -6 -15 -24 -15c-42 0 -91 17 -91 71c0 55 29 101 72 141c-1 2 -1 5 -1 8v48c-34 -39 -84 -76 -150 -76c-77 0 -138 42 -138 132c0 107 94 134 233 134h54v26c0 70 -35 147 -126 147c-64 0 -91 -28 -105 -28s-22 17 -22 27
c0 22 67 46 129 46c128 0 173 -93 173 -192v-264c0 -9 -5 -17 -13 -20c-41 -37 -72 -75 -72 -126c0 -32 24 -43 63 -43zM320 146v74h-49c-98 0 -189 -9 -189 -92c0 -62 42 -90 96 -90c70 0 142 64 142 108z" />
    <glyph glyph-name="approxequal" unicode="&#x2248;" horiz-adv-x="443" 
d="M158 374c-43 0 -56 -34 -71 -34c-10 0 -16 11 -16 22c0 31 55 54 89 54c50 0 77 -35 129 -35c45 0 50 30 67 30c10 0 17 -10 17 -19c0 -36 -54 -54 -84 -54c-51 0 -76 36 -131 36zM158 172c-43 0 -56 -34 -71 -34c-10 0 -16 11 -16 22c0 31 55 55 89 55
c50 0 77 -36 129 -36c45 0 50 30 67 30c10 0 17 -10 17 -19c0 -36 -54 -54 -84 -54c-51 0 -76 36 -131 36z" />
    <glyph glyph-name="aring" unicode="&#xe5;" horiz-adv-x="431" 
d="M196 478c128 0 173 -93 173 -192v-264c0 -12 -10 -22 -24 -22c-13 0 -24 10 -24 22v48c-34 -39 -84 -76 -150 -76c-77 0 -138 42 -138 132c0 107 94 134 233 134h54v26c0 70 -35 147 -126 147c-64 0 -91 -28 -105 -28s-22 17 -22 27c0 22 67 46 129 46zM320 146v74h-49
c-98 0 -189 -9 -189 -92c0 -62 42 -90 96 -90c70 0 142 64 142 108zM202 768c48 0 91 -43 91 -92c0 -50 -43 -94 -91 -94c-50 0 -91 44 -91 94c0 48 40 92 91 92zM264 676c0 30 -28 62 -62 62c-35 0 -63 -33 -63 -62c0 -33 29 -67 63 -67s62 33 62 67z" />
    <glyph glyph-name="arrowdown" unicode="&#x2193;" horiz-adv-x="771" 
d="M149 162c0 14 12 24 24 24c5 0 11 -2 14 -6l176 -176v531c0 13 9 21 22 21s23 -8 23 -21v-531l176 176c4 4 9 6 14 6c13 0 24 -12 24 -24c0 -5 -2 -10 -6 -15l-211 -212c-7 -7 -13 -10 -20 -10c-6 0 -12 3 -19 10l-211 212c-5 5 -6 10 -6 15z" />
    <glyph glyph-name="arrowleft" unicode="&#x2190;" horiz-adv-x="771" 
d="M307 477c12 0 24 -11 24 -24c0 -5 -2 -10 -6 -14l-176 -176h531c13 0 21 -10 21 -23s-8 -22 -21 -22h-531l176 -176c4 -3 6 -9 6 -14c0 -12 -10 -24 -24 -24c-5 0 -10 1 -15 6l-212 211c-7 7 -10 13 -10 19s3 13 10 20l212 211c5 4 10 6 15 6z" />
    <glyph glyph-name="arrowright" unicode="&#x2192;" horiz-adv-x="771" 
d="M464 477c5 0 10 -2 15 -6l212 -211c7 -7 10 -13 10 -20c0 -6 -3 -12 -10 -19l-212 -211c-5 -5 -10 -6 -15 -6c-14 0 -24 12 -24 24c0 5 2 11 6 14l176 176h-531c-13 0 -21 9 -21 22s8 23 21 23h531l-176 176c-4 4 -6 9 -6 14c0 13 12 24 24 24z" />
    <glyph glyph-name="arrowup" unicode="&#x2191;" horiz-adv-x="771" 
d="M149 319c0 5 1 10 6 15l211 212c7 7 13 10 19 10c7 0 13 -3 20 -10l211 -212c4 -5 6 -10 6 -15c0 -12 -11 -24 -24 -24c-5 0 -10 2 -14 6l-176 176v-531c0 -13 -10 -21 -23 -21s-22 8 -22 21v531l-176 -176c-3 -4 -9 -6 -14 -6c-12 0 -24 10 -24 24z" />
    <glyph glyph-name="asciicircum" unicode="^" horiz-adv-x="264" 
d="M132 655l-104 -56c-3 -1 -6 -3 -8 -3c-11 0 -20 10 -20 23c0 6 3 13 11 17l104 56c5 3 11 5 17 5s12 -2 17 -5l104 -55c7 -4 11 -12 11 -20c0 -11 -9 -20 -19 -20c-3 0 -6 2 -9 3z" />
    <glyph glyph-name="asciitilde" unicode="~" horiz-adv-x="401" 
d="M136 255c-43 0 -56 -33 -71 -33c-10 0 -16 10 -16 21c0 31 55 54 89 54c50 0 77 -36 129 -36c45 0 50 31 67 31c10 0 17 -10 17 -19c0 -36 -54 -54 -84 -54c-51 0 -76 36 -131 36z" />
    <glyph glyph-name="asterisk" unicode="*" horiz-adv-x="422" 
d="M242 540l84 -111c2 -3 3 -7 3 -11c0 -13 -12 -23 -25 -23c-4 0 -11 2 -15 8l-78 114l-78 -115c-4 -5 -9 -7 -14 -7c-10 0 -26 8 -26 22c0 5 2 9 5 13l82 109l-131 38c-9 3 -13 11 -13 20c0 12 9 25 22 25c1 0 4 0 6 -2l130 -45l-5 135c0 14 11 21 22 21s22 -7 22 -21
l-5 -136l130 46c3 1 6 2 7 2c12 0 21 -14 21 -25c0 -9 -4 -17 -14 -20z" />
    <glyph glyph-name="at" unicode="@" horiz-adv-x="710" 
d="M234 372c0 25 67 44 123 44c88 0 137 -46 137 -126v-165c3 -29 33 -51 61 -51c57 0 70 89 70 157c0 175 -85 281 -263 281c-199 0 -264 -141 -264 -293c0 -141 59 -274 233 -274c90 0 126 31 144 31c10 0 18 -10 18 -17c0 -24 -87 -55 -167 -55c-139 0 -269 95 -269 314
c0 185 88 337 308 337c193 0 301 -112 301 -320c0 -101 -26 -198 -114 -198c-49 0 -87 30 -96 62c-34 -34 -63 -52 -121 -52c-70 0 -126 27 -126 107c0 91 74 111 195 111h46v20c0 60 -32 88 -103 88c-65 0 -77 -23 -94 -23c-12 0 -19 14 -19 22zM451 166v62h-44
c-87 0 -153 -7 -153 -75c0 -48 36 -68 83 -68c73 0 114 45 114 81z" />
    <glyph glyph-name="atilde" unicode="&#xe3;" horiz-adv-x="431" 
d="M196 478c128 0 173 -93 173 -192v-264c0 -12 -10 -22 -24 -22c-13 0 -24 10 -24 22v48c-34 -39 -84 -76 -150 -76c-77 0 -138 42 -138 132c0 107 94 134 233 134h54v26c0 70 -35 147 -126 147c-64 0 -91 -28 -105 -28s-22 17 -22 27c0 22 67 46 129 46zM320 146v74h-49
c-98 0 -189 -9 -189 -92c0 -62 42 -90 96 -90c70 0 142 64 142 108zM137 650c-43 0 -56 -33 -71 -33c-10 0 -16 10 -16 21c0 31 55 54 89 54c50 0 77 -36 129 -36c45 0 50 31 67 31c10 0 17 -10 17 -19c0 -36 -54 -54 -84 -54c-51 0 -76 36 -131 36z" />
    <glyph glyph-name="b" unicode="b" horiz-adv-x="475" 
d="M90 766c14 0 25 -9 25 -21v-343c22 39 67 76 133 76c98 0 180 -82 180 -183v-116c0 -97 -83 -185 -178 -185c-61 0 -114 35 -136 76v-48c0 -11 -11 -22 -24 -22c-14 0 -24 11 -24 22v723c0 12 10 21 24 21zM379 179v116c0 69 -61 137 -134 137c-64 0 -130 -51 -130 -137
v-150c0 -32 56 -105 131 -105c72 0 133 68 133 139z" />
    <glyph glyph-name="b.ss02" horiz-adv-x="472" 
d="M425 295v-116c0 -82 -55 -185 -187 -185c-86 0 -175 46 -175 159v593c0 12 10 20 24 20s25 -9 25 -21v-343c22 39 67 76 133 76c98 0 180 -82 180 -183zM376 179v116c0 69 -60 137 -134 137c-64 0 -130 -51 -130 -137v-135c0 -81 58 -120 129 -120c106 0 135 87 135 139z
" />
    <glyph glyph-name="backslash" unicode="\" horiz-adv-x="344" 
d="M277 14l-249 709c-1 3 -2 6 -2 8c0 14 11 23 23 23c8 0 15 -4 18 -11l250 -717c1 -2 1 -4 1 -7c0 -11 -10 -19 -21 -19c-9 0 -17 4 -20 14z" />
    <glyph glyph-name="bar" unicode="|" horiz-adv-x="192" 
d="M96 768c13 0 25 -9 25 -21v-747c0 -11 -12 -21 -25 -21c-15 0 -25 10 -25 21v747c0 12 10 21 25 21z" />
    <glyph glyph-name="braceleft" unicode="{" horiz-adv-x="297" 
d="M32 384c0 37 60 11 60 43c0 19 -20 148 -20 178c0 87 82 163 180 163c16 0 25 -11 25 -23s-9 -23 -20 -23c-76 0 -135 -58 -135 -122c0 -30 20 -155 20 -175c0 -23 -22 -38 -34 -41c12 -4 34 -18 34 -40c0 -23 -20 -177 -20 -213c0 -82 91 -105 135 -105
c15 0 20 -13 20 -22c0 -15 -11 -24 -25 -24c-99 0 -180 61 -180 151c0 33 20 191 20 211c0 32 -60 5 -60 42z" />
    <glyph glyph-name="braceright" unicode="}" horiz-adv-x="297" 
d="M265 384c0 -37 -60 -10 -60 -42c0 -20 21 -178 21 -211c0 -90 -81 -151 -180 -151c-14 0 -26 9 -26 24c0 9 5 22 21 22c44 0 135 23 135 105c0 36 -21 190 -21 213c0 22 21 36 34 40c-13 3 -34 18 -34 41c0 20 21 145 21 175c0 64 -59 122 -135 122c-12 0 -21 11 -21 23
s10 23 26 23c98 0 180 -76 180 -163c0 -30 -21 -159 -21 -178c0 -32 60 -6 60 -43z" />
    <glyph glyph-name="bracketleft" unicode="[" horiz-adv-x="293" 
d="M121 721v-695h132c11 0 20 -11 20 -24c0 -12 -8 -23 -20 -23h-158c-12 0 -24 8 -24 21v747c0 12 11 21 24 21h158c12 0 20 -11 20 -23c0 -13 -9 -24 -20 -24h-132z" />
    <glyph glyph-name="bracketright" unicode="]" horiz-adv-x="294" 
d="M173 26v695h-132c-12 0 -21 11 -21 24c0 12 9 23 21 23h158c13 0 24 -9 24 -21v-747c0 -13 -12 -21 -24 -21h-158c-12 0 -21 11 -21 23c0 13 9 24 21 24h132z" />
    <glyph glyph-name="breve" unicode="&#x2d8;" horiz-adv-x="225" 
d="M187 712h38c0 -61 -54 -113 -112 -113c-60 0 -113 52 -113 113h38c0 -46 34 -82 75 -82c39 0 74 36 74 82z" />
    <glyph glyph-name="brokenbar" unicode="&#xa6;" horiz-adv-x="193" 
d="M96 768c13 0 25 -9 25 -21v-277c0 -10 -12 -20 -25 -20c-14 0 -24 10 -24 20v277c0 12 10 21 24 21zM96 297c13 0 25 -9 25 -20v-277c0 -11 -12 -21 -25 -21c-14 0 -24 10 -24 21v277c0 11 10 20 24 20z" />
    <glyph glyph-name="bullet" unicode="&#x2022;" horiz-adv-x="308" 
d="M155 398c54 0 100 -46 100 -98c0 -53 -46 -99 -100 -99c-55 0 -102 46 -102 99c0 52 47 98 102 98z" />
    <glyph glyph-name="c" unicode="c" horiz-adv-x="406" 
d="M237 -6c-128 0 -188 79 -188 185v114c0 104 59 185 188 185c82 0 135 -38 135 -61c0 -12 -10 -24 -23 -24c-17 0 -35 39 -111 39c-91 0 -140 -53 -140 -139v-114c0 -86 48 -139 141 -139c81 0 98 40 117 40c12 0 22 -13 22 -24c0 -24 -54 -62 -141 -62z" />
    <glyph glyph-name="cacute" unicode="&#x107;" horiz-adv-x="406" 
d="M276 654l-100 -55c-3 -2 -7 -3 -10 -3c-12 0 -22 11 -22 23c0 6 2 12 9 15l107 61c2 1 5 2 8 2c12 0 19 -12 19 -23c0 -7 -3 -15 -11 -20zM237 -6c-128 0 -188 79 -188 185v114c0 104 59 185 188 185c82 0 135 -38 135 -61c0 -12 -10 -24 -23 -24c-17 0 -35 39 -111 39
c-91 0 -140 -53 -140 -139v-114c0 -86 48 -139 141 -139c81 0 98 40 117 40c12 0 22 -13 22 -24c0 -24 -54 -62 -141 -62z" />
    <glyph glyph-name="caron" unicode="&#x2c7;" horiz-adv-x="281" 
d="M42 724l99 -98l98 98c5 5 11 7 16 7c10 0 17 -10 17 -19c0 -6 -4 -12 -10 -19l-101 -96c-7 -6 -13 -10 -20 -10s-15 4 -21 10l-100 96c-7 7 -10 13 -10 19c0 9 7 19 17 19c4 0 10 -2 15 -7z" />
    <glyph glyph-name="caron.alt" horiz-adv-x="81" 
d="M41 741c21 0 40 -18 40 -41c0 -15 -16 -60 -37 -104c-3 -7 -10 -11 -16 -11c-9 0 -20 7 -20 18c0 2 0 5 2 7l19 51c-17 6 -29 22 -29 39c0 23 17 41 41 41z" />
    <glyph glyph-name="ccaron" unicode="&#x10d;" horiz-adv-x="406" 
d="M115 724l99 -98l98 98c5 5 11 7 16 7c10 0 17 -10 17 -19c0 -6 -4 -12 -10 -19l-101 -96c-7 -6 -13 -10 -20 -10s-15 4 -21 10l-100 96c-7 7 -10 13 -10 19c0 9 7 19 17 19c4 0 10 -2 15 -7zM237 -6c-128 0 -188 79 -188 185v114c0 104 59 185 188 185
c82 0 135 -38 135 -61c0 -12 -10 -24 -23 -24c-17 0 -35 39 -111 39c-91 0 -140 -53 -140 -139v-114c0 -86 48 -139 141 -139c81 0 98 40 117 40c12 0 22 -13 22 -24c0 -24 -54 -62 -141 -62z" />
    <glyph glyph-name="ccedilla" unicode="&#xe7;" horiz-adv-x="406" 
d="M378 56c0 -23 -48 -57 -126 -61l-14 -58c68 -2 95 -36 95 -71c0 -37 -29 -74 -85 -74c-25 0 -76 7 -76 24c0 7 6 21 14 21c7 0 23 -13 56 -13c40 0 54 19 54 40c0 29 -26 41 -67 44l-33 2l21 85c-114 7 -168 83 -168 184v114c0 104 59 185 188 185c82 0 135 -38 135 -61
c0 -12 -10 -24 -23 -24c-17 0 -35 39 -111 39c-91 0 -140 -53 -140 -139v-114c0 -86 48 -139 141 -139c81 0 98 40 117 40c12 0 22 -13 22 -24z" />
    <glyph glyph-name="ccircumflex" unicode="&#x109;" horiz-adv-x="406" 
d="M215 655l-104 -56c-3 -1 -6 -3 -8 -3c-11 0 -20 10 -20 23c0 6 3 13 11 17l104 56c5 3 11 5 17 5s12 -2 17 -5l104 -55c7 -4 11 -12 11 -20c0 -11 -9 -20 -19 -20c-3 0 -6 2 -9 3zM237 -6c-128 0 -188 79 -188 185v114c0 104 59 185 188 185c82 0 135 -38 135 -61
c0 -12 -10 -24 -23 -24c-17 0 -35 39 -111 39c-91 0 -140 -53 -140 -139v-114c0 -86 48 -139 141 -139c81 0 98 40 117 40c12 0 22 -13 22 -24c0 -24 -54 -62 -141 -62z" />
    <glyph glyph-name="cdotaccent" unicode="&#x10b;" horiz-adv-x="406" 
d="M237 -6c-128 0 -188 79 -188 185v114c0 104 59 185 188 185c82 0 135 -38 135 -61c0 -12 -10 -24 -23 -24c-17 0 -35 39 -111 39c-91 0 -140 -53 -140 -139v-114c0 -86 48 -139 141 -139c81 0 98 40 117 40c12 0 22 -13 22 -24c0 -24 -54 -62 -141 -62zM214 662
c19 0 33 -13 33 -32s-14 -33 -33 -33s-33 14 -33 33s14 32 33 32z" />
    <glyph glyph-name="cedilla" unicode="&#xb8;" horiz-adv-x="161" 
d="M84 9l-18 -72c68 -2 95 -36 95 -71c0 -37 -29 -74 -85 -74c-25 0 -76 7 -76 24c0 7 6 21 14 21c7 0 23 -13 56 -13c40 0 54 19 54 40c0 29 -26 41 -67 44l-33 2l25 99h35z" />
    <glyph glyph-name="cent" unicode="&#xa2;" horiz-adv-x="408" 
d="M207 694c10 0 21 -9 21 -20v-113c75 -1 138 -30 138 -60c0 -13 -11 -24 -24 -24c-17 0 -34 38 -114 39v-298c81 1 96 39 114 39c13 0 25 -11 25 -24c0 -32 -70 -60 -139 -61v-112c0 -11 -11 -20 -21 -20c-12 0 -21 9 -21 20v114c-100 15 -148 88 -148 183v19
c0 93 45 168 148 183v115c0 11 9 20 21 20zM84 376v-19c0 -73 33 -123 102 -136v291c-69 -14 -102 -64 -102 -136z" />
    <glyph glyph-name="circumflex" unicode="&#x2c6;" horiz-adv-x="264" 
d="M132 655l-104 -56c-3 -1 -6 -3 -8 -3c-11 0 -20 10 -20 23c0 6 3 13 11 17l104 56c5 3 11 5 17 5s12 -2 17 -5l104 -55c7 -4 11 -12 11 -20c0 -11 -9 -20 -19 -20c-3 0 -6 2 -9 3z" />
    <glyph glyph-name="colon" unicode=":" horiz-adv-x="199" 
d="M100 76c21 0 40 -19 40 -41s-19 -41 -40 -41c-24 0 -41 19 -41 41s17 41 41 41zM100 422c21 0 40 -19 40 -41s-19 -41 -40 -41c-24 0 -41 19 -41 41s17 41 41 41z" />
    <glyph glyph-name="comma" unicode="," horiz-adv-x="166" 
d="M82 76c20 0 41 -15 41 -42c0 -7 -1 -19 -35 -103c-3 -7 -10 -11 -17 -11c-10 0 -20 6 -20 16c0 3 0 5 1 9l19 51c-17 5 -29 21 -29 39c0 22 17 41 40 41z" />
    <glyph glyph-name="commaaccent" unicode="&#xf6c3;" horiz-adv-x="211" 
d="M158 -91l-100 -55c-3 -2 -6 -3 -9 -3c-12 0 -23 11 -23 23c0 6 3 12 10 15l106 61c3 1 6 2 8 2c12 0 20 -12 20 -23c0 -7 -4 -15 -12 -20z" />
    <glyph glyph-name="copyright" unicode="&#xa9;" horiz-adv-x="724" 
d="M55 358c0 223 171 327 310 327c141 0 304 -106 304 -323c0 -223 -171 -327 -310 -327c-141 0 -304 106 -304 323zM630 362c0 165 -106 284 -265 284c-157 0 -271 -117 -271 -288c0 -165 106 -284 265 -284c157 0 271 117 271 288zM423 464c-1 22 -8 63 -59 63
c-39 0 -61 -25 -61 -79v-163c0 -54 22 -79 62 -79c51 0 56 40 58 66c1 10 9 15 21 15c15 0 21 -5 21 -24c0 -53 -39 -95 -103 -95c-55 0 -100 32 -100 117v163c0 85 46 118 101 118c63 0 102 -42 102 -94c0 -19 -6 -24 -21 -24c-13 0 -20 6 -21 16z" />
    <glyph glyph-name="currency" unicode="&#xa4;" horiz-adv-x="483" 
d="M243 652c41 0 79 -15 110 -40l27 27c4 4 9 5 14 5c9 0 18 -9 18 -18c0 -5 -2 -10 -5 -13l-28 -28c26 -30 42 -70 42 -113c0 -42 -16 -82 -43 -113l29 -29c3 -4 5 -8 5 -12c0 -9 -9 -18 -18 -18c-4 0 -9 1 -13 5l-28 27c-31 -26 -69 -42 -110 -42c-44 0 -83 18 -115 46
l-32 -31c-4 -4 -8 -5 -12 -5c-10 0 -19 9 -19 18c0 4 1 8 5 12l33 33c-23 31 -37 69 -37 109s14 78 36 108l-26 27c-3 3 -5 8 -5 13c0 10 10 18 20 18c4 0 9 -2 12 -5l25 -25c31 27 71 44 115 44zM378 472c0 69 -60 137 -135 137s-134 -67 -134 -137c0 -71 60 -139 134 -139
s135 68 135 139z" />
    <glyph glyph-name="d" unicode="d" horiz-adv-x="476" 
d="M386 766c14 0 24 -9 24 -21v-723c0 -11 -10 -22 -24 -22c-13 0 -24 11 -24 22v48c-22 -41 -75 -76 -136 -76c-95 0 -178 88 -178 185v116c0 101 82 183 180 183c66 0 111 -37 133 -76v343c0 12 11 21 25 21zM97 295v-116c0 -71 61 -139 133 -139c75 0 131 73 131 105v150
c0 86 -66 137 -130 137c-74 0 -134 -68 -134 -137z" />
    <glyph glyph-name="dagger" unicode="&#x2020;" horiz-adv-x="408" 
d="M23 454c0 13 8 23 20 23l135 -6v239c0 11 11 21 25 21c13 0 25 -10 25 -21v-239l135 6c11 0 22 -10 22 -23s-11 -22 -22 -22l-135 6v-437c0 -12 -12 -22 -25 -22c-14 0 -25 10 -25 22v437l-135 -6c-12 0 -20 9 -20 22z" />
    <glyph glyph-name="daggerdbl" unicode="&#x2021;" horiz-adv-x="437" 
d="M37 241c0 13 9 22 21 22l135 -6v181l-135 -6c-12 0 -21 9 -21 22s9 23 21 23l135 -6v239c0 11 11 21 25 21c13 0 25 -10 25 -21v-239l135 6c11 0 22 -10 22 -23s-11 -22 -22 -22l-135 6v-181l135 6c11 0 22 -9 22 -22s-11 -23 -22 -23l-135 6v-223c0 -12 -12 -22 -25 -22
c-14 0 -25 10 -25 22v223l-135 -6c-12 0 -21 10 -21 23z" />
    <glyph glyph-name="dcaron" unicode="&#x10f;" horiz-adv-x="476" 
d="M512 741c21 0 40 -18 40 -41c0 -15 -16 -60 -37 -104c-3 -7 -10 -11 -16 -11c-9 0 -20 7 -20 18c0 2 0 5 2 7l19 51c-17 6 -29 22 -29 39c0 23 17 41 41 41zM386 766c14 0 24 -9 24 -21v-723c0 -11 -10 -22 -24 -22c-13 0 -24 11 -24 22v48c-22 -41 -75 -76 -136 -76
c-95 0 -178 88 -178 185v116c0 101 82 183 180 183c66 0 111 -37 133 -76v343c0 12 11 21 25 21zM97 295v-116c0 -71 61 -139 133 -139c75 0 131 73 131 105v150c0 86 -66 137 -130 137c-74 0 -134 -68 -134 -137z" />
    <glyph glyph-name="dcroat" unicode="&#x111;" horiz-adv-x="476" 
d="M386 766c14 0 24 -9 24 -21v-123h53c11 0 20 -10 20 -22s-9 -21 -20 -21h-53v-557c0 -11 -10 -22 -24 -22c-13 0 -24 11 -24 22v48c-22 -41 -75 -76 -136 -76c-95 0 -178 88 -178 185v116c0 101 82 183 180 183c66 0 111 -37 133 -76v177h-129c-12 0 -20 9 -20 21
s8 22 20 22h129v123c0 12 11 21 25 21zM97 295v-116c0 -71 61 -139 133 -139c75 0 131 73 131 105v150c0 86 -66 137 -130 137c-74 0 -134 -68 -134 -137z" />
    <glyph glyph-name="degree" unicode="&#xb0;" horiz-adv-x="425" 
d="M212 768c95 0 178 -81 178 -180c0 -95 -83 -182 -178 -182s-177 86 -177 182s80 180 177 180zM347 588c0 69 -60 137 -135 137s-134 -67 -134 -137c0 -71 60 -139 134 -139s135 68 135 139z" />
    <glyph glyph-name="dieresis" unicode="&#xa8;" horiz-adv-x="182" 
d="M33 662c19 0 32 -13 32 -32s-13 -33 -32 -33s-33 14 -33 33s14 32 33 32zM150 662c19 0 32 -13 32 -32s-13 -33 -32 -33c-20 0 -33 14 -33 33s13 32 33 32z" />
    <glyph glyph-name="divide" unicode="&#xf7;" horiz-adv-x="458" 
d="M48 240c0 13 9 23 21 23h319c11 0 22 -10 22 -23s-11 -22 -22 -22h-319c-12 0 -21 9 -21 22zM226 124c24 0 45 -21 45 -46c0 -24 -21 -45 -45 -45c-26 0 -47 21 -47 45c0 25 21 46 47 46zM226 448c24 0 45 -21 45 -46c0 -24 -21 -45 -45 -45c-26 0 -47 21 -47 45
c0 25 21 46 47 46z" />
    <glyph glyph-name="dollar" unicode="$" horiz-adv-x="489" 
d="M237 -34v38c-127 0 -196 73 -196 104c0 13 12 28 23 28c21 0 40 -83 173 -84v315c-87 29 -178 57 -178 185c0 126 95 162 178 167v31c0 9 9 18 21 18c10 0 20 -9 20 -18v-30c74 -2 147 -29 147 -56c0 -10 -10 -29 -23 -29c-15 0 -47 33 -124 37v-266
c82 -29 165 -70 165 -208c0 -120 -67 -180 -165 -192v-40c0 -9 -10 -18 -20 -18c-12 0 -21 9 -21 18zM394 194c0 96 -54 132 -117 158v-297c76 11 117 58 117 139zM107 557c0 -87 62 -113 132 -137v252c-68 -5 -132 -32 -132 -115z" />
    <glyph glyph-name="dotaccent" unicode="&#x2d9;" horiz-adv-x="205" 
d="M108 662c19 0 33 -13 33 -32s-14 -33 -33 -33s-33 14 -33 33s14 32 33 32z" />
    <glyph glyph-name="dotlessi" unicode="&#x131;" horiz-adv-x="181" 
d="M90 472c14 0 25 -8 25 -20v-430c0 -11 -11 -22 -25 -22s-24 11 -24 22v430c0 12 10 20 24 20z" />
    <glyph glyph-name="dotlessj" unicode="&#x237;" horiz-adv-x="181" 
d="M90 472c14 0 25 -8 25 -20v-498c0 -111 -33 -189 -127 -189c-16 0 -25 12 -25 24c0 13 10 22 23 22c70 0 80 61 80 143v498c0 12 10 20 24 20z" />
    <glyph glyph-name="e" unicode="e" horiz-adv-x="451" 
d="M232 478c97 0 182 -76 182 -181c0 -75 -42 -77 -85 -77h-232v-42c0 -86 68 -139 161 -139c82 0 98 40 119 40c12 0 23 -14 23 -24c0 -21 -55 -61 -144 -61c-122 0 -208 74 -208 185v119c0 98 83 180 184 180zM97 261h213c45 0 56 6 56 36c0 68 -54 137 -134 137
c-76 0 -135 -61 -135 -132v-41z" />
    <glyph glyph-name="eacute" unicode="&#xe9;" horiz-adv-x="451" 
d="M292 654l-100 -55c-3 -2 -7 -3 -10 -3c-12 0 -22 11 -22 23c0 6 2 12 9 15l107 61c2 1 5 2 8 2c12 0 19 -12 19 -23c0 -7 -3 -15 -11 -20zM232 478c97 0 182 -76 182 -181c0 -75 -42 -77 -85 -77h-232v-42c0 -86 68 -139 161 -139c82 0 98 40 119 40c12 0 23 -14 23 -24
c0 -21 -55 -61 -144 -61c-122 0 -208 74 -208 185v119c0 98 83 180 184 180zM97 261h213c45 0 56 6 56 36c0 68 -54 137 -134 137c-76 0 -135 -61 -135 -132v-41z" />
    <glyph glyph-name="ebreve" unicode="&#x115;" horiz-adv-x="451" 
d="M232 478c97 0 182 -76 182 -181c0 -75 -42 -77 -85 -77h-232v-42c0 -86 68 -139 161 -139c82 0 98 40 119 40c12 0 23 -14 23 -24c0 -21 -55 -61 -144 -61c-122 0 -208 74 -208 185v119c0 98 83 180 184 180zM97 261h213c45 0 56 6 56 36c0 68 -54 137 -134 137
c-76 0 -135 -61 -135 -132v-41zM305 712h38c0 -61 -54 -113 -112 -113c-60 0 -113 52 -113 113h38c0 -46 34 -82 75 -82c39 0 74 36 74 82z" />
    <glyph glyph-name="ecaron" unicode="&#x11b;" horiz-adv-x="451" 
d="M132 724l99 -98l98 98c5 5 11 7 16 7c10 0 17 -10 17 -19c0 -6 -4 -12 -10 -19l-101 -96c-7 -6 -13 -10 -20 -10s-15 4 -21 10l-100 96c-7 7 -10 13 -10 19c0 9 7 19 17 19c4 0 10 -2 15 -7zM232 478c97 0 182 -76 182 -181c0 -75 -42 -77 -85 -77h-232v-42
c0 -86 68 -139 161 -139c82 0 98 40 119 40c12 0 23 -14 23 -24c0 -21 -55 -61 -144 -61c-122 0 -208 74 -208 185v119c0 98 83 180 184 180zM97 261h213c45 0 56 6 56 36c0 68 -54 137 -134 137c-76 0 -135 -61 -135 -132v-41z" />
    <glyph glyph-name="ecircumflex" unicode="&#xea;" horiz-adv-x="451" 
d="M231 655l-104 -56c-3 -1 -6 -3 -8 -3c-11 0 -20 10 -20 23c0 6 3 13 11 17l104 56c5 3 11 5 17 5s12 -2 17 -5l104 -55c7 -4 11 -12 11 -20c0 -11 -9 -20 -19 -20c-3 0 -6 2 -9 3zM232 478c97 0 182 -76 182 -181c0 -75 -42 -77 -85 -77h-232v-42c0 -86 68 -139 161 -139
c82 0 98 40 119 40c12 0 23 -14 23 -24c0 -21 -55 -61 -144 -61c-122 0 -208 74 -208 185v119c0 98 83 180 184 180zM97 261h213c45 0 56 6 56 36c0 68 -54 137 -134 137c-76 0 -135 -61 -135 -132v-41z" />
    <glyph glyph-name="edieresis" unicode="&#xeb;" horiz-adv-x="451" 
d="M173 662c19 0 32 -13 32 -32s-13 -33 -32 -33s-33 14 -33 33s14 32 33 32zM290 662c19 0 32 -13 32 -32s-13 -33 -32 -33c-20 0 -33 14 -33 33s13 32 33 32zM232 478c97 0 182 -76 182 -181c0 -75 -42 -77 -85 -77h-232v-42c0 -86 68 -139 161 -139c82 0 98 40 119 40
c12 0 23 -14 23 -24c0 -21 -55 -61 -144 -61c-122 0 -208 74 -208 185v119c0 98 83 180 184 180zM97 261h213c45 0 56 6 56 36c0 68 -54 137 -134 137c-76 0 -135 -61 -135 -132v-41z" />
    <glyph glyph-name="edotaccent" unicode="&#x117;" horiz-adv-x="451" 
d="M232 478c97 0 182 -76 182 -181c0 -75 -42 -77 -85 -77h-232v-42c0 -86 68 -139 161 -139c82 0 98 40 119 40c12 0 23 -14 23 -24c0 -21 -55 -61 -144 -61c-122 0 -208 74 -208 185v119c0 98 83 180 184 180zM97 261h213c45 0 56 6 56 36c0 68 -54 137 -134 137
c-76 0 -135 -61 -135 -132v-41zM231 662c19 0 33 -13 33 -32s-14 -33 -33 -33s-33 14 -33 33s14 32 33 32z" />
    <glyph glyph-name="egrave" unicode="&#xe8;" horiz-adv-x="451" 
d="M232 478c97 0 182 -76 182 -181c0 -75 -42 -77 -85 -77h-232v-42c0 -86 68 -139 161 -139c82 0 98 40 119 40c12 0 23 -14 23 -24c0 -21 -55 -61 -144 -61c-122 0 -208 74 -208 185v119c0 98 83 180 184 180zM97 261h213c45 0 56 6 56 36c0 68 -54 137 -134 137
c-76 0 -135 -61 -135 -132v-41zM269 599l-100 55c-8 5 -11 13 -11 20c0 11 8 23 20 23c2 0 5 -1 7 -2l107 -61c7 -3 9 -9 9 -15c0 -12 -10 -23 -22 -23c-3 0 -6 1 -10 3z" />
    <glyph glyph-name="eight" unicode="8" horiz-adv-x="494" 
d="M247 731c104 0 183 -42 183 -174c0 -87 -35 -136 -87 -159c63 -26 105 -83 105 -186v-12c0 -149 -87 -206 -201 -206c-113 0 -201 57 -201 206v12c0 103 42 160 106 186c-52 23 -87 72 -87 159c0 132 79 174 182 174zM398 202v13c0 110 -57 159 -151 159
s-151 -49 -151 -159v-13c0 -110 58 -162 152 -162s150 53 150 162zM247 685c-83 0 -132 -37 -132 -131s49 -133 132 -133s133 39 133 133s-50 131 -133 131z" />
    <glyph glyph-name="eightinferior" unicode="&#x2088;" horiz-adv-x="316" 
d="M158 371c62 0 108 -23 108 -89c0 -44 -20 -69 -51 -80c38 -13 62 -42 62 -94v-7c0 -75 -52 -104 -119 -104c-66 0 -119 29 -119 104v7c0 52 25 81 62 94c-30 11 -51 36 -51 80c0 66 47 89 108 89zM236 105v8c0 49 -29 71 -78 71c-48 0 -77 -22 -77 -71v-8
c0 -49 29 -73 78 -73s77 24 77 73zM158 335c-42 0 -67 -16 -67 -58c0 -40 25 -57 67 -57c43 0 67 17 67 57c0 42 -24 58 -67 58z" />
    <glyph glyph-name="eightsuperior" unicode="&#x2078;" horiz-adv-x="316" 
d="M158 731c62 0 108 -23 108 -89c0 -44 -20 -69 -51 -80c38 -13 62 -42 62 -95v-6c0 -75 -52 -104 -119 -104c-66 0 -119 29 -119 104v6c0 53 25 82 62 95c-30 11 -51 36 -51 80c0 66 47 89 108 89zM236 465v8c0 49 -29 71 -78 71c-48 0 -77 -22 -77 -71v-8
c0 -49 29 -73 78 -73s77 24 77 73zM158 695c-42 0 -67 -16 -67 -58c0 -40 25 -57 67 -57c43 0 67 17 67 57c0 42 -24 58 -67 58z" />
    <glyph glyph-name="ellipsis" unicode="&#x2026;" horiz-adv-x="523" 
d="M83 76c21 0 40 -19 40 -41s-19 -41 -40 -41c-24 0 -41 19 -41 41s17 41 41 41zM262 76c21 0 40 -19 40 -41s-19 -41 -40 -41c-24 0 -41 19 -41 41s17 41 41 41zM441 76c21 0 40 -19 40 -41s-19 -41 -40 -41c-24 0 -41 19 -41 41s17 41 41 41z" />
    <glyph glyph-name="emacron" unicode="&#x113;" horiz-adv-x="451" 
d="M232 478c97 0 182 -76 182 -181c0 -75 -42 -77 -85 -77h-232v-42c0 -86 68 -139 161 -139c82 0 98 40 119 40c12 0 23 -14 23 -24c0 -21 -55 -61 -144 -61c-122 0 -208 74 -208 185v119c0 98 83 180 184 180zM97 261h213c45 0 56 6 56 36c0 68 -54 137 -134 137
c-76 0 -135 -61 -135 -132v-41zM102 662c0 12 8 22 21 22h217c11 0 22 -10 22 -22s-11 -20 -22 -20h-217c-13 0 -21 8 -21 20z" />
    <glyph glyph-name="emdash" unicode="&#x2014;" horiz-adv-x="740" 
d="M49 240c0 13 9 23 21 23h600c11 0 22 -10 22 -23s-11 -22 -22 -22h-600c-12 0 -21 9 -21 22z" />
    <glyph glyph-name="endash" unicode="&#x2013;" horiz-adv-x="460" 
d="M49 240c0 13 9 23 21 23h320c11 0 21 -10 21 -23s-10 -22 -21 -22h-320c-12 0 -21 9 -21 22z" />
    <glyph glyph-name="eng" unicode="&#x14b;" horiz-adv-x="489" 
d="M248 478c97 0 179 -82 179 -183v-341c0 -111 -34 -189 -127 -189c-16 0 -25 12 -25 24c0 13 10 22 23 22c70 0 80 61 80 143v341c0 69 -61 137 -134 137c-64 0 -129 -51 -129 -137v-273c0 -11 -11 -22 -25 -22s-24 11 -24 22v430c0 12 10 20 24 20c13 0 24 -8 24 -20v-50
c21 39 67 76 134 76z" />
    <glyph glyph-name="eogonek" unicode="&#x119;" horiz-adv-x="451" 
d="M232 478c97 0 182 -76 182 -181c0 -75 -42 -77 -85 -77h-232v-42c0 -86 68 -139 161 -139c82 0 98 40 119 40c12 0 23 -14 23 -24s-13 -25 -35 -37c-38 -35 -66 -72 -66 -120c0 -32 24 -43 63 -43c11 0 18 -5 18 -16c0 -10 -6 -15 -24 -15c-42 0 -91 17 -91 71
c0 38 14 73 37 103c-14 -2 -29 -4 -46 -4c-122 0 -208 74 -208 185v119c0 98 83 180 184 180zM97 261h213c45 0 56 6 56 36c0 68 -54 137 -134 137c-76 0 -135 -61 -135 -132v-41z" />
    <glyph glyph-name="equal" unicode="=" horiz-adv-x="433" 
d="M70 171c0 13 9 24 21 24h251c11 0 21 -11 21 -24s-10 -22 -21 -22h-251c-12 0 -21 9 -21 22zM70 374c0 13 9 24 21 24h251c11 0 21 -11 21 -24s-10 -22 -21 -22h-251c-12 0 -21 9 -21 22z" />
    <glyph glyph-name="estimated" unicode="&#x212e;" horiz-adv-x="538" 
d="M278 478c112 0 211 -76 211 -181c0 -73 -42 -76 -84 -76h-253v-42c0 -88 61 -143 151 -143c109 0 128 43 152 43c10 0 20 -14 20 -24c0 -21 -65 -61 -173 -61c-145 0 -247 85 -247 214v61c0 112 103 209 223 209zM152 260h195c45 0 56 6 56 36c0 72 -49 141 -125 141
c-72 0 -126 -61 -126 -136v-41z" />
    <glyph glyph-name="eth" unicode="&#xf0;" horiz-adv-x="475" 
d="M401 692l-71 -41c49 -69 85 -167 85 -289v-183c0 -97 -86 -185 -184 -185c-99 0 -183 87 -183 185v116c0 98 79 183 177 183c57 0 123 -31 141 -84c-9 102 -39 179 -78 232l-91 -52c-3 -3 -6 -4 -10 -4c-11 0 -21 13 -21 24c0 6 3 13 10 16l85 49c-38 40 -83 59 -122 59
c-9 2 -14 11 -14 21c0 12 7 27 30 27c46 0 102 -27 150 -81l76 44c3 1 5 2 8 2c11 0 22 -11 22 -22c0 -7 -3 -13 -10 -17zM97 295v-116c0 -71 59 -139 134 -139c74 0 135 68 135 139v120c0 69 -62 133 -136 133c-75 0 -133 -68 -133 -137z" />
    <glyph glyph-name="exclam" unicode="!" horiz-adv-x="198" 
d="M131 712c0 -173 -12 -365 -12 -538c0 -12 -12 -19 -21 -19c-10 0 -20 7 -20 19c0 173 -11 365 -11 538c0 22 13 34 31 34s33 -12 33 -34zM99 76c22 0 40 -19 40 -41s-18 -41 -40 -41c-23 0 -40 19 -40 41s17 41 40 41z" />
    <glyph glyph-name="exclamdown" unicode="&#xa1;" horiz-adv-x="198" 
d="M67 29c0 172 11 364 11 537c0 12 12 19 21 19s21 -7 21 -19c0 -173 11 -365 11 -537c0 -23 -14 -35 -32 -35s-32 12 -32 35zM99 664c-23 0 -40 19 -40 41s17 41 40 41c22 0 40 -19 40 -41s-18 -41 -40 -41z" />
    <glyph glyph-name="f" unicode="f" horiz-adv-x="296" 
d="M115 587v-115h148c12 0 21 -10 21 -21c0 -12 -9 -22 -21 -22h-148v-408c0 -13 -12 -21 -26 -21c-13 0 -23 8 -23 21v564c0 98 82 181 178 181h17c13 0 23 -11 23 -24s-10 -22 -23 -22h-13c-76 0 -132 -63 -133 -133z" />
    <glyph glyph-name="five" unicode="5" horiz-adv-x="467" 
d="M115 424h117c113 0 201 -55 201 -202v-19c0 -152 -89 -209 -202 -209c-127 0 -201 76 -201 167c0 19 11 26 24 26c16 0 26 -8 26 -22c0 -78 68 -123 151 -123c95 0 152 51 152 161v19c0 106 -57 156 -151 156h-137c-25 0 -29 9 -29 20c0 3 1 15 1 18l19 293
c1 14 8 22 19 22h273c13 0 19 -12 19 -24s-6 -24 -19 -24h-245z" />
    <glyph glyph-name="fiveeighths" unicode="&#x215d;" horiz-adv-x="740" 
d="M584 371c62 0 108 -23 108 -89c0 -44 -20 -69 -51 -80c38 -13 62 -42 62 -94v-7c0 -75 -52 -104 -119 -104c-66 0 -119 29 -119 104v7c0 52 25 81 62 94c-30 11 -51 36 -51 80c0 66 47 89 108 89zM662 105v8c0 49 -29 71 -78 71c-48 0 -77 -22 -77 -71v-8
c0 -49 29 -73 78 -73s77 24 77 73zM584 335c-42 0 -67 -16 -67 -58c0 -40 25 -57 67 -57c43 0 67 17 67 57c0 42 -24 58 -67 58zM576 768c10 0 23 -9 23 -23c0 -4 -1 -7 -3 -11l-384 -744c-4 -9 -12 -13 -20 -13c-11 0 -21 9 -21 19c0 4 0 7 2 11l387 751c3 8 10 10 16 10z
M91 581h60c67 0 119 -29 119 -105v-10c0 -79 -53 -109 -118 -109c-77 0 -120 41 -120 85c0 17 7 23 21 23c16 0 21 -7 21 -18c1 -34 25 -52 74 -52c51 0 81 20 81 71v10c0 47 -29 70 -78 70h-78c-19 0 -21 10 -21 15c0 7 0 13 1 22l12 133c1 9 4 15 12 15h159
c10 0 14 -10 14 -19c0 -10 -4 -19 -14 -19h-135z" />
    <glyph glyph-name="fiveinferior" unicode="&#x2085;" horiz-adv-x="302" 
d="M90 221h60c67 0 119 -29 119 -105v-10c0 -79 -53 -109 -118 -109c-77 0 -120 42 -120 85c0 17 7 23 21 23c16 0 21 -7 21 -18c1 -34 25 -52 74 -52c51 0 81 20 81 71v10c0 47 -29 70 -78 70h-78c-19 0 -21 10 -21 15c0 7 0 13 1 22l12 133c1 9 4 15 12 15h159
c10 0 14 -9 14 -19s-4 -19 -14 -19h-135z" />
    <glyph glyph-name="fivesuperior" unicode="&#x2075;" horiz-adv-x="302" 
d="M90 581h60c67 0 119 -29 119 -105v-10c0 -79 -53 -109 -118 -109c-77 0 -120 41 -120 85c0 17 7 23 21 23c16 0 21 -7 21 -18c1 -34 25 -52 74 -52c51 0 81 20 81 71v10c0 47 -29 70 -78 70h-78c-19 0 -21 10 -21 15c0 7 0 13 1 22l12 133c1 9 4 15 12 15h159
c10 0 14 -10 14 -19c0 -10 -4 -19 -14 -19h-135z" />
    <glyph glyph-name="florin" unicode="&#x192;" horiz-adv-x="336" 
d="M174 586l-25 -178h148c12 0 19 -9 19 -19c0 -13 -10 -24 -23 -24h-151l-43 -309c-14 -100 -51 -193 -135 -193h-21c-12 0 -19 11 -19 22c0 15 11 26 24 26h20c49 0 72 70 83 145l74 530c14 99 108 182 206 182h11c11 0 18 -10 18 -22c0 -14 -10 -25 -23 -25h-11
c-75 0 -142 -64 -152 -135z" />
    <glyph glyph-name="four" unicode="4" horiz-adv-x="429" 
d="M288 22v153h-257c-14 0 -22 10 -22 22c0 6 2 11 4 15l254 502c6 12 16 17 25 17c11 0 24 -9 24 -21c0 -4 -1 -8 -3 -12l-240 -474h215v215c0 14 13 20 25 20c13 0 25 -6 25 -20v-215h57c15 0 22 -12 22 -24c0 -13 -8 -25 -22 -25h-57v-153c0 -15 -12 -22 -25 -22
c-12 0 -25 7 -25 22z" />
    <glyph glyph-name="fourinferior" unicode="&#x2084;" horiz-adv-x="280" 
d="M174 15v71h-143c-9 0 -15 6 -15 16c0 2 1 6 2 9l141 247c4 9 12 13 19 13c9 0 20 -7 20 -17c0 -2 -1 -5 -2 -7l-127 -222h105v87c0 10 10 14 20 14c11 0 21 -4 21 -14v-87h31c10 0 16 -10 16 -20c0 -9 -8 -19 -16 -19h-31v-71c0 -10 -10 -15 -21 -15c-10 0 -20 5 -20 15z
" />
    <glyph glyph-name="foursuperior" unicode="&#x2074;" horiz-adv-x="280" 
d="M174 375v71h-143c-9 0 -15 6 -15 16c0 2 1 6 2 9l141 247c4 9 12 13 19 13c9 0 20 -7 20 -17c0 -2 -1 -5 -2 -7l-127 -222h105v87c0 10 10 14 20 14c11 0 21 -4 21 -14v-87h31c10 0 16 -10 16 -20s-8 -19 -16 -19h-31v-71c0 -10 -10 -15 -21 -15c-10 0 -20 5 -20 15z" />
    <glyph glyph-name="fraction" unicode="&#x2044;" horiz-adv-x="152" 
d="M267 768c10 0 23 -9 23 -23c0 -4 -1 -7 -3 -11l-384 -744c-4 -9 -12 -13 -20 -13c-11 0 -21 9 -21 19c0 4 0 7 2 11l387 751c3 8 10 10 16 10z" />
    <glyph glyph-name="g" unicode="g" horiz-adv-x="448" 
d="M219 107c-29 0 -56 6 -79 19c-18 -9 -36 -20 -36 -44c0 -96 314 3 314 -178c0 -90 -77 -139 -192 -139c-116 0 -198 51 -198 131c0 60 44 94 88 110c-34 11 -58 29 -58 70c0 37 19 56 49 71c-33 29 -53 74 -53 126v41c0 96 66 164 166 164c48 0 89 -16 118 -45
c19 37 49 62 73 62c18 0 26 -12 26 -23c0 -12 -9 -19 -18 -20c-16 -1 -40 -11 -58 -45c18 -24 26 -58 26 -93v-41c0 -95 -69 -166 -168 -166zM339 273v41c0 70 -44 123 -119 123s-118 -53 -118 -123v-40c0 -72 44 -126 119 -126c73 0 118 53 118 125zM369 -98
c0 90 -132 84 -195 92c-50 -15 -98 -41 -98 -93c0 -57 56 -96 150 -96c92 0 143 38 143 97z" />
    <glyph glyph-name="g.ss03" horiz-adv-x="475" 
d="M385 472c14 0 24 -8 24 -20v-480c0 -111 -51 -209 -189 -209c-78 0 -155 32 -155 66c0 11 9 25 20 25c19 0 49 -45 137 -45c123 0 138 85 138 170v92c-22 -41 -75 -76 -135 -76c-95 0 -178 88 -178 185v115c0 101 82 183 180 183c66 0 112 -37 134 -76v50
c0 12 11 20 24 20zM96 295v-115c0 -71 62 -139 133 -139c75 0 131 73 131 105v149c0 86 -65 137 -130 137c-73 0 -134 -68 -134 -137z" />
    <glyph glyph-name="gbreve" unicode="&#x11f;" horiz-adv-x="448" 
d="M219 107c-29 0 -56 6 -79 19c-18 -9 -36 -20 -36 -44c0 -96 314 3 314 -178c0 -90 -77 -139 -192 -139c-116 0 -198 51 -198 131c0 60 44 94 88 110c-34 11 -58 29 -58 70c0 37 19 56 49 71c-33 29 -53 74 -53 126v41c0 96 66 164 166 164c48 0 89 -16 118 -45
c19 37 49 62 73 62c18 0 26 -12 26 -23c0 -12 -9 -19 -18 -20c-16 -1 -40 -11 -58 -45c18 -24 26 -58 26 -93v-41c0 -95 -69 -166 -168 -166zM339 273v41c0 70 -44 123 -119 123s-118 -53 -118 -123v-40c0 -72 44 -126 119 -126c73 0 118 53 118 125zM369 -98
c0 90 -132 84 -195 92c-50 -15 -98 -41 -98 -93c0 -57 56 -96 150 -96c92 0 143 38 143 97zM308 712h38c0 -61 -54 -113 -112 -113c-60 0 -113 52 -113 113h38c0 -46 34 -82 75 -82c39 0 74 36 74 82z" />
    <glyph glyph-name="gcircumflex" unicode="&#x11d;" horiz-adv-x="448" 
d="M234 655l-104 -56c-3 -1 -6 -3 -8 -3c-11 0 -20 10 -20 23c0 6 3 13 11 17l104 56c5 3 11 5 17 5s12 -2 17 -5l104 -55c7 -4 11 -12 11 -20c0 -11 -9 -20 -19 -20c-3 0 -6 2 -9 3zM219 107c-29 0 -56 6 -79 19c-18 -9 -36 -20 -36 -44c0 -96 314 3 314 -178
c0 -90 -77 -139 -192 -139c-116 0 -198 51 -198 131c0 60 44 94 88 110c-34 11 -58 29 -58 70c0 37 19 56 49 71c-33 29 -53 74 -53 126v41c0 96 66 164 166 164c48 0 89 -16 118 -45c19 37 49 62 73 62c18 0 26 -12 26 -23c0 -12 -9 -19 -18 -20c-16 -1 -40 -11 -58 -45
c18 -24 26 -58 26 -93v-41c0 -95 -69 -166 -168 -166zM339 273v41c0 70 -44 123 -119 123s-118 -53 -118 -123v-40c0 -72 44 -126 119 -126c73 0 118 53 118 125zM369 -98c0 90 -132 84 -195 92c-50 -15 -98 -41 -98 -93c0 -57 56 -96 150 -96c92 0 143 38 143 97z" />
    <glyph glyph-name="gcommaaccent" unicode="&#x123;" horiz-adv-x="448" 
d="M286 654l-100 -55c-3 -2 -7 -3 -10 -3c-12 0 -22 11 -22 23c0 6 2 12 9 15l107 61c2 1 5 2 8 2c12 0 19 -12 19 -23c0 -7 -3 -15 -11 -20zM219 107c-29 0 -56 6 -79 19c-18 -9 -36 -20 -36 -44c0 -96 314 3 314 -178c0 -90 -77 -139 -192 -139c-116 0 -198 51 -198 131
c0 60 44 94 88 110c-34 11 -58 29 -58 70c0 37 19 56 49 71c-33 29 -53 74 -53 126v41c0 96 66 164 166 164c48 0 89 -16 118 -45c19 37 49 62 73 62c18 0 26 -12 26 -23c0 -12 -9 -19 -18 -20c-16 -1 -40 -11 -58 -45c18 -24 26 -58 26 -93v-41c0 -95 -69 -166 -168 -166z
M339 273v41c0 70 -44 123 -119 123s-118 -53 -118 -123v-40c0 -72 44 -126 119 -126c73 0 118 53 118 125zM369 -98c0 90 -132 84 -195 92c-50 -15 -98 -41 -98 -93c0 -57 56 -96 150 -96c92 0 143 38 143 97zM224 844c-21 0 -40 18 -40 41c0 15 16 60 37 104
c3 7 10 11 16 11c9 0 20 -7 20 -18c0 -2 -1 -5 -2 -7l-19 -51c17 -5 29 -22 29 -39c0 -23 -17 -41 -41 -41z" />
    <glyph glyph-name="gdotaccent" unicode="&#x121;" horiz-adv-x="448" 
d="M219 107c-29 0 -56 6 -79 19c-18 -9 -36 -20 -36 -44c0 -96 314 3 314 -178c0 -90 -77 -139 -192 -139c-116 0 -198 51 -198 131c0 60 44 94 88 110c-34 11 -58 29 -58 70c0 37 19 56 49 71c-33 29 -53 74 -53 126v41c0 96 66 164 166 164c48 0 89 -16 118 -45
c19 37 49 62 73 62c18 0 26 -12 26 -23c0 -12 -9 -19 -18 -20c-16 -1 -40 -11 -58 -45c18 -24 26 -58 26 -93v-41c0 -95 -69 -166 -168 -166zM339 273v41c0 70 -44 123 -119 123s-118 -53 -118 -123v-40c0 -72 44 -126 119 -126c73 0 118 53 118 125zM369 -98
c0 90 -132 84 -195 92c-50 -15 -98 -41 -98 -93c0 -57 56 -96 150 -96c92 0 143 38 143 97zM233 662c19 0 33 -13 33 -32s-14 -33 -33 -33s-33 14 -33 33s14 32 33 32z" />
    <glyph glyph-name="germandbls" unicode="&#xdf;" horiz-adv-x="539" 
d="M324 -20c-28 0 -108 6 -108 40c0 11 8 23 18 23c13 0 33 -20 81 -20c82 0 136 59 136 173v19c0 73 -41 162 -161 172c-20 2 -32 4 -32 22c0 19 15 22 33 23c78 4 90 90 90 141c0 92 -38 148 -116 148c-85 0 -112 -65 -112 -135v-565c0 -13 -12 -21 -26 -21
c-13 0 -23 8 -23 21v408h-77c-12 0 -20 9 -20 21s8 22 20 22h77v114c0 98 45 182 159 182c93 0 164 -56 164 -180c0 -72 -24 -151 -72 -173c66 -13 142 -96 142 -199v-18c0 -150 -86 -218 -173 -218z" />
    <glyph glyph-name="grave" unicode="`" horiz-adv-x="143" 
d="M111 599l-100 55c-8 5 -11 13 -11 20c0 11 8 23 20 23c2 0 5 -1 7 -2l107 -61c7 -3 9 -9 9 -15c0 -12 -10 -23 -22 -23c-3 0 -6 1 -10 3z" />
    <glyph glyph-name="greater" unicode="&#x3e;" horiz-adv-x="396" 
d="M369 277c0 -9 -6 -18 -13 -22l-272 -180c-4 -3 -7 -4 -11 -4c-11 0 -24 10 -24 24c0 7 4 14 10 18l248 164l-248 165c-6 4 -10 11 -10 18c0 14 13 24 24 24c4 0 7 -1 11 -4l272 -180c6 -4 13 -14 13 -23z" />
    <glyph glyph-name="greaterequal" unicode="&#x2265;" horiz-adv-x="435" 
d="M71 211l247 136l-247 138c-7 3 -11 10 -11 17c0 13 12 24 24 24c4 0 7 -1 11 -3l272 -152c7 -4 13 -15 13 -24s-6 -18 -13 -22l-272 -152c-4 -3 -7 -4 -11 -4c-12 0 -24 11 -24 24c0 7 4 14 11 18zM380 85c0 -13 -11 -22 -22 -22h-278c-11 0 -20 9 -20 22s9 23 20 23h278
c11 0 22 -10 22 -23z" />
    <glyph glyph-name="guillemotleft" unicode="&#xab;" horiz-adv-x="381" 
d="M88 277l92 -169c2 -3 3 -7 3 -10c0 -12 -14 -24 -28 -24c-7 0 -14 3 -18 10l-92 171c-5 8 -8 14 -8 22c0 7 3 14 8 22l92 172c4 6 12 10 20 10c14 0 26 -13 26 -24c0 -3 -1 -7 -3 -10zM246 277l92 -169c2 -3 3 -7 3 -10c0 -12 -13 -24 -28 -24c-7 0 -13 3 -18 10l-92 171
c-5 8 -8 14 -8 22c0 7 3 14 8 22l92 172c4 6 12 10 20 10c14 0 26 -13 26 -24c0 -3 -1 -7 -3 -10z" />
    <glyph glyph-name="guillemotright" unicode="&#xbb;" horiz-adv-x="381" 
d="M201 108l92 169l-92 170c-2 3 -3 7 -3 10c0 11 12 24 26 24c9 0 17 -4 20 -10l93 -172c4 -8 7 -15 7 -22c0 -8 -3 -14 -7 -22l-93 -171c-4 -7 -11 -10 -18 -10c-14 0 -28 12 -28 24c0 3 1 7 3 10zM43 108l92 169l-92 170c-2 3 -3 7 -3 10c0 11 12 24 26 24
c8 0 16 -4 20 -10l92 -172c5 -8 8 -15 8 -22c0 -8 -3 -14 -8 -22l-92 -171c-4 -7 -11 -10 -18 -10c-14 0 -28 12 -28 24c0 3 1 7 3 10z" />
    <glyph glyph-name="guilsinglleft" unicode="&#x2039;" horiz-adv-x="223" 
d="M88 277l92 -169c2 -3 3 -7 3 -10c0 -12 -14 -24 -28 -24c-7 0 -14 3 -18 10l-92 171c-5 8 -8 14 -8 22c0 7 3 14 8 22l92 172c4 6 12 10 20 10c14 0 26 -13 26 -24c0 -3 -1 -7 -3 -10z" />
    <glyph glyph-name="guilsinglright" unicode="&#x203a;" horiz-adv-x="223" 
d="M43 108l92 169l-92 170c-2 3 -3 7 -3 10c0 11 12 24 26 24c9 0 17 -4 20 -10l93 -172c4 -8 7 -15 7 -22c0 -8 -3 -14 -7 -22l-93 -171c-4 -7 -11 -10 -18 -10c-14 0 -28 12 -28 24c0 3 1 7 3 10z" />
    <glyph glyph-name="h" unicode="h" 
d="M115 295v-273c0 -11 -11 -22 -25 -22s-24 11 -24 22v723c0 12 10 21 24 21s25 -9 25 -21v-343c21 39 66 76 133 76c97 0 179 -82 179 -183v-273c0 -15 -13 -22 -25 -22s-24 7 -24 22v273c0 69 -61 137 -134 137c-64 0 -129 -51 -129 -137z" />
    <glyph glyph-name="hbar" unicode="&#x127;" 
d="M14 607c0 12 8 22 21 22h31v116c0 12 10 21 24 21s25 -9 25 -21v-116h137c11 0 22 -10 22 -22s-11 -20 -22 -20h-137v-185c21 39 66 76 133 76c97 0 179 -82 179 -183v-273c0 -15 -13 -22 -25 -22s-24 7 -24 22v273c0 69 -61 137 -134 137c-64 0 -129 -51 -129 -137v-273
c0 -11 -11 -22 -25 -22s-24 11 -24 22v565h-31c-13 0 -21 8 -21 20z" />
    <glyph glyph-name="hcircumflex" unicode="&#x125;" 
d="M91 910l-104 -56c-3 -1 -6 -3 -8 -3c-11 0 -20 10 -20 23c0 6 3 13 11 17l104 56c5 3 11 5 17 5s12 -2 17 -5l104 -55c7 -4 11 -12 11 -20c0 -11 -9 -20 -19 -20c-3 0 -6 2 -9 3zM115 295v-273c0 -11 -11 -22 -25 -22s-24 11 -24 22v723c0 12 10 21 24 21s25 -9 25 -21
v-343c21 39 66 76 133 76c97 0 179 -82 179 -183v-273c0 -15 -13 -22 -25 -22s-24 7 -24 22v273c0 69 -61 137 -134 137c-64 0 -129 -51 -129 -137z" />
    <glyph glyph-name="hungarumlaut" unicode="&#x2dd;" horiz-adv-x="284" 
d="M126 658l-93 -58c-4 -3 -7 -4 -11 -4c-11 0 -22 10 -22 21c0 5 2 10 8 13l99 64c3 2 6 3 9 3c11 0 19 -10 19 -21c0 -7 -3 -13 -9 -18zM274 658l-93 -58c-3 -3 -7 -4 -10 -4c-12 0 -22 10 -22 21c0 5 2 10 7 13l100 64c2 2 6 3 8 3c12 0 20 -10 20 -21
c0 -7 -3 -13 -10 -18z" />
    <glyph glyph-name="hyphen" unicode="-" horiz-adv-x="400" 
d="M49 240c0 13 9 23 21 23h260c11 0 21 -10 21 -23s-10 -22 -21 -22h-260c-12 0 -21 9 -21 22z" />
    <glyph glyph-name="i" unicode="i" horiz-adv-x="181" 
d="M90 472c14 0 25 -8 25 -20v-430c0 -11 -11 -22 -25 -22s-24 11 -24 22v430c0 12 10 20 24 20zM90 693c20 0 37 -16 37 -35c0 -20 -17 -37 -37 -37c-22 0 -38 17 -38 37c0 19 16 35 38 35z" />
    <glyph glyph-name="iacute" unicode="&#xed;" horiz-adv-x="181" 
d="M152 654l-100 -55c-3 -2 -7 -3 -10 -3c-12 0 -22 11 -22 23c0 6 2 12 9 15l107 61c2 1 5 2 8 2c12 0 19 -12 19 -23c0 -7 -3 -15 -11 -20zM90 472c14 0 25 -8 25 -20v-430c0 -11 -11 -22 -25 -22s-24 11 -24 22v430c0 12 10 20 24 20z" />
    <glyph glyph-name="ibreve" unicode="&#x12d;" horiz-adv-x="181" 
d="M90 472c14 0 25 -8 25 -20v-430c0 -11 -11 -22 -25 -22s-24 11 -24 22v430c0 12 10 20 24 20zM165 712h38c0 -61 -54 -113 -112 -113c-60 0 -113 52 -113 113h38c0 -46 34 -82 75 -82c39 0 74 36 74 82z" />
    <glyph glyph-name="icircumflex" unicode="&#xee;" horiz-adv-x="181" 
d="M90 655l-104 -56c-3 -1 -6 -3 -8 -3c-11 0 -20 10 -20 23c0 6 3 13 11 17l104 56c5 3 11 5 17 5s12 -2 17 -5l104 -55c7 -4 11 -12 11 -20c0 -11 -9 -20 -19 -20c-3 0 -6 2 -9 3zM90 472c14 0 25 -8 25 -20v-430c0 -11 -11 -22 -25 -22s-24 11 -24 22v430
c0 12 10 20 24 20z" />
    <glyph glyph-name="idieresis" unicode="&#xef;" horiz-adv-x="181" 
d="M33 662c19 0 32 -13 32 -32s-13 -33 -32 -33s-33 14 -33 33s14 32 33 32zM150 662c19 0 32 -13 32 -32s-13 -33 -32 -33c-20 0 -33 14 -33 33s13 32 33 32zM90 472c14 0 25 -8 25 -20v-430c0 -11 -11 -22 -25 -22s-24 11 -24 22v430c0 12 10 20 24 20z" />
    <glyph glyph-name="igrave" unicode="&#xec;" horiz-adv-x="181" 
d="M90 472c14 0 25 -8 25 -20v-430c0 -11 -11 -22 -25 -22s-24 11 -24 22v430c0 12 10 20 24 20zM126 599l-100 55c-8 5 -11 13 -11 20c0 11 8 23 20 23c2 0 5 -1 7 -2l107 -61c7 -3 9 -9 9 -15c0 -12 -10 -23 -22 -23c-3 0 -6 1 -10 3z" />
    <glyph glyph-name="ij" unicode="&#x133;" horiz-adv-x="359" 
d="M90 472c14 0 25 -8 25 -20v-430c0 -11 -11 -22 -25 -22s-24 11 -24 22v430c0 12 10 20 24 20zM90 693c20 0 37 -16 37 -35c0 -20 -17 -37 -37 -37c-22 0 -38 17 -38 37c0 19 16 35 38 35zM268 693c20 0 37 -16 37 -35c0 -20 -17 -37 -37 -37c-22 0 -38 17 -38 37
c0 19 16 35 38 35zM268 472c14 0 25 -8 25 -20v-498c0 -111 -33 -189 -127 -189c-16 0 -25 12 -25 24c0 13 10 22 23 22c70 0 80 61 80 143v498c0 12 10 20 24 20z" />
    <glyph glyph-name="imacron" unicode="&#x12b;" horiz-adv-x="181" 
d="M90 472c14 0 25 -8 25 -20v-430c0 -11 -11 -22 -25 -22s-24 11 -24 22v430c0 12 10 20 24 20zM-40 662c0 12 8 22 21 22h217c11 0 22 -10 22 -22s-11 -20 -22 -20h-217c-13 0 -21 8 -21 20z" />
    <glyph glyph-name="infinity" unicode="&#x221e;" horiz-adv-x="851" 
d="M228 400c73 0 151 -46 197 -119c47 73 124 119 198 119c86 0 167 -54 167 -164s-81 -164 -168 -164c-73 0 -150 45 -197 118c-46 -73 -124 -118 -197 -118c-86 0 -167 54 -167 164s81 164 167 164zM450 236c37 -80 110 -117 172 -117c65 0 121 36 121 117
s-56 117 -121 117c-62 0 -135 -37 -172 -117zM402 236c-38 80 -111 117 -173 117c-65 0 -120 -36 -120 -117s55 -117 120 -117c62 0 135 37 173 117z" />
    <glyph glyph-name="integral" unicode="&#x222b;" horiz-adv-x="330" 
d="M301 748c11 0 21 -10 21 -22c0 -11 -8 -23 -21 -23c-73 0 -111 -52 -111 -107v-656c0 -85 -58 -140 -160 -140c-11 0 -22 9 -22 23c0 9 5 22 21 22c52 0 111 18 111 94v658c0 80 60 151 161 151z" />
    <glyph glyph-name="iogonek" unicode="&#x12f;" horiz-adv-x="182" 
d="M95 -165c11 0 18 -5 18 -16c0 -10 -6 -15 -24 -15c-42 0 -91 17 -91 71s28 100 70 139c-1 3 -1 5 -1 8v430c0 12 10 20 24 20s25 -8 25 -20v-430c0 -8 -6 -15 -14 -19c-40 -37 -70 -75 -70 -125c0 -32 24 -43 63 -43zM91 693c20 0 37 -16 37 -35c0 -20 -17 -37 -37 -37
c-22 0 -38 17 -38 37c0 19 16 35 38 35z" />
    <glyph glyph-name="itilde" unicode="&#x129;" horiz-adv-x="181" 
d="M90 472c14 0 25 -8 25 -20v-430c0 -11 -11 -22 -25 -22s-24 11 -24 22v430c0 12 10 20 24 20zM25 650c-43 0 -56 -33 -71 -33c-10 0 -16 10 -16 21c0 31 55 54 89 54c50 0 77 -36 129 -36c45 0 50 31 67 31c10 0 17 -10 17 -19c0 -36 -54 -54 -84 -54
c-51 0 -76 36 -131 36z" />
    <glyph glyph-name="j" unicode="j" horiz-adv-x="181" 
d="M90 693c20 0 37 -16 37 -35c0 -20 -17 -37 -37 -37c-22 0 -38 17 -38 37c0 19 16 35 38 35zM90 472c14 0 25 -8 25 -20v-498c0 -111 -33 -189 -127 -189c-16 0 -25 12 -25 24c0 13 10 22 23 22c70 0 80 61 80 143v498c0 12 10 20 24 20z" />
    <glyph glyph-name="jcircumflex" unicode="&#x135;" horiz-adv-x="181" 
d="M90 472c14 0 25 -8 25 -20v-498c0 -111 -33 -189 -127 -189c-16 0 -25 12 -25 24c0 13 10 22 23 22c70 0 80 61 80 143v498c0 12 10 20 24 20zM91 655l-104 -56c-3 -1 -6 -3 -8 -3c-11 0 -20 10 -20 23c0 6 3 13 11 17l104 56c5 3 11 5 17 5s12 -2 17 -5l104 -55
c7 -4 11 -12 11 -20c0 -11 -9 -20 -19 -20c-3 0 -6 2 -9 3z" />
    <glyph glyph-name="k" unicode="k" horiz-adv-x="445" 
d="M404 434l-155 -135l180 -264c2 -3 3 -8 3 -11c0 -12 -12 -25 -25 -25c-6 0 -12 3 -17 10l-176 258l-99 -86v-159c0 -11 -11 -22 -25 -22s-24 11 -24 22v723c0 12 10 21 24 21s25 -9 25 -21v-503l258 226c3 3 7 5 12 5c12 0 26 -8 26 -23c0 -5 -2 -12 -7 -16z" />
    <glyph glyph-name="kcommaaccent" unicode="&#x137;" horiz-adv-x="445" 
d="M283 -91l-100 -55c-3 -2 -6 -3 -9 -3c-12 0 -23 11 -23 23c0 6 3 12 10 15l106 61c3 1 6 2 8 2c12 0 20 -12 20 -23c0 -7 -4 -15 -12 -20zM404 434l-155 -135l180 -264c2 -3 3 -8 3 -11c0 -12 -12 -25 -25 -25c-6 0 -12 3 -17 10l-176 258l-99 -86v-159
c0 -11 -11 -22 -25 -22s-24 11 -24 22v723c0 12 10 21 24 21s25 -9 25 -21v-503l258 226c3 3 7 5 12 5c12 0 26 -8 26 -23c0 -5 -2 -12 -7 -16z" />
    <glyph glyph-name="kgreenlandic" unicode="&#x138;" horiz-adv-x="445" 
d="M404 434l-155 -135l180 -264c2 -3 3 -8 3 -11c0 -12 -12 -25 -25 -25c-6 0 -12 3 -17 10l-176 258l-99 -86v-159c0 -11 -11 -22 -25 -22s-24 11 -24 22v430c0 12 10 20 24 20s25 -8 25 -20v-210l258 226c3 3 7 5 12 5c12 0 26 -8 26 -23c0 -5 -2 -12 -7 -16z" />
    <glyph glyph-name="l" unicode="l" horiz-adv-x="197" 
d="M98 766c14 0 25 -9 25 -21v-723c0 -11 -11 -22 -25 -22s-24 11 -24 22v723c0 12 10 21 24 21z" />
    <glyph glyph-name="lacute" unicode="&#x13a;" horiz-adv-x="197" 
d="M162 866l-100 -55c-3 -2 -7 -3 -10 -3c-12 0 -22 11 -22 23c0 6 2 12 9 15l107 61c2 1 5 2 8 2c12 0 19 -12 19 -23c0 -7 -3 -15 -11 -20zM98 766c14 0 25 -9 25 -21v-723c0 -11 -11 -22 -25 -22s-24 11 -24 22v723c0 12 10 21 24 21z" />
    <glyph glyph-name="lcaron" unicode="&#x13e;" horiz-adv-x="197" 
d="M231 741c21 0 40 -18 40 -41c0 -15 -16 -60 -37 -104c-3 -7 -10 -11 -16 -11c-9 0 -20 7 -20 18c0 2 0 5 2 7l19 51c-17 6 -29 22 -29 39c0 23 17 41 41 41zM98 766c14 0 25 -9 25 -21v-723c0 -11 -11 -22 -25 -22s-24 11 -24 22v723c0 12 10 21 24 21z" />
    <glyph glyph-name="lcommaaccent" unicode="&#x13c;" horiz-adv-x="197" 
d="M161 -91l-100 -55c-3 -2 -6 -3 -9 -3c-12 0 -23 11 -23 23c0 6 3 12 10 15l106 61c3 1 6 2 8 2c12 0 20 -12 20 -23c0 -7 -4 -15 -12 -20zM98 766c14 0 25 -9 25 -21v-723c0 -11 -11 -22 -25 -22s-24 11 -24 22v723c0 12 10 21 24 21z" />
    <glyph glyph-name="ldot" unicode="&#x140;" horiz-adv-x="299" 
d="M98 766c14 0 25 -9 25 -21v-723c0 -11 -11 -22 -25 -22s-24 11 -24 22v723c0 12 10 21 24 21zM247 340c22 0 40 -18 40 -40c0 -21 -18 -40 -40 -40c-24 0 -41 19 -41 40c0 22 17 40 41 40z" />
    <glyph glyph-name="less" unicode="&#x3c;" horiz-adv-x="396" 
d="M27 277c0 9 6 19 13 23l272 180c3 3 7 4 10 4c12 0 25 -10 25 -24c0 -7 -4 -14 -10 -18l-248 -165l248 -164c6 -4 10 -11 10 -18c0 -14 -13 -24 -25 -24c-3 0 -7 1 -10 4l-272 180c-7 4 -13 13 -13 22z" />
    <glyph glyph-name="lessequal" unicode="&#x2264;" horiz-adv-x="435" 
d="M117 347l247 -136c7 -4 11 -11 11 -18c0 -13 -13 -24 -25 -24c-3 0 -6 1 -10 4l-272 152c-8 4 -13 13 -13 22s6 20 13 24l272 152c4 2 7 3 10 3c12 0 25 -11 25 -24c0 -7 -4 -14 -11 -17zM55 85c0 13 10 23 22 23h278c11 0 20 -10 20 -23s-9 -22 -20 -22h-278
c-12 0 -22 9 -22 22z" />
    <glyph glyph-name="logicalnot" unicode="&#xac;" horiz-adv-x="483" 
d="M58 240c0 13 9 23 21 23h314c10 0 21 -10 21 -23v-156c0 -12 -10 -21 -24 -21s-25 9 -25 21v134h-286c-12 0 -21 9 -21 22z" />
    <glyph glyph-name="lozenge" unicode="&#x25ca;" horiz-adv-x="454" 
d="M266 697l146 -283c10 -20 17 -34 17 -49c0 -14 -7 -28 -17 -47l-147 -284c-12 -22 -22 -36 -38 -36c-18 0 -26 13 -38 36l-147 284c-10 19 -17 33 -17 47c0 15 7 29 17 49l146 283c12 23 20 35 39 35c18 0 27 -12 39 -35zM227 671l-157 -305l157 -304l156 304z" />
    <glyph glyph-name="lslash" unicode="&#x142;" horiz-adv-x="299" 
d="M143 766c14 0 25 -9 25 -21v-360l85 48c3 2 6 2 9 2c12 0 22 -11 22 -22c0 -8 -5 -15 -11 -18l-105 -60v-313c0 -11 -11 -22 -25 -22s-24 11 -24 22v286l-71 -40c-3 -2 -6 -3 -9 -3c-11 0 -21 12 -21 25c0 6 3 13 10 16l91 51v388c0 12 10 21 24 21z" />
    <glyph glyph-name="m" unicode="m" horiz-adv-x="774" 
d="M364 21v278c0 76 -55 133 -122 133c-63 0 -127 -51 -127 -137v-273c0 -11 -11 -22 -25 -22s-24 11 -24 22v430c0 12 10 20 24 20c13 0 24 -8 24 -20v-50c22 39 67 76 134 76s120 -41 146 -100c35 68 94 100 152 100c85 0 166 -66 166 -183v-273c0 -11 -11 -22 -25 -22
c-13 0 -24 11 -24 22v273c0 91 -64 137 -123 137c-63 0 -127 -52 -127 -132v-279c0 -15 -12 -21 -25 -21c-11 0 -24 6 -24 21z" />
    <glyph glyph-name="m.ss04" horiz-adv-x="770" 
d="M540 478c87 0 168 -68 168 -183v-274c0 -10 -11 -21 -25 -21c-13 0 -24 11 -24 21v274c0 89 -63 137 -123 137c-65 0 -126 -58 -126 -137v-274c0 -14 -12 -21 -25 -21c-12 0 -24 7 -24 21v274c0 79 -62 137 -128 137c-59 0 -122 -47 -122 -137v-274
c0 -11 -11 -21 -25 -21s-24 10 -24 21v274c0 114 80 183 165 183c59 0 120 -31 158 -99c36 68 95 99 155 99z" />
    <glyph glyph-name="macron" unicode="&#xaf;" horiz-adv-x="260" 
d="M0 662c0 12 8 22 21 22h217c11 0 22 -10 22 -22s-11 -20 -22 -20h-217c-13 0 -21 8 -21 20z" />
    <glyph glyph-name="minus" unicode="&#x2212;" horiz-adv-x="492" 
d="M65 284c0 13 9 23 21 23h320c11 0 21 -10 21 -23s-10 -22 -21 -22h-320c-12 0 -21 9 -21 22z" />
    <glyph glyph-name="mu" unicode="&#xb5;" horiz-adv-x="483" 
d="M257 -6c-63 0 -114 33 -136 70v-278c0 -12 -11 -21 -23 -21c-14 0 -24 9 -24 21v665c0 11 10 21 24 21s25 -10 25 -21v-295c0 -43 66 -116 136 -116c68 0 127 68 127 137v274c0 14 12 21 24 21c14 0 25 -7 25 -21v-274c0 -100 -77 -183 -178 -183z" />
    <glyph glyph-name="multiply" unicode="&#xd7;" horiz-adv-x="395" 
d="M333 164c0 -11 -11 -24 -24 -24c-5 0 -9 2 -14 6l-98 97l-97 -97c-5 -4 -9 -6 -14 -6c-12 0 -24 12 -24 24c0 5 2 9 6 14l99 97l-99 97c-3 3 -5 9 -5 15c0 12 11 23 23 23c6 0 11 -2 15 -5l96 -98l97 98c4 3 9 5 15 5c12 0 23 -11 23 -23c0 -6 -2 -12 -5 -15l-99 -97
l99 -97c4 -5 6 -10 6 -14z" />
    <glyph glyph-name="n" unicode="n" 
d="M115 295v-273c0 -11 -11 -22 -25 -22s-24 11 -24 22v430c0 12 10 20 24 20c13 0 24 -8 24 -20v-50c21 39 67 76 134 76c97 0 179 -82 179 -183v-273c0 -15 -13 -22 -25 -22s-24 7 -24 22v273c0 69 -61 137 -134 137c-64 0 -129 -51 -129 -137z" />
    <glyph glyph-name="n.ss04" 
d="M244 478c101 0 183 -86 183 -183v-274c0 -10 -10 -21 -25 -21c-12 0 -24 11 -24 21v274c0 70 -59 137 -134 137c-74 0 -134 -66 -134 -137v-274c0 -11 -11 -21 -24 -21c-14 0 -25 10 -25 21v274c0 98 84 183 183 183z" />
    <glyph glyph-name="nacute" unicode="&#x144;" 
d="M303 654l-100 -55c-3 -2 -7 -3 -10 -3c-12 0 -22 11 -22 23c0 6 2 12 9 15l107 61c2 1 5 2 8 2c12 0 19 -12 19 -23c0 -7 -3 -15 -11 -20zM115 295v-273c0 -11 -11 -22 -25 -22s-24 11 -24 22v430c0 12 10 20 24 20c13 0 24 -8 24 -20v-50c21 39 67 76 134 76
c97 0 179 -82 179 -183v-273c0 -15 -13 -22 -25 -22s-24 7 -24 22v273c0 69 -61 137 -134 137c-64 0 -129 -51 -129 -137z" />
    <glyph glyph-name="ncaron" unicode="&#x148;" 
d="M141 724l99 -98l98 98c5 5 11 7 16 7c10 0 17 -10 17 -19c0 -6 -4 -12 -10 -19l-101 -96c-7 -6 -13 -10 -20 -10s-15 4 -21 10l-100 96c-7 7 -10 13 -10 19c0 9 7 19 17 19c4 0 10 -2 15 -7zM115 295v-273c0 -11 -11 -22 -25 -22s-24 11 -24 22v430c0 12 10 20 24 20
c13 0 24 -8 24 -20v-50c21 39 67 76 134 76c97 0 179 -82 179 -183v-273c0 -15 -13 -22 -25 -22s-24 7 -24 22v273c0 69 -61 137 -134 137c-64 0 -129 -51 -129 -137z" />
    <glyph glyph-name="ncommaaccent" unicode="&#x146;" 
d="M294 -91l-100 -55c-3 -2 -6 -3 -9 -3c-12 0 -23 11 -23 23c0 6 3 12 10 15l106 61c3 1 6 2 8 2c12 0 20 -12 20 -23c0 -7 -4 -15 -12 -20zM115 295v-273c0 -11 -11 -22 -25 -22s-24 11 -24 22v430c0 12 10 20 24 20c13 0 24 -8 24 -20v-50c21 39 67 76 134 76
c97 0 179 -82 179 -183v-273c0 -15 -13 -22 -25 -22s-24 7 -24 22v273c0 69 -61 137 -134 137c-64 0 -129 -51 -129 -137z" />
    <glyph glyph-name="nine" unicode="9" horiz-adv-x="510" 
d="M242 297c-110 0 -196 47 -196 198v26c0 153 87 210 200 210c114 0 202 -57 202 -210v-317c0 -153 -88 -210 -202 -210c-128 0 -200 80 -200 168c0 18 9 25 23 25c13 0 26 -7 26 -23c0 -74 69 -122 152 -122c95 0 151 51 151 162v164c-34 -49 -91 -71 -156 -71zM398 487
v36c0 110 -57 161 -152 161c-94 0 -150 -51 -150 -161v-27c0 -111 56 -153 151 -153c92 0 151 39 151 144z" />
    <glyph glyph-name="nineinferior" unicode="&#x2089;" horiz-adv-x="327" 
d="M153 148c-62 0 -113 23 -113 102v11c0 79 52 110 120 110c67 0 119 -31 119 -110v-154c0 -80 -52 -110 -121 -110c-78 0 -118 44 -118 88c0 14 8 18 20 18c11 0 21 -4 21 -16c0 -32 35 -52 78 -52c49 0 79 22 79 72v72c-20 -22 -50 -31 -85 -31zM238 247v15
c0 50 -30 73 -78 73c-49 0 -78 -23 -78 -73v-11c0 -50 29 -69 78 -69c46 0 78 17 78 65z" />
    <glyph glyph-name="ninesuperior" unicode="&#x2079;" horiz-adv-x="327" 
d="M153 508c-62 0 -113 23 -113 102v11c0 79 52 110 120 110c67 0 119 -31 119 -110v-154c0 -80 -52 -110 -121 -110c-78 0 -118 44 -118 88c0 14 8 18 20 18c11 0 21 -4 21 -16c0 -32 35 -52 78 -52c49 0 79 22 79 72v72c-20 -22 -50 -31 -85 -31zM238 607v15
c0 50 -30 73 -78 73c-49 0 -78 -23 -78 -73v-11c0 -50 29 -69 78 -69c46 0 78 17 78 65z" />
    <glyph glyph-name="notequal" unicode="&#x2260;" horiz-adv-x="470" 
d="M380 546l-67 -148h79c11 0 22 -11 22 -24s-11 -22 -22 -22h-102l-71 -157h173c11 0 22 -11 22 -24s-11 -22 -22 -22h-197l-71 -158c-4 -8 -10 -12 -17 -12c-10 0 -19 7 -19 17c0 3 0 8 2 11l63 142h-77c-12 0 -20 9 -20 22s8 24 20 24h100l71 157h-171
c-12 0 -20 9 -20 22s8 24 20 24h194l79 172c3 6 8 8 14 8c9 0 20 -9 20 -21c0 -4 -1 -7 -3 -11z" />
    <glyph glyph-name="ntilde" unicode="&#xf1;" 
d="M178 650c-43 0 -56 -33 -71 -33c-10 0 -16 10 -16 21c0 31 55 54 89 54c50 0 77 -36 129 -36c45 0 50 31 67 31c10 0 17 -10 17 -19c0 -36 -54 -54 -84 -54c-51 0 -76 36 -131 36zM115 295v-273c0 -11 -11 -22 -25 -22s-24 11 -24 22v430c0 12 10 20 24 20
c13 0 24 -8 24 -20v-50c21 39 67 76 134 76c97 0 179 -82 179 -183v-273c0 -15 -13 -22 -25 -22s-24 7 -24 22v273c0 69 -61 137 -134 137c-64 0 -129 -51 -129 -137z" />
    <glyph glyph-name="numbersign" unicode="#" horiz-adv-x="563" 
d="M238 713c16 0 25 -11 25 -24l-28 -179h131l30 190c1 8 9 13 18 13c16 0 25 -11 25 -24l-28 -179h103c9 0 21 -8 21 -20c0 -10 -8 -20 -16 -20h-114l-27 -169h103c10 0 22 -8 22 -21c0 -10 -8 -19 -17 -19h-115l-31 -209c-2 -11 -12 -17 -22 -17c-13 0 -23 8 -23 24
l31 202h-130l-32 -208c-2 -13 -12 -18 -20 -18c-13 0 -24 8 -24 24l30 202h-100c-15 0 -21 8 -21 20c0 11 7 20 16 20h113l25 169h-101c-14 0 -21 8 -21 20c0 11 7 20 16 20h113l30 190c1 8 9 13 18 13zM229 470l-26 -169h130l26 169h-130z" />
    <glyph glyph-name="o" unicode="o" horiz-adv-x="461" 
d="M230 478c98 0 184 -82 184 -183v-116c0 -97 -86 -185 -184 -185s-183 87 -183 185v116c0 98 83 183 183 183zM365 179v116c0 69 -60 137 -135 137s-134 -68 -134 -137v-116c0 -71 59 -139 134 -139c74 0 135 68 135 139z" />
    <glyph glyph-name="oacute" unicode="&#xf3;" horiz-adv-x="461" 
d="M291 654l-100 -55c-3 -2 -7 -3 -10 -3c-12 0 -22 11 -22 23c0 6 2 12 9 15l107 61c2 1 5 2 8 2c12 0 19 -12 19 -23c0 -7 -3 -15 -11 -20zM230 478c98 0 184 -82 184 -183v-116c0 -97 -86 -185 -184 -185s-183 87 -183 185v116c0 98 83 183 183 183zM365 179v116
c0 69 -60 137 -135 137s-134 -68 -134 -137v-116c0 -71 59 -139 134 -139c74 0 135 68 135 139z" />
    <glyph glyph-name="obreve" unicode="&#x14f;" horiz-adv-x="461" 
d="M230 478c98 0 184 -82 184 -183v-116c0 -97 -86 -185 -184 -185s-183 87 -183 185v116c0 98 83 183 183 183zM365 179v116c0 69 -60 137 -135 137s-134 -68 -134 -137v-116c0 -71 59 -139 134 -139c74 0 135 68 135 139zM305 712h38c0 -61 -54 -113 -112 -113
c-60 0 -113 52 -113 113h38c0 -46 34 -82 75 -82c39 0 74 36 74 82z" />
    <glyph glyph-name="ocircumflex" unicode="&#xf4;" horiz-adv-x="461" 
d="M230 655l-104 -56c-3 -1 -6 -3 -8 -3c-11 0 -20 10 -20 23c0 6 3 13 11 17l104 56c5 3 11 5 17 5s12 -2 17 -5l104 -55c7 -4 11 -12 11 -20c0 -11 -9 -20 -19 -20c-3 0 -6 2 -9 3zM230 478c98 0 184 -82 184 -183v-116c0 -97 -86 -185 -184 -185s-183 87 -183 185v116
c0 98 83 183 183 183zM365 179v116c0 69 -60 137 -135 137s-134 -68 -134 -137v-116c0 -71 59 -139 134 -139c74 0 135 68 135 139z" />
    <glyph glyph-name="odieresis" unicode="&#xf6;" horiz-adv-x="461" 
d="M172 662c19 0 32 -13 32 -32s-13 -33 -32 -33s-33 14 -33 33s14 32 33 32zM289 662c19 0 32 -13 32 -32s-13 -33 -32 -33c-20 0 -33 14 -33 33s13 32 33 32zM230 478c98 0 184 -82 184 -183v-116c0 -97 -86 -185 -184 -185s-183 87 -183 185v116c0 98 83 183 183 183z
M365 179v116c0 69 -60 137 -135 137s-134 -68 -134 -137v-116c0 -71 59 -139 134 -139c74 0 135 68 135 139z" />
    <glyph glyph-name="oe" unicode="&#x153;" horiz-adv-x="768" 
d="M230 478c67 0 129 -40 160 -99c29 58 90 99 159 99c96 0 181 -77 181 -179c0 -77 -39 -79 -84 -79h-232v-42c0 -86 66 -139 164 -139c79 0 92 40 115 40c12 0 23 -10 23 -25c0 -21 -59 -60 -144 -60s-152 38 -183 100c-31 -58 -92 -100 -159 -100c-98 0 -183 87 -183 185
v116c0 98 83 183 183 183zM365 179v116c0 69 -60 137 -135 137s-134 -68 -134 -137v-116c0 -71 59 -139 134 -139c74 0 135 68 135 139zM414 261h213c45 0 55 6 55 36c0 68 -53 137 -134 137c-74 0 -134 -59 -134 -128v-45z" />
    <glyph glyph-name="ogonek" unicode="&#x2db;" horiz-adv-x="115" 
d="M97 -167c11 0 18 -5 18 -16c0 -10 -6 -15 -24 -15c-42 0 -91 17 -91 71c0 57 32 105 78 146l29 -16c-41 -38 -73 -76 -73 -127c0 -32 24 -43 63 -43z" />
    <glyph glyph-name="ograve" unicode="&#xf2;" horiz-adv-x="461" 
d="M230 478c98 0 184 -82 184 -183v-116c0 -97 -86 -185 -184 -185s-183 87 -183 185v116c0 98 83 183 183 183zM365 179v116c0 69 -60 137 -135 137s-134 -68 -134 -137v-116c0 -71 59 -139 134 -139c74 0 135 68 135 139zM268 599l-100 55c-8 5 -11 13 -11 20
c0 11 8 23 20 23c2 0 5 -1 7 -2l107 -61c7 -3 9 -9 9 -15c0 -12 -10 -23 -22 -23c-3 0 -6 1 -10 3z" />
    <glyph glyph-name="ohungarumlaut" unicode="&#x151;" horiz-adv-x="461" 
d="M242 658l-93 -58c-4 -3 -7 -4 -11 -4c-11 0 -22 10 -22 21c0 5 2 10 8 13l99 64c3 2 6 3 9 3c11 0 19 -10 19 -21c0 -7 -3 -13 -9 -18zM390 658l-93 -58c-3 -3 -7 -4 -10 -4c-12 0 -22 10 -22 21c0 5 2 10 7 13l100 64c2 2 6 3 8 3c12 0 20 -10 20 -21
c0 -7 -3 -13 -10 -18zM230 478c98 0 184 -82 184 -183v-116c0 -97 -86 -185 -184 -185s-183 87 -183 185v116c0 98 83 183 183 183zM365 179v116c0 69 -60 137 -135 137s-134 -68 -134 -137v-116c0 -71 59 -139 134 -139c74 0 135 68 135 139z" />
    <glyph glyph-name="omacron" unicode="&#x14d;" horiz-adv-x="461" 
d="M101 662c0 12 8 22 21 22h217c11 0 22 -10 22 -22s-11 -20 -22 -20h-217c-13 0 -21 8 -21 20zM230 478c98 0 184 -82 184 -183v-116c0 -97 -86 -185 -184 -185s-183 87 -183 185v116c0 98 83 183 183 183zM365 179v116c0 69 -60 137 -135 137s-134 -68 -134 -137v-116
c0 -71 59 -139 134 -139c74 0 135 68 135 139z" />
    <glyph glyph-name="one" unicode="1" horiz-adv-x="220" 
d="M98 22v607l-42 -72c-5 -10 -12 -13 -18 -13c-13 0 -22 11 -22 23c0 7 8 21 12 26l74 122c5 9 11 16 24 16c11 0 22 -6 22 -21v-688c0 -15 -13 -22 -25 -22c-13 0 -25 7 -25 22z" />
    <glyph glyph-name="one.lnum" horiz-adv-x="388" 
d="M16 24c0 13 10 24 22 24h134v581l-41 -72c-6 -10 -13 -13 -19 -13c-12 0 -22 11 -22 23c0 6 7 18 10 22l76 126c6 9 11 16 24 16c12 0 22 -6 22 -21v-662h133c11 0 22 -11 22 -24s-11 -24 -22 -24h-317c-12 0 -22 11 -22 24z" />
    <glyph glyph-name="oneeighth" unicode="&#x215b;" horiz-adv-x="624" 
d="M84 375v293l-22 -28c-3 -5 -7 -6 -10 -6c-10 0 -16 8 -16 17c0 6 5 14 8 17l49 57c4 3 8 6 15 6c8 0 17 -6 17 -15v-341c0 -10 -10 -15 -20 -15c-11 0 -21 5 -21 15zM468 371c62 0 108 -23 108 -89c0 -44 -20 -69 -51 -80c38 -13 62 -42 62 -94v-7
c0 -75 -52 -104 -119 -104c-66 0 -119 29 -119 104v7c0 52 25 81 62 94c-30 11 -51 36 -51 80c0 66 47 89 108 89zM546 105v8c0 49 -29 71 -78 71c-48 0 -77 -22 -77 -71v-8c0 -49 29 -73 78 -73s77 24 77 73zM468 335c-42 0 -67 -16 -67 -58c0 -40 25 -57 67 -57
c43 0 67 17 67 57c0 42 -24 58 -67 58zM461 768c10 0 23 -9 23 -23c0 -4 -1 -7 -3 -11l-384 -744c-4 -9 -12 -13 -20 -13c-11 0 -21 9 -21 19c0 4 0 7 2 11l387 751c3 8 10 10 16 10z" />
    <glyph glyph-name="onehalf" unicode="&#xbd;" horiz-adv-x="613" 
d="M352 284c0 52 48 87 108 87c65 0 114 -43 114 -99c0 -109 -189 -143 -189 -207v-27h178c8 0 15 -9 15 -19c0 -9 -7 -19 -15 -19h-201c-8 0 -19 6 -19 15v49c0 83 190 122 190 206c0 30 -24 62 -74 62c-38 0 -66 -18 -66 -56c0 -7 -8 -16 -22 -16c-12 0 -19 6 -19 24z
M84 375v293l-22 -28c-3 -5 -7 -6 -10 -6c-10 0 -16 8 -16 17c0 6 5 14 8 17l49 57c4 3 8 6 15 6c8 0 17 -6 17 -15v-341c0 -10 -10 -15 -20 -15c-11 0 -21 5 -21 15zM461 768c10 0 23 -9 23 -23c0 -4 -1 -7 -3 -11l-384 -744c-4 -9 -12 -13 -20 -13c-11 0 -21 9 -21 19
c0 4 0 7 2 11l387 751c3 8 10 10 16 10z" />
    <glyph glyph-name="oneinferior" unicode="&#x2081;" horiz-adv-x="163" 
d="M69 15v293l-22 -28c-3 -5 -7 -6 -10 -6c-10 0 -16 8 -16 17c0 6 5 14 8 17l49 57c4 3 8 6 15 6c8 0 17 -6 17 -15v-341c0 -10 -10 -15 -20 -15c-11 0 -21 5 -21 15z" />
    <glyph glyph-name="onequarter" unicode="&#xbc;" horiz-adv-x="589" 
d="M81 375v293l-22 -28c-3 -5 -7 -6 -10 -6c-10 0 -16 8 -16 17c0 6 5 14 8 17l49 57c4 3 8 6 15 6c8 0 17 -6 17 -15v-341c0 -10 -10 -15 -20 -15c-11 0 -21 5 -21 15zM474 768c10 0 23 -9 23 -23c0 -4 -1 -7 -3 -11l-384 -744c-4 -9 -12 -13 -20 -13c-11 0 -21 9 -21 19
c0 4 0 7 2 11l387 751c3 8 10 10 16 10zM476 15v71h-143c-9 0 -15 6 -15 16c0 2 1 6 2 9l141 247c4 9 12 13 19 13c9 0 20 -7 20 -17c0 -2 -1 -5 -2 -7l-127 -222h105v87c0 10 10 14 20 14c11 0 21 -4 21 -14v-87h31c10 0 16 -10 16 -20c0 -9 -8 -19 -16 -19h-31v-71
c0 -10 -10 -15 -21 -15c-10 0 -20 5 -20 15z" />
    <glyph glyph-name="onesuperior" unicode="&#xb9;" horiz-adv-x="163" 
d="M69 375v293l-22 -28c-3 -5 -7 -6 -10 -6c-10 0 -16 8 -16 17c0 6 5 14 8 17l49 57c4 3 8 6 15 6c8 0 17 -6 17 -15v-341c0 -10 -10 -15 -20 -15c-11 0 -21 5 -21 15z" />
    <glyph glyph-name="onethird" unicode="&#x2153;" horiz-adv-x="624" 
d="M467 35c52 0 80 21 80 71v9c0 44 -32 62 -79 62c-12 0 -16 9 -16 17c0 10 4 18 16 18c43 0 68 13 68 61c0 42 -21 61 -66 61c-57 0 -70 -29 -70 -50c0 -11 -6 -18 -20 -18c-17 0 -21 5 -21 21c0 30 21 84 112 84c62 0 105 -24 105 -90c0 -45 -20 -74 -46 -85
c33 -12 57 -37 57 -81v-9c0 -79 -53 -109 -119 -109c-81 0 -119 47 -119 86c0 16 6 19 19 19c17 0 22 -6 22 -16c0 -21 18 -51 77 -51zM84 375v293l-22 -28c-3 -5 -7 -6 -10 -6c-10 0 -16 8 -16 17c0 6 5 14 8 17l49 57c4 3 8 6 15 6c8 0 17 -6 17 -15v-341
c0 -10 -10 -15 -20 -15c-11 0 -21 5 -21 15zM461 768c10 0 23 -9 23 -23c0 -4 -1 -7 -3 -11l-384 -744c-4 -9 -12 -13 -20 -13c-11 0 -21 9 -21 19c0 4 0 7 2 11l387 751c3 8 10 10 16 10z" />
    <glyph glyph-name="ordfeminine" unicode="&#xaa;" horiz-adv-x="311" 
d="M144 735c84 0 115 -58 115 -121v-162c0 -9 -9 -17 -22 -17c-11 0 -20 8 -20 17v26c-23 -26 -54 -47 -99 -47c-44 0 -81 28 -81 82c0 69 60 87 147 87h31v14c0 40 -20 84 -72 84c-43 0 -58 -19 -68 -19c-11 0 -17 13 -17 23c0 17 46 33 86 33zM215 532v38h-29
c-55 0 -105 -7 -105 -53c0 -35 23 -51 53 -51c40 0 81 37 81 66z" />
    <glyph glyph-name="ordmasculine" unicode="&#xba;" horiz-adv-x="325" 
d="M163 735c64 0 120 -53 120 -118v-67c0 -63 -56 -120 -120 -120c-65 0 -121 57 -121 120v67c0 63 54 118 121 118zM239 550v67c0 40 -33 78 -76 78c-44 0 -77 -38 -77 -78v-67c0 -41 33 -80 77 -80c42 0 76 39 76 80z" />
    <glyph glyph-name="oslash" unicode="&#xf8;" horiz-adv-x="461" 
d="M230 478c33 0 65 -10 92 -26l27 49c3 6 9 8 14 8c9 0 20 -9 20 -20c0 -5 -1 -8 -4 -13l-26 -47c37 -33 61 -81 61 -134v-116c0 -97 -86 -185 -184 -185c-36 0 -69 11 -98 30l-24 -45c-4 -8 -10 -11 -17 -11c-9 0 -18 7 -18 17c0 3 1 7 3 10l28 52c-35 34 -57 82 -57 132
v116c0 98 83 183 183 183zM365 179v116c0 32 -14 65 -36 90l-174 -320c21 -16 47 -25 75 -25c74 0 135 68 135 139zM96 179c0 -32 12 -63 32 -88l172 320c-20 13 -44 21 -70 21c-75 0 -134 -68 -134 -137v-116z" />
    <glyph glyph-name="oslashacute" unicode="&#x1ff;" horiz-adv-x="461" 
d="M230 478c33 0 65 -10 92 -26l27 49c3 6 9 8 14 8c9 0 20 -9 20 -20c0 -5 -1 -8 -4 -13l-26 -47c37 -33 61 -81 61 -134v-116c0 -97 -86 -185 -184 -185c-36 0 -69 11 -98 30l-24 -45c-4 -8 -10 -11 -17 -11c-9 0 -18 7 -18 17c0 3 1 7 3 10l28 52c-35 34 -57 82 -57 132
v116c0 98 83 183 183 183zM365 179v116c0 32 -14 65 -36 90l-174 -320c21 -16 47 -25 75 -25c74 0 135 68 135 139zM96 179c0 -32 12 -63 32 -88l172 320c-20 13 -44 21 -70 21c-75 0 -134 -68 -134 -137v-116zM296 654l-100 -55c-3 -2 -7 -3 -10 -3c-12 0 -22 11 -22 23
c0 6 2 12 9 15l107 61c2 1 5 2 8 2c12 0 19 -12 19 -23c0 -7 -3 -15 -11 -20z" />
    <glyph glyph-name="otilde" unicode="&#xf5;" horiz-adv-x="461" 
d="M230 478c98 0 184 -82 184 -183v-116c0 -97 -86 -185 -184 -185s-183 87 -183 185v116c0 98 83 183 183 183zM365 179v116c0 69 -60 137 -135 137s-134 -68 -134 -137v-116c0 -71 59 -139 134 -139c74 0 135 68 135 139zM167 650c-43 0 -56 -33 -71 -33
c-10 0 -16 10 -16 21c0 31 55 54 89 54c50 0 77 -36 129 -36c45 0 50 31 67 31c10 0 17 -10 17 -19c0 -36 -54 -54 -84 -54c-51 0 -76 36 -131 36z" />
    <glyph glyph-name="p" unicode="p" horiz-adv-x="475" 
d="M90 472c13 0 24 -8 24 -20v-50c22 39 67 76 134 76c98 0 180 -82 180 -183v-116c0 -97 -83 -185 -178 -185c-61 0 -113 35 -135 76v-283c0 -11 -11 -22 -25 -22s-24 11 -24 22v665c0 12 10 20 24 20zM379 179v116c0 69 -61 137 -135 137c-64 0 -129 -51 -129 -137v-150
c0 -32 56 -105 131 -105c71 0 133 68 133 139z" />
    <glyph glyph-name="paragraph" unicode="&#xb6;" horiz-adv-x="517" 
d="M231 731h185c11 0 21 -7 21 -22v-688c0 -15 -10 -21 -21 -21s-22 6 -22 21v670h-76v-669c0 -15 -10 -22 -21 -22s-22 7 -22 22v284h-44c-110 0 -196 57 -196 207v12c0 150 86 206 196 206z" />
    <glyph glyph-name="parenleft" unicode="(" horiz-adv-x="289" 
d="M245 -20c-104 0 -180 60 -180 167v440c0 97 78 181 180 181c16 0 24 -11 24 -23c0 -13 -9 -24 -20 -24c-85 0 -133 -68 -133 -134v-440c0 -99 74 -120 133 -120c16 0 20 -13 20 -23c0 -15 -9 -24 -24 -24z" />
    <glyph glyph-name="parenright" unicode=")" horiz-adv-x="289" 
d="M45 -20c-15 0 -25 9 -25 24c0 10 5 23 21 23c59 0 133 21 133 120v440c0 66 -48 134 -133 134c-11 0 -21 11 -21 24c0 12 9 23 24 23c103 0 180 -84 180 -181v-440c0 -107 -75 -167 -179 -167z" />
    <glyph glyph-name="partialdiff" unicode="&#x2202;" horiz-adv-x="483" 
d="M370 402c-1 169 -41 293 -172 293c-60 0 -89 -26 -104 -26c-12 0 -21 19 -21 27c0 21 63 46 130 46c147 0 216 -125 216 -370v-192c0 -97 -85 -186 -184 -186c-98 0 -183 87 -183 185v125c0 98 80 183 176 183c59 0 125 -31 142 -85zM101 304v-125
c0 -71 60 -139 134 -139c75 0 135 68 135 139v129c0 68 -62 133 -135 133c-75 0 -134 -68 -134 -137z" />
    <glyph glyph-name="percent" unicode="%" horiz-adv-x="748" 
d="M162 357c-67 0 -119 30 -119 110v154c0 79 52 110 119 110s119 -31 119 -110v-154c0 -80 -52 -110 -119 -110zM240 467v154c0 50 -29 72 -78 72c-48 0 -77 -22 -77 -72v-154c0 -50 29 -72 77 -72c49 0 78 22 78 72zM586 -3c-67 0 -119 30 -119 110v154
c0 79 52 110 119 110s119 -31 119 -110v-154c0 -80 -52 -110 -119 -110zM664 107v154c0 50 -29 72 -78 72c-48 0 -77 -22 -77 -72v-154c0 -50 29 -72 77 -72c49 0 78 22 78 72zM569 768c10 0 23 -9 23 -23c0 -4 -1 -7 -3 -11l-384 -744c-4 -9 -12 -13 -20 -13
c-11 0 -21 9 -21 19c0 4 0 7 2 11l387 751c3 8 10 10 16 10z" />
    <glyph glyph-name="period" unicode="." horiz-adv-x="165" 
d="M83 76c21 0 40 -19 40 -41s-19 -41 -40 -41c-24 0 -41 19 -41 41s17 41 41 41z" />
    <glyph glyph-name="periodcentered" unicode="&#xb7;" horiz-adv-x="177" 
d="M89 340c22 0 40 -18 40 -40c0 -21 -18 -40 -40 -40c-24 0 -41 19 -41 40c0 22 17 40 41 40z" />
    <glyph glyph-name="perthousand" unicode="&#x2030;" horiz-adv-x="1050" 
d="M162 357c-67 0 -119 30 -119 110v154c0 79 52 110 119 110s119 -31 119 -110v-154c0 -80 -52 -110 -119 -110zM240 467v154c0 50 -29 72 -78 72c-48 0 -77 -22 -77 -72v-154c0 -50 29 -72 77 -72c49 0 78 22 78 72zM586 -3c-67 0 -119 30 -119 110v154
c0 79 52 110 119 110s119 -31 119 -110v-154c0 -80 -52 -110 -119 -110zM664 107v154c0 50 -29 72 -78 72c-48 0 -77 -22 -77 -72v-154c0 -50 29 -72 77 -72c49 0 78 22 78 72zM891 -3c-67 0 -119 30 -119 110v154c0 79 52 110 119 110s119 -31 119 -110v-154
c0 -80 -52 -110 -119 -110zM969 107v154c0 50 -29 72 -78 72c-48 0 -77 -22 -77 -72v-154c0 -50 29 -72 77 -72c49 0 78 22 78 72zM569 768c10 0 23 -9 23 -23c0 -4 -1 -7 -3 -11l-384 -744c-4 -9 -12 -13 -20 -13c-11 0 -21 9 -21 19c0 4 0 7 2 11l387 751c3 8 10 10 16 10
z" />
    <glyph glyph-name="pi" unicode="&#x3c0;" horiz-adv-x="480" 
d="M90 472h300c12 0 24 -7 24 -21v-430c0 -15 -13 -21 -25 -21c-13 0 -25 6 -25 21v404h-247v-404c0 -15 -13 -21 -25 -21c-13 0 -26 6 -26 21v430c0 14 12 21 24 21z" />
    <glyph glyph-name="plus" unicode="+" horiz-adv-x="428" 
d="M214 59c-13 0 -23 9 -23 21v138h-138c-12 0 -20 9 -20 22s8 23 20 23h138v137c0 11 10 22 23 22c14 0 23 -11 23 -22v-137h136c11 0 22 -10 22 -23s-11 -22 -22 -22h-136v-138c0 -12 -9 -21 -23 -21z" />
    <glyph glyph-name="plusminus" unicode="&#xb1;" horiz-adv-x="475" 
d="M238 169c-13 0 -23 9 -23 21v136h-138c-12 0 -21 9 -21 23c0 13 9 23 21 23h138v135c0 11 10 22 23 22s22 -11 22 -22v-135h137c11 0 22 -10 22 -23c0 -14 -11 -23 -22 -23h-137v-136c0 -12 -9 -21 -22 -21zM56 85c0 13 9 23 21 23h320c11 0 22 -10 22 -23
s-11 -22 -22 -22h-320c-12 0 -21 9 -21 22z" />
    <glyph glyph-name="product" unicode="&#x220f;" horiz-adv-x="561" 
d="M103 731h355c12 0 24 -7 24 -22v-688c0 -15 -12 -21 -25 -21c-12 0 -25 6 -25 21v662h-302v-662c0 -15 -13 -21 -25 -21c-13 0 -26 6 -26 21v688c0 15 12 22 24 22z" />
    <glyph glyph-name="q" unicode="q" horiz-adv-x="476" 
d="M386 472c14 0 24 -8 24 -20v-665c0 -11 -10 -22 -24 -22s-25 11 -25 22v283c-22 -41 -75 -76 -135 -76c-95 0 -178 88 -178 185v116c0 101 82 183 180 183c66 0 112 -37 134 -76v50c0 12 11 20 24 20zM97 295v-116c0 -71 62 -139 133 -139c75 0 131 73 131 105v150
c0 86 -65 137 -130 137c-73 0 -134 -68 -134 -137z" />
    <glyph glyph-name="q.ss02" horiz-adv-x="472" 
d="M227 -6c-97 0 -179 83 -179 183v116c0 82 51 185 183 185c86 0 179 -46 179 -191v-502c0 -12 -10 -20 -24 -20s-25 9 -25 21v284c-22 -39 -68 -76 -134 -76zM229 40c68 0 132 65 132 105v134c0 112 -61 153 -132 153c-107 0 -132 -87 -132 -139v-116
c0 -69 62 -137 132 -137z" />
    <glyph glyph-name="question" unicode="?" horiz-adv-x="391" 
d="M355 566c0 -130 -98 -186 -138 -234c-29 -34 -30 -78 -30 -157c0 -13 -9 -20 -22 -20c-12 0 -21 6 -21 23c0 116 14 151 38 178c43 48 127 96 127 207c0 86 -48 139 -143 139c-86 0 -102 -45 -122 -45c-9 0 -20 9 -20 22c0 29 67 67 146 67c125 0 185 -80 185 -180z
M165 76c22 0 40 -19 40 -41s-17 -41 -40 -41s-40 19 -40 41s18 41 40 41z" />
    <glyph glyph-name="questiondown" unicode="&#xbf;" horiz-adv-x="390" 
d="M36 174c0 130 98 186 138 234c29 34 30 78 30 157c0 13 9 20 22 20c12 0 21 -6 21 -23c0 -116 -14 -151 -38 -178c-43 -48 -127 -95 -127 -207c0 -86 48 -139 143 -139c86 0 102 45 122 45c8 0 19 -9 19 -22c0 -29 -66 -67 -145 -67c-125 0 -185 80 -185 180zM226 664
c-22 0 -40 19 -40 41s17 41 40 41s40 -19 40 -41s-18 -41 -40 -41z" />
    <glyph glyph-name="quotedbl" unicode="&#x22;" horiz-adv-x="262" 
d="M68 768c12 0 29 -8 29 -19l-10 -150c0 -10 -6 -21 -19 -21s-17 11 -17 21l-10 150c0 11 15 19 27 19zM193 768c12 0 28 -8 28 -19l-10 -150c0 -10 -6 -21 -18 -21c-13 0 -18 11 -18 21l-10 150c0 11 16 19 28 19z" />
    <glyph glyph-name="quotedblbase" unicode="&#x201e;" horiz-adv-x="307" 
d="M224 76c22 0 40 -19 40 -41c0 -16 -15 -60 -36 -104c-3 -7 -10 -11 -16 -11c-10 0 -20 7 -20 17c0 3 0 5 1 8l19 51c-17 5 -28 21 -28 39c0 22 17 41 40 41zM83 76c21 0 40 -19 40 -41c0 -16 -16 -60 -37 -104c-3 -7 -10 -11 -16 -11c-9 0 -20 7 -20 17c0 3 0 5 2 8
l18 51c-16 5 -28 21 -28 39c0 22 17 41 41 41z" />
    <glyph glyph-name="quotedblleft" unicode="&#x201c;" horiz-adv-x="297" 
d="M77 585c-22 0 -40 18 -40 41c0 15 15 60 36 104c4 7 10 11 16 11c10 0 20 -7 20 -18c0 -2 0 -5 -1 -7l-19 -51c17 -5 28 -22 28 -39c0 -23 -17 -41 -40 -41zM218 585c-21 0 -40 18 -40 41c0 15 16 60 37 104c3 7 10 11 16 11c9 0 20 -7 20 -18c0 -2 0 -5 -2 -7l-18 -51
c16 -5 28 -22 28 -39c0 -23 -17 -41 -41 -41z" />
    <glyph glyph-name="quotedblright" unicode="&#x201d;" horiz-adv-x="296" 
d="M222 741c21 0 40 -18 40 -41c0 -15 -16 -60 -37 -104c-3 -7 -10 -11 -16 -11c-9 0 -20 7 -20 18c0 2 0 5 2 7l18 51c-16 6 -28 22 -28 39c0 23 17 41 41 41zM80 741c22 0 40 -18 40 -41c0 -15 -16 -60 -37 -104c-3 -7 -10 -11 -15 -11c-10 0 -20 7 -20 18c0 2 0 5 1 7
l19 51c-17 6 -29 22 -29 39c0 23 17 41 41 41z" />
    <glyph glyph-name="quoteleft" unicode="&#x2018;" horiz-adv-x="155" 
d="M76 585c-21 0 -40 18 -40 41c0 15 16 60 37 104c3 7 10 11 16 11c9 0 20 -7 20 -18c0 -2 -1 -5 -2 -7l-19 -51c17 -5 29 -22 29 -39c0 -23 -17 -41 -41 -41z" />
    <glyph glyph-name="quoteright" unicode="&#x2019;" horiz-adv-x="154" 
d="M80 741c22 0 40 -18 40 -41c0 -15 -15 -60 -36 -104c-4 -7 -11 -11 -16 -11c-10 0 -20 7 -20 18c0 2 0 5 1 7l19 51c-17 6 -29 22 -29 39c0 23 18 41 41 41z" />
    <glyph glyph-name="quotesinglbase" unicode="&#x201a;" horiz-adv-x="165" 
d="M83 76c21 0 40 -19 40 -41c0 -16 -16 -60 -37 -104c-3 -7 -10 -11 -16 -11c-9 0 -20 7 -20 17c0 3 0 5 2 8l18 51c-16 5 -28 21 -28 39c0 22 17 41 41 41z" />
    <glyph glyph-name="quotesingle" unicode="'" horiz-adv-x="138" 
d="M68 768c12 0 29 -8 29 -19l-10 -150c0 -10 -6 -21 -19 -21s-17 11 -17 21l-10 150c0 11 15 19 27 19z" />
    <glyph glyph-name="r" unicode="r" horiz-adv-x="319" 
d="M286 432h-36c-68 0 -135 -55 -135 -146v-264c0 -11 -11 -22 -25 -22s-24 11 -24 22v430c0 12 10 20 24 20c13 0 24 -8 24 -20v-51c22 39 69 77 136 77h36c12 0 22 -10 22 -23s-10 -23 -22 -23z" />
    <glyph glyph-name="r.ss04" horiz-adv-x="314" 
d="M282 432h-48c-76 0 -125 -84 -125 -169v-242c0 -11 -11 -21 -25 -21c-13 0 -24 10 -24 21v243c0 110 69 214 171 214h50c13 0 21 -9 21 -22c0 -14 -9 -24 -20 -24z" />
    <glyph glyph-name="racute" unicode="&#x155;" horiz-adv-x="319" 
d="M214 654l-100 -55c-3 -2 -7 -3 -10 -3c-12 0 -22 11 -22 23c0 6 2 12 9 15l107 61c2 1 5 2 8 2c12 0 19 -12 19 -23c0 -7 -3 -15 -11 -20zM286 432h-36c-68 0 -135 -55 -135 -146v-264c0 -11 -11 -22 -25 -22s-24 11 -24 22v430c0 12 10 20 24 20c13 0 24 -8 24 -20v-51
c22 39 69 77 136 77h36c12 0 22 -10 22 -23s-10 -23 -22 -23z" />
    <glyph glyph-name="radical" unicode="&#x221a;" horiz-adv-x="598" 
d="M14 421c0 13 8 23 20 23h58c10 0 18 -7 22 -19l122 -375l212 702c3 10 11 16 21 16h102c12 0 21 -10 21 -23c0 -14 -9 -23 -21 -23h-80l-226 -738c-4 -13 -17 -19 -28 -19c-13 0 -25 6 -29 19l-137 414h-37c-12 0 -20 9 -20 23z" />
    <glyph glyph-name="rcaron" unicode="&#x159;" horiz-adv-x="319" 
d="M53 724l99 -98l98 98c5 5 11 7 16 7c10 0 17 -10 17 -19c0 -6 -4 -12 -10 -19l-101 -96c-7 -6 -13 -10 -20 -10s-15 4 -21 10l-100 96c-7 7 -10 13 -10 19c0 9 7 19 17 19c4 0 10 -2 15 -7zM286 432h-36c-68 0 -135 -55 -135 -146v-264c0 -11 -11 -22 -25 -22
s-24 11 -24 22v430c0 12 10 20 24 20c13 0 24 -8 24 -20v-51c22 39 69 77 136 77h36c12 0 22 -10 22 -23s-10 -23 -22 -23z" />
    <glyph glyph-name="rcommaaccent" unicode="&#x157;" horiz-adv-x="319" 
d="M127 -91l-100 -55c-3 -2 -6 -3 -9 -3c-12 0 -23 11 -23 23c0 6 3 12 10 15l106 61c3 1 6 2 8 2c12 0 20 -12 20 -23c0 -7 -4 -15 -12 -20zM286 432h-36c-68 0 -135 -55 -135 -146v-264c0 -11 -11 -22 -25 -22s-24 11 -24 22v430c0 12 10 20 24 20c13 0 24 -8 24 -20v-51
c22 39 69 77 136 77h36c12 0 22 -10 22 -23s-10 -23 -22 -23z" />
    <glyph glyph-name="registered" unicode="&#xae;" horiz-adv-x="724" 
d="M55 358c0 223 171 327 310 327c141 0 304 -106 304 -323c0 -223 -171 -327 -310 -327c-141 0 -304 106 -304 323zM270 186v361c0 7 6 14 15 15h86c56 0 103 -26 103 -107c0 -66 -29 -95 -69 -104l68 -153c1 -3 2 -5 2 -7c0 -11 -13 -21 -24 -21c-8 0 -13 9 -17 18
l-72 158h-51v-160c0 -10 -10 -15 -20 -15s-21 5 -21 15zM371 524h-60v-143h60c37 0 63 20 63 71c0 52 -26 72 -63 72zM630 362c0 165 -106 284 -265 284c-157 0 -271 -117 -271 -288c0 -165 106 -284 265 -284c157 0 271 117 271 288z" />
    <glyph glyph-name="ring" unicode="&#x2da;" horiz-adv-x="182" 
d="M91 768c48 0 91 -43 91 -92c0 -50 -43 -94 -91 -94c-50 0 -91 44 -91 94c0 48 40 92 91 92zM153 676c0 30 -28 62 -62 62c-35 0 -63 -33 -63 -62c0 -33 29 -67 63 -67s62 33 62 67z" />
    <glyph glyph-name="s" unicode="s" horiz-adv-x="379" 
d="M186 38c80 0 110 36 110 77c0 145 -249 65 -249 231c0 61 44 132 152 132c62 0 128 -23 128 -45c0 -9 -10 -26 -22 -26c-14 0 -45 27 -105 27c-79 0 -107 -50 -107 -87c0 -124 250 -46 250 -229c0 -77 -57 -124 -156 -124c-92 0 -151 41 -151 68c0 10 9 23 18 23
c20 0 40 -47 132 -47z" />
    <glyph glyph-name="sacute" unicode="&#x15b;" horiz-adv-x="379" 
d="M246 654l-100 -55c-3 -2 -7 -3 -10 -3c-12 0 -22 11 -22 23c0 6 2 12 9 15l107 61c2 1 5 2 8 2c12 0 19 -12 19 -23c0 -7 -3 -15 -11 -20zM186 38c80 0 110 36 110 77c0 145 -249 65 -249 231c0 61 44 132 152 132c62 0 128 -23 128 -45c0 -9 -10 -26 -22 -26
c-14 0 -45 27 -105 27c-79 0 -107 -50 -107 -87c0 -124 250 -46 250 -229c0 -77 -57 -124 -156 -124c-92 0 -151 41 -151 68c0 10 9 23 18 23c20 0 40 -47 132 -47z" />
    <glyph glyph-name="scaron" unicode="&#x161;" horiz-adv-x="379" 
d="M86 724l99 -98l98 98c5 5 11 7 16 7c10 0 17 -10 17 -19c0 -6 -4 -12 -10 -19l-101 -96c-7 -6 -13 -10 -20 -10s-15 4 -21 10l-100 96c-7 7 -10 13 -10 19c0 9 7 19 17 19c4 0 10 -2 15 -7zM186 38c80 0 110 36 110 77c0 145 -249 65 -249 231c0 61 44 132 152 132
c62 0 128 -23 128 -45c0 -9 -10 -26 -22 -26c-14 0 -45 27 -105 27c-79 0 -107 -50 -107 -87c0 -124 250 -46 250 -229c0 -77 -57 -124 -156 -124c-92 0 -151 41 -151 68c0 10 9 23 18 23c20 0 40 -47 132 -47z" />
    <glyph glyph-name="scedilla" unicode="&#x15f;" horiz-adv-x="379" 
d="M186 38c80 0 110 36 110 77c0 145 -249 65 -249 231c0 61 44 132 152 132c62 0 128 -23 128 -45c0 -9 -10 -26 -22 -26c-14 0 -45 27 -105 27c-79 0 -107 -50 -107 -87c0 -124 250 -46 250 -229c0 -69 -46 -114 -127 -122l-14 -59c68 -2 95 -36 95 -71
c0 -37 -29 -74 -85 -74c-25 0 -76 7 -76 24c0 7 6 21 14 21c7 0 23 -13 56 -13c40 0 54 19 54 40c0 29 -26 41 -67 44l-33 2l21 84c-89 2 -145 41 -145 68c0 10 9 23 18 23c20 0 40 -47 132 -47z" />
    <glyph glyph-name="schwa" unicode="&#x259;" horiz-adv-x="450" 
d="M218 -6c-96 0 -181 76 -181 181c0 75 41 77 85 77h231v42c0 86 -67 139 -161 139c-81 0 -98 -40 -118 -40c-13 0 -23 14 -23 24c0 21 54 61 144 61c121 0 208 -74 208 -185v-119c0 -98 -84 -180 -185 -180zM353 211h-213c-45 0 -55 -6 -55 -36c0 -68 54 -137 134 -137
c76 0 134 61 134 132v41z" />
    <glyph glyph-name="scircumflex" unicode="&#x15d;" horiz-adv-x="379" 
d="M185 655l-104 -56c-3 -1 -6 -3 -8 -3c-11 0 -20 10 -20 23c0 6 3 13 11 17l104 56c5 3 11 5 17 5s12 -2 17 -5l104 -55c7 -4 11 -12 11 -20c0 -11 -9 -20 -19 -20c-3 0 -6 2 -9 3zM186 38c80 0 110 36 110 77c0 145 -249 65 -249 231c0 61 44 132 152 132
c62 0 128 -23 128 -45c0 -9 -10 -26 -22 -26c-14 0 -45 27 -105 27c-79 0 -107 -50 -107 -87c0 -124 250 -46 250 -229c0 -77 -57 -124 -156 -124c-92 0 -151 41 -151 68c0 10 9 23 18 23c20 0 40 -47 132 -47z" />
    <glyph glyph-name="scommaaccent" unicode="&#x219;" horiz-adv-x="379" 
d="M251 -91l-100 -55c-3 -2 -6 -3 -9 -3c-12 0 -23 11 -23 23c0 6 3 12 10 15l106 61c3 1 6 2 8 2c12 0 20 -12 20 -23c0 -7 -4 -15 -12 -20zM186 38c80 0 110 36 110 77c0 145 -249 65 -249 231c0 61 44 132 152 132c62 0 128 -23 128 -45c0 -9 -10 -26 -22 -26
c-14 0 -45 27 -105 27c-79 0 -107 -50 -107 -87c0 -124 250 -46 250 -229c0 -77 -57 -124 -156 -124c-92 0 -151 41 -151 68c0 10 9 23 18 23c20 0 40 -47 132 -47z" />
    <glyph glyph-name="section" unicode="&#xa7;" horiz-adv-x="463" 
d="M66 415v128c0 152 97 188 168 188c103 0 156 -67 156 -159c0 -21 -11 -27 -23 -27c-15 0 -25 7 -25 28c0 40 -19 112 -106 112c-57 0 -122 -33 -122 -137c0 -177 294 -75 294 -303v-126c0 -132 -81 -185 -177 -185c-111 0 -181 75 -181 165c0 18 11 25 25 25
c16 0 22 -10 22 -21c0 -42 23 -123 127 -123c86 0 134 47 134 133c0 176 -292 74 -292 302zM362 214v32c0 150 -177 115 -249 198v-31c0 -150 177 -116 249 -199z" />
    <glyph glyph-name="semicolon" unicode=";" horiz-adv-x="202" 
d="M100 76c20 0 41 -15 41 -42c0 -7 -1 -19 -35 -103c-3 -7 -10 -11 -17 -11c-10 0 -20 6 -20 16c0 3 0 5 1 9l19 51c-17 5 -29 21 -29 39c0 22 17 41 40 41zM103 422c21 0 40 -19 40 -41s-19 -41 -40 -41c-24 0 -41 19 -41 41s17 41 41 41z" />
    <glyph glyph-name="seven" unicode="7" horiz-adv-x="450" 
d="M433 709v-78c0 -5 -2 -12 -6 -18l-308 -602c-4 -7 -11 -12 -18 -12c-16 0 -30 9 -30 23c0 3 2 8 4 13l308 597v51h-303v-123c0 -12 -12 -22 -25 -22c-14 0 -25 10 -25 22v149c0 11 12 22 24 22h355c10 0 24 -11 24 -22z" />
    <glyph glyph-name="seveneighths" unicode="&#x215e;" horiz-adv-x="739" 
d="M584 371c62 0 108 -23 108 -89c0 -44 -20 -69 -51 -80c38 -13 62 -42 62 -94v-7c0 -75 -52 -104 -119 -104c-66 0 -119 29 -119 104v7c0 52 25 81 62 94c-30 11 -51 36 -51 80c0 66 47 89 108 89zM662 105v8c0 49 -29 71 -78 71c-48 0 -77 -22 -77 -71v-8
c0 -49 29 -73 78 -73s77 24 77 73zM584 335c-42 0 -67 -16 -67 -58c0 -40 25 -57 67 -57c43 0 67 17 67 57c0 42 -24 58 -67 58zM527 768c10 0 23 -9 23 -23c0 -4 -1 -7 -3 -11l-384 -744c-4 -9 -12 -13 -20 -13c-11 0 -21 9 -21 19c0 4 0 7 2 11l387 751c3 8 10 10 16 10z
M271 716v-47c0 -6 -3 -15 -6 -20l-165 -283c-2 -4 -8 -7 -14 -7c-12 0 -25 7 -25 20c0 2 1 5 2 8l167 278v28h-155v-54c0 -8 -11 -15 -21 -15c-12 0 -21 7 -21 15v77c0 7 10 15 19 15h200c8 0 19 -8 19 -15z" />
    <glyph glyph-name="seveninferior" unicode="&#x2087;" horiz-adv-x="288" 
d="M267 356v-47c0 -6 -3 -15 -6 -20l-165 -283c-2 -4 -8 -7 -14 -7c-12 0 -25 8 -25 20c0 2 1 5 2 8l167 278v28h-155v-54c0 -8 -11 -15 -21 -15c-12 0 -21 7 -21 15v77c0 7 10 15 19 15h200c8 0 19 -8 19 -15z" />
    <glyph glyph-name="sevensuperior" unicode="&#x2077;" horiz-adv-x="288" 
d="M267 716v-47c0 -6 -3 -15 -6 -20l-165 -283c-2 -4 -8 -7 -14 -7c-12 0 -25 7 -25 20c0 2 1 5 2 8l167 278v28h-155v-54c0 -8 -11 -15 -21 -15c-12 0 -21 7 -21 15v77c0 7 10 15 19 15h200c8 0 19 -8 19 -15z" />
    <glyph glyph-name="six" unicode="6" horiz-adv-x="511" 
d="M268 428c111 0 197 -47 197 -198v-26c0 -153 -87 -210 -201 -210c-113 0 -202 57 -202 210v317c0 153 89 210 203 210c128 0 200 -80 200 -168c0 -18 -10 -25 -23 -25s-27 7 -27 23c0 74 -68 122 -151 122c-95 0 -151 -51 -151 -162v-164c34 49 91 71 155 71zM113 238
v-36c0 -110 56 -161 151 -161s151 51 151 161v27c0 111 -56 153 -151 153c-92 0 -151 -39 -151 -144z" />
    <glyph glyph-name="sixinferior" unicode="&#x2086;" horiz-adv-x="326" 
d="M173 220c62 0 113 -24 113 -102v-11c0 -80 -52 -110 -119 -110c-79 0 -120 35 -120 131v133c0 79 53 110 121 110c78 0 118 -45 118 -88c0 -14 -7 -19 -20 -19c-10 0 -21 4 -21 17c0 32 -35 52 -78 52c-49 0 -78 -22 -78 -72v-73c19 23 50 32 84 32zM89 121v-16
c0 -49 29 -72 78 -72c48 0 78 23 78 72v11c0 51 -30 70 -79 70c-46 0 -77 -18 -77 -65z" />
    <glyph glyph-name="sixsuperior" unicode="&#x2076;" horiz-adv-x="326" 
d="M173 580c62 0 113 -24 113 -102v-11c0 -80 -52 -110 -119 -110c-79 0 -120 35 -120 131v133c0 79 53 110 121 110c78 0 118 -45 118 -88c0 -14 -7 -19 -20 -19c-10 0 -21 4 -21 17c0 32 -35 52 -78 52c-49 0 -78 -22 -78 -72v-73c19 23 50 32 84 32zM89 481v-16
c0 -49 29 -72 78 -72c48 0 78 23 78 72v11c0 51 -30 70 -79 70c-46 0 -77 -18 -77 -65z" />
    <glyph glyph-name="slash" unicode="/" horiz-adv-x="470" 
d="M426 768c10 0 23 -9 23 -23c0 -4 -1 -7 -4 -11l-383 -744c-5 -9 -12 -13 -21 -13c-11 0 -20 9 -20 19c0 4 0 7 2 11l386 751c4 8 10 10 17 10z" />
    <glyph glyph-name="space" unicode=" " horiz-adv-x="200" 
 />
    <glyph glyph-name="sterling" unicode="&#xa3;" horiz-adv-x="473" 
d="M414 48c12 0 19 -12 19 -24s-7 -24 -19 -24h-367c-14 0 -22 12 -22 24s8 24 22 24h61l44 319h-81c-12 0 -19 9 -19 21s7 23 19 23h88l25 174c14 100 108 183 210 183h16c15 0 23 -12 23 -24c0 -11 -8 -23 -23 -23h-21c-79 0 -146 -65 -156 -136l-25 -174h156
c13 0 19 -12 19 -23c0 -10 -6 -21 -19 -21h-163l-45 -319h258z" />
    <glyph glyph-name="summation" unicode="&#x2211;" horiz-adv-x="457" 
d="M258 252l-225 439c-3 5 -5 12 -5 17c0 13 9 23 24 23h358c14 0 21 -12 21 -24s-7 -24 -21 -24h-318l197 -383c12 -22 19 -35 19 -48c0 -14 -7 -27 -19 -49l-197 -382h318c14 0 21 -12 21 -24s-7 -24 -21 -24h-358c-15 0 -24 10 -24 23c0 5 2 12 5 17z" />
    <glyph glyph-name="t" unicode="t" horiz-adv-x="284" 
d="M113 429v-286c0 -71 27 -97 103 -97h25c14 0 23 -10 23 -23c0 -12 -9 -23 -23 -23h-25c-99 0 -152 43 -152 143v537c0 12 13 21 24 21c13 0 25 -9 25 -21v-208h133c10 0 19 -10 19 -22c0 -11 -9 -21 -19 -21h-133z" />
    <glyph glyph-name="tbar" unicode="&#x167;" horiz-adv-x="288" 
d="M113 429v-109h133c10 0 19 -10 19 -22s-9 -22 -19 -22h-133v-133c0 -71 27 -97 103 -97h25c14 0 23 -10 23 -23c0 -12 -9 -23 -23 -23h-25c-99 0 -152 43 -152 143v537c0 12 13 21 24 21c13 0 25 -9 25 -21v-208h133c10 0 19 -10 19 -22c0 -11 -9 -21 -19 -21h-133z" />
    <glyph glyph-name="tcaron" unicode="&#x165;" horiz-adv-x="284" 
d="M224 744c21 0 40 -18 40 -41c0 -15 -16 -60 -37 -104c-3 -7 -10 -11 -16 -11c-9 0 -20 7 -20 18c0 2 0 5 2 7l19 51c-17 6 -29 22 -29 39c0 23 17 41 41 41zM113 429v-286c0 -71 27 -97 103 -97h25c14 0 23 -10 23 -23c0 -12 -9 -23 -23 -23h-25c-99 0 -152 43 -152 143
v537c0 12 13 21 24 21c13 0 25 -9 25 -21v-208h133c10 0 19 -10 19 -22c0 -11 -9 -21 -19 -21h-133z" />
    <glyph glyph-name="tcommaaccent" unicode="&#x163;" horiz-adv-x="284" 
d="M195 -91l-100 -55c-3 -2 -6 -3 -9 -3c-12 0 -23 11 -23 23c0 6 3 12 10 15l106 61c3 1 6 2 8 2c12 0 20 -12 20 -23c0 -7 -4 -15 -12 -20zM113 429v-286c0 -71 27 -97 103 -97h25c14 0 23 -10 23 -23c0 -12 -9 -23 -23 -23h-25c-99 0 -152 43 -152 143v537
c0 12 13 21 24 21c13 0 25 -9 25 -21v-208h133c10 0 19 -10 19 -22c0 -11 -9 -21 -19 -21h-133z" />
    <glyph glyph-name="thorn" unicode="&#xfe;" horiz-adv-x="475" 
d="M90 766c14 0 25 -9 25 -21v-343c22 39 67 76 133 76c98 0 180 -82 180 -183v-116c0 -97 -83 -185 -178 -185c-61 0 -113 35 -135 76v-283c0 -11 -11 -22 -25 -22s-24 11 -24 22v958c0 12 10 21 24 21zM379 179v116c0 69 -61 137 -135 137c-64 0 -129 -51 -129 -137v-150
c0 -32 56 -105 131 -105c71 0 133 68 133 139z" />
    <glyph glyph-name="three" unicode="3" horiz-adv-x="480" 
d="M230 42c98 0 154 50 154 160v19c0 96 -59 142 -151 142c-15 0 -22 12 -22 23c0 12 7 23 21 23c88 0 134 34 134 136c0 92 -39 139 -130 139c-115 0 -137 -73 -137 -117c0 -17 -8 -28 -25 -28c-18 0 -25 8 -25 34c0 51 33 158 190 158c105 0 176 -47 176 -175
c0 -94 -38 -148 -83 -170c59 -25 102 -75 102 -165v-19c0 -151 -90 -208 -201 -208c-137 0 -202 88 -202 161c0 24 8 31 23 31c20 0 26 -11 26 -24c0 -42 29 -120 150 -120z" />
    <glyph glyph-name="threeeighths" unicode="&#x215c;" horiz-adv-x="741" 
d="M151 395c52 0 80 21 80 71v9c0 44 -32 62 -79 62c-12 0 -16 9 -16 17c0 9 4 18 16 18c43 0 68 13 68 61c0 42 -21 61 -66 61c-57 0 -70 -29 -70 -50c0 -11 -6 -18 -20 -18c-17 0 -21 5 -21 21c0 30 21 84 112 84c62 0 105 -24 105 -90c0 -45 -20 -74 -46 -85
c33 -12 57 -37 57 -81v-9c0 -79 -53 -109 -119 -109c-81 0 -119 47 -119 86c0 16 6 19 19 19c17 0 22 -6 22 -16c0 -21 18 -51 77 -51zM585 371c62 0 108 -23 108 -89c0 -44 -20 -69 -51 -80c38 -13 62 -42 62 -94v-7c0 -75 -52 -104 -119 -104c-66 0 -119 29 -119 104v7
c0 52 25 81 62 94c-30 11 -51 36 -51 80c0 66 47 89 108 89zM663 105v8c0 49 -29 71 -78 71c-48 0 -77 -22 -77 -71v-8c0 -49 29 -73 78 -73s77 24 77 73zM585 335c-42 0 -67 -16 -67 -58c0 -40 25 -57 67 -57c43 0 67 17 67 57c0 42 -24 58 -67 58zM577 768
c10 0 23 -9 23 -23c0 -4 -1 -7 -3 -11l-384 -744c-4 -9 -12 -13 -20 -13c-11 0 -21 9 -21 19c0 4 0 7 2 11l387 751c3 8 10 10 16 10z" />
    <glyph glyph-name="threeinferior" unicode="&#x2083;" horiz-adv-x="309" 
d="M150 35c52 0 80 21 80 71v9c0 44 -32 62 -79 62c-12 0 -16 9 -16 17c0 10 4 18 16 18c43 0 68 13 68 61c0 42 -21 61 -66 61c-57 0 -70 -29 -70 -50c0 -11 -6 -18 -20 -18c-17 0 -21 5 -21 21c0 30 21 84 112 84c62 0 105 -24 105 -90c0 -45 -20 -74 -46 -85
c33 -12 57 -37 57 -81v-9c0 -79 -53 -109 -119 -109c-81 0 -119 47 -119 86c0 16 6 19 19 19c17 0 22 -6 22 -16c0 -21 18 -51 77 -51z" />
    <glyph glyph-name="threequarters" unicode="&#xbe;" horiz-adv-x="720" 
d="M152 395c52 0 80 21 80 71v9c0 44 -32 62 -79 62c-12 0 -16 9 -16 17c0 9 4 18 16 18c43 0 68 13 68 61c0 42 -21 61 -66 61c-57 0 -70 -29 -70 -50c0 -11 -6 -18 -20 -18c-17 0 -21 5 -21 21c0 30 21 84 112 84c62 0 105 -24 105 -90c0 -45 -20 -74 -46 -85
c33 -12 57 -37 57 -81v-9c0 -79 -53 -109 -119 -109c-81 0 -119 47 -119 86c0 16 6 19 19 19c17 0 22 -6 22 -16c0 -21 18 -51 77 -51zM607 15v71h-143c-9 0 -15 6 -15 16c0 2 1 6 2 9l141 247c4 9 12 13 19 13c9 0 20 -7 20 -17c0 -2 -1 -5 -2 -7l-127 -222h105v87
c0 10 10 14 20 14c11 0 21 -4 21 -14v-87h31c10 0 16 -10 16 -20c0 -9 -8 -19 -16 -19h-31v-71c0 -10 -10 -15 -21 -15c-10 0 -20 5 -20 15zM598 768c10 0 23 -9 23 -23c0 -4 -1 -7 -3 -11l-384 -744c-4 -9 -12 -13 -20 -13c-11 0 -21 9 -21 19c0 4 0 7 2 11l387 751
c3 8 10 10 16 10z" />
    <glyph glyph-name="threesuperior" unicode="&#xb3;" horiz-adv-x="309" 
d="M150 395c52 0 80 21 80 71v9c0 44 -32 62 -79 62c-12 0 -16 9 -16 17c0 9 4 18 16 18c43 0 68 13 68 61c0 42 -21 61 -66 61c-57 0 -70 -29 -70 -50c0 -11 -6 -18 -20 -18c-17 0 -21 5 -21 21c0 30 21 84 112 84c62 0 105 -24 105 -90c0 -45 -20 -74 -46 -85
c33 -12 57 -37 57 -81v-9c0 -79 -53 -109 -119 -109c-81 0 -119 47 -119 86c0 16 6 19 19 19c17 0 22 -6 22 -16c0 -21 18 -51 77 -51z" />
    <glyph glyph-name="tilde" unicode="&#x2dc;" horiz-adv-x="302" 
d="M87 650c-43 0 -56 -33 -71 -33c-10 0 -16 10 -16 21c0 31 55 54 89 54c50 0 77 -36 129 -36c45 0 50 31 67 31c10 0 17 -10 17 -19c0 -36 -54 -54 -84 -54c-51 0 -76 36 -131 36z" />
    <glyph glyph-name="trademark" unicode="&#x2122;" horiz-adv-x="613" 
d="M56 768h192c9 0 14 -10 14 -19c0 -11 -5 -21 -14 -21h-75v-240c0 -10 -10 -16 -21 -16s-21 6 -21 16v240h-75c-9 0 -14 10 -14 21c0 9 4 19 14 19zM500 679l-69 -160c-4 -9 -10 -12 -16 -12c-5 0 -11 3 -14 12l-69 162v-193c0 -10 -11 -16 -21 -16s-21 6 -21 16v259
c0 15 11 21 21 21c15 0 24 -11 32 -28l72 -169l74 169c8 18 17 28 32 28c11 0 20 -6 20 -21v-259c0 -10 -10 -16 -20 -16s-21 6 -21 16v191z" />
    <glyph glyph-name="two" unicode="2" horiz-adv-x="468" 
d="M54 570c0 91 77 161 181 161c115 0 193 -86 193 -189c0 -215 -341 -283 -341 -423v-71h330c10 0 20 -11 20 -24c0 -12 -10 -24 -20 -24h-356c-11 0 -24 8 -24 22v97c0 167 341 238 341 421c0 68 -46 143 -145 143c-74 0 -129 -42 -129 -126c0 -10 -9 -21 -27 -21
c-16 0 -23 9 -23 34z" />
    <glyph glyph-name="twoinferior" unicode="&#x2082;" horiz-adv-x="303" 
d="M44 284c0 52 48 87 108 87c65 0 114 -43 114 -99c0 -109 -189 -143 -189 -207v-27h178c8 0 15 -9 15 -19c0 -9 -7 -19 -15 -19h-201c-8 0 -19 6 -19 15v49c0 83 190 122 190 206c0 30 -24 62 -74 62c-38 0 -66 -18 -66 -56c0 -7 -8 -16 -22 -16c-12 0 -19 6 -19 24z" />
    <glyph glyph-name="twosuperior" unicode="&#xb2;" horiz-adv-x="303" 
d="M44 644c0 52 48 87 108 87c65 0 114 -43 114 -99c0 -109 -189 -143 -189 -208v-26h178c8 0 15 -9 15 -19s-7 -19 -15 -19h-201c-8 0 -19 6 -19 15v49c0 83 190 122 190 206c0 30 -24 62 -74 62c-38 0 -66 -18 -66 -56c0 -7 -8 -16 -22 -16c-12 0 -19 6 -19 24z" />
    <glyph glyph-name="twothirds" unicode="&#x2154;" horiz-adv-x="736" 
d="M578 35c52 0 80 21 80 71v9c0 44 -32 62 -79 62c-12 0 -16 9 -16 17c0 10 4 18 16 18c43 0 68 13 68 61c0 42 -21 61 -66 61c-57 0 -70 -29 -70 -50c0 -11 -6 -18 -20 -18c-17 0 -21 5 -21 21c0 30 21 84 112 84c62 0 105 -24 105 -90c0 -45 -20 -74 -46 -85
c33 -12 57 -37 57 -81v-9c0 -79 -53 -109 -119 -109c-81 0 -119 47 -119 86c0 16 6 19 19 19c17 0 22 -6 22 -16c0 -21 18 -51 77 -51zM48 644c0 52 48 87 108 87c65 0 114 -43 114 -99c0 -109 -189 -143 -189 -208v-26h178c8 0 15 -9 15 -19s-7 -19 -15 -19h-201
c-8 0 -19 6 -19 15v49c0 83 190 122 190 206c0 30 -24 62 -74 62c-38 0 -66 -18 -66 -56c0 -7 -8 -16 -22 -16c-12 0 -19 6 -19 24zM581 768c10 0 23 -9 23 -23c0 -4 -1 -7 -3 -11l-384 -744c-4 -9 -12 -13 -20 -13c-11 0 -21 9 -21 19c0 4 0 7 2 11l387 751
c3 8 10 10 16 10z" />
    <glyph glyph-name="u" unicode="u" 
d="M244 -6c-101 0 -183 86 -183 183v274c0 11 11 21 25 21c12 0 24 -10 24 -21v-274c0 -70 59 -137 134 -137s134 66 134 137v275c0 11 12 20 25 20c14 0 24 -9 24 -20v-275c0 -98 -83 -183 -183 -183z" />
    <glyph glyph-name="u.ss04" 
d="M240 -6c-97 0 -179 83 -179 183v274c0 14 12 21 25 21c12 0 24 -7 24 -21v-274c0 -69 60 -137 134 -137c64 0 129 53 129 136v275c0 11 11 21 25 21s24 -10 24 -21v-430c0 -12 -10 -21 -24 -21c-13 0 -24 9 -24 21v49c-21 -39 -68 -76 -134 -76z" />
    <glyph glyph-name="uacute" unicode="&#xfa;" 
d="M306 654l-100 -55c-3 -2 -7 -3 -10 -3c-12 0 -22 11 -22 23c0 6 2 12 9 15l107 61c2 1 5 2 8 2c12 0 19 -12 19 -23c0 -7 -3 -15 -11 -20zM244 -6c-101 0 -183 86 -183 183v274c0 11 11 21 25 21c12 0 24 -10 24 -21v-274c0 -70 59 -137 134 -137s134 66 134 137v275
c0 11 12 20 25 20c14 0 24 -9 24 -20v-275c0 -98 -83 -183 -183 -183z" />
    <glyph glyph-name="ubreve" unicode="&#x16d;" 
d="M244 -6c-101 0 -183 86 -183 183v274c0 11 11 21 25 21c12 0 24 -10 24 -21v-274c0 -70 59 -137 134 -137s134 66 134 137v275c0 11 12 20 25 20c14 0 24 -9 24 -20v-275c0 -98 -83 -183 -183 -183zM318 712h38c0 -61 -54 -113 -112 -113c-60 0 -113 52 -113 113h38
c0 -46 34 -82 75 -82c39 0 74 36 74 82z" />
    <glyph glyph-name="ucircumflex" unicode="&#xfb;" 
d="M244 655l-104 -56c-3 -1 -6 -3 -8 -3c-11 0 -20 10 -20 23c0 6 3 13 11 17l104 56c5 3 11 5 17 5s12 -2 17 -5l104 -55c7 -4 11 -12 11 -20c0 -11 -9 -20 -19 -20c-3 0 -6 2 -9 3zM244 -6c-101 0 -183 86 -183 183v274c0 11 11 21 25 21c12 0 24 -10 24 -21v-274
c0 -70 59 -137 134 -137s134 66 134 137v275c0 11 12 20 25 20c14 0 24 -9 24 -20v-275c0 -98 -83 -183 -183 -183z" />
    <glyph glyph-name="udieresis" unicode="&#xfc;" 
d="M186 662c19 0 32 -13 32 -32s-13 -33 -32 -33s-33 14 -33 33s14 32 33 32zM303 662c19 0 32 -13 32 -32s-13 -33 -32 -33c-20 0 -33 14 -33 33s13 32 33 32zM244 -6c-101 0 -183 86 -183 183v274c0 11 11 21 25 21c12 0 24 -10 24 -21v-274c0 -70 59 -137 134 -137
s134 66 134 137v275c0 11 12 20 25 20c14 0 24 -9 24 -20v-275c0 -98 -83 -183 -183 -183z" />
    <glyph glyph-name="ugrave" unicode="&#xf9;" 
d="M244 -6c-101 0 -183 86 -183 183v274c0 11 11 21 25 21c12 0 24 -10 24 -21v-274c0 -70 59 -137 134 -137s134 66 134 137v275c0 11 12 20 25 20c14 0 24 -9 24 -20v-275c0 -98 -83 -183 -183 -183zM281 599l-100 55c-8 5 -11 13 -11 20c0 11 8 23 20 23c2 0 5 -1 7 -2
l107 -61c7 -3 9 -9 9 -15c0 -12 -10 -23 -22 -23c-3 0 -6 1 -10 3z" />
    <glyph glyph-name="uhungarumlaut" unicode="&#x171;" 
d="M244 -6c-101 0 -183 86 -183 183v274c0 11 11 21 25 21c12 0 24 -10 24 -21v-274c0 -70 59 -137 134 -137s134 66 134 137v275c0 11 12 20 25 20c14 0 24 -9 24 -20v-275c0 -98 -83 -183 -183 -183zM265 658l-93 -58c-4 -3 -7 -4 -11 -4c-11 0 -22 10 -22 21
c0 5 2 10 8 13l99 64c3 2 6 3 9 3c11 0 19 -10 19 -21c0 -7 -3 -13 -9 -18zM413 658l-93 -58c-3 -3 -7 -4 -10 -4c-12 0 -22 10 -22 21c0 5 2 10 7 13l100 64c2 2 6 3 8 3c12 0 20 -10 20 -21c0 -7 -3 -13 -10 -18z" />
    <glyph glyph-name="umacron" unicode="&#x16b;" 
d="M244 -6c-101 0 -183 86 -183 183v274c0 11 11 21 25 21c12 0 24 -10 24 -21v-274c0 -70 59 -137 134 -137s134 66 134 137v275c0 11 12 20 25 20c14 0 24 -9 24 -20v-275c0 -98 -83 -183 -183 -183zM114 662c0 12 8 22 21 22h217c11 0 22 -10 22 -22s-11 -20 -22 -20
h-217c-13 0 -21 8 -21 20z" />
    <glyph glyph-name="underscore" unicode="_" horiz-adv-x="342" 
d="M-10 -23c0 13 9 23 21 23h320c11 0 21 -10 21 -23s-10 -22 -21 -22h-320c-12 0 -21 9 -21 22z" />
    <glyph glyph-name="uni00A0" unicode="&#xa0;" horiz-adv-x="200" 
 />
    <glyph glyph-name="uni00AD" unicode="&#xad;" horiz-adv-x="460" 
d="M49 240c0 13 9 23 21 23h320c11 0 21 -10 21 -23s-10 -22 -21 -22h-320c-12 0 -21 9 -21 22z" />
    <glyph glyph-name="uogonek" unicode="&#x173;" 
d="M244 -6c-101 0 -183 86 -183 183v274c0 11 11 21 25 21c12 0 24 -10 24 -21v-274c0 -70 59 -137 134 -137s134 66 134 137v275c0 11 12 20 25 20c14 0 24 -9 24 -20v-275c0 -80 -55 -151 -129 -175c-40 -37 -72 -75 -72 -126c0 -32 24 -43 63 -43c11 0 18 -5 18 -16
c0 -10 -6 -15 -24 -15c-42 0 -91 17 -91 71c0 46 20 86 52 121z" />
    <glyph glyph-name="uring" unicode="&#x16f;" 
d="M243 768c48 0 91 -43 91 -92c0 -50 -43 -94 -91 -94c-50 0 -91 44 -91 94c0 48 40 92 91 92zM305 676c0 30 -28 62 -62 62c-35 0 -63 -33 -63 -62c0 -33 29 -67 63 -67s62 33 62 67zM244 -6c-101 0 -183 86 -183 183v274c0 11 11 21 25 21c12 0 24 -10 24 -21v-274
c0 -70 59 -137 134 -137s134 66 134 137v275c0 11 12 20 25 20c14 0 24 -9 24 -20v-275c0 -98 -83 -183 -183 -183z" />
    <glyph glyph-name="utilde" unicode="&#x169;" 
d="M244 -6c-101 0 -183 86 -183 183v274c0 11 11 21 25 21c12 0 24 -10 24 -21v-274c0 -70 59 -137 134 -137s134 66 134 137v275c0 11 12 20 25 20c14 0 24 -9 24 -20v-275c0 -98 -83 -183 -183 -183zM180 650c-43 0 -56 -33 -71 -33c-10 0 -16 10 -16 21c0 31 55 54 89 54
c50 0 77 -36 129 -36c45 0 50 31 67 31c10 0 17 -10 17 -19c0 -36 -54 -54 -84 -54c-51 0 -76 36 -131 36z" />
    <glyph glyph-name="v" unicode="v" horiz-adv-x="407" 
d="M180 7l-158 428c-1 3 -4 11 -4 15c0 13 14 23 28 23c8 0 17 -4 20 -12l137 -378l137 372c4 10 7 18 20 18c12 0 29 -9 29 -22c0 -6 -3 -12 -4 -16l-158 -428c-4 -8 -13 -14 -24 -14s-19 5 -23 14z" />
    <glyph glyph-name="w" unicode="w" horiz-adv-x="661" 
d="M639 436l-156 -429c-4 -10 -11 -14 -20 -14c-11 0 -16 4 -20 13l-111 352l-110 -347c-4 -12 -12 -18 -22 -18c-11 0 -17 4 -22 18l-156 425c-1 3 -4 11 -4 14c0 13 14 23 28 23c8 0 16 -4 20 -12l135 -375l109 344c3 11 11 15 22 15c10 0 18 -4 21 -15l106 -349l138 380
c2 8 10 12 19 12c13 0 27 -8 27 -22c0 -5 -2 -12 -4 -15z" />
    <glyph glyph-name="wacute" unicode="&#x1e83;" horiz-adv-x="661" 
d="M394 654l-100 -55c-3 -2 -7 -3 -10 -3c-12 0 -22 11 -22 23c0 6 2 12 9 15l107 61c2 1 5 2 8 2c12 0 19 -12 19 -23c0 -7 -3 -15 -11 -20zM639 436l-156 -429c-4 -10 -11 -14 -20 -14c-11 0 -16 4 -20 13l-111 352l-110 -347c-4 -12 -12 -18 -22 -18c-11 0 -17 4 -22 18
l-156 425c-1 3 -4 11 -4 14c0 13 14 23 28 23c8 0 16 -4 20 -12l135 -375l109 344c3 11 11 15 22 15c10 0 18 -4 21 -15l106 -349l138 380c2 8 10 12 19 12c13 0 27 -8 27 -22c0 -5 -2 -12 -4 -15z" />
    <glyph glyph-name="wcircumflex" unicode="&#x175;" horiz-adv-x="661" 
d="M331 655l-104 -56c-3 -1 -6 -3 -8 -3c-11 0 -20 10 -20 23c0 6 3 13 11 17l104 56c5 3 11 5 17 5s12 -2 17 -5l104 -55c7 -4 11 -12 11 -20c0 -11 -9 -20 -19 -20c-3 0 -6 2 -9 3zM639 436l-156 -429c-4 -10 -11 -14 -20 -14c-11 0 -16 4 -20 13l-111 352l-110 -347
c-4 -12 -12 -18 -22 -18c-11 0 -17 4 -22 18l-156 425c-1 3 -4 11 -4 14c0 13 14 23 28 23c8 0 16 -4 20 -12l135 -375l109 344c3 11 11 15 22 15c10 0 18 -4 21 -15l106 -349l138 380c2 8 10 12 19 12c13 0 27 -8 27 -22c0 -5 -2 -12 -4 -15z" />
    <glyph glyph-name="wdieresis" unicode="&#x1e85;" horiz-adv-x="661" 
d="M273 662c19 0 32 -13 32 -32s-13 -33 -32 -33s-33 14 -33 33s14 32 33 32zM390 662c19 0 32 -13 32 -32s-13 -33 -32 -33c-20 0 -33 14 -33 33s13 32 33 32zM639 436l-156 -429c-4 -10 -11 -14 -20 -14c-11 0 -16 4 -20 13l-111 352l-110 -347c-4 -12 -12 -18 -22 -18
c-11 0 -17 4 -22 18l-156 425c-1 3 -4 11 -4 14c0 13 14 23 28 23c8 0 16 -4 20 -12l135 -375l109 344c3 11 11 15 22 15c10 0 18 -4 21 -15l106 -349l138 380c2 8 10 12 19 12c13 0 27 -8 27 -22c0 -5 -2 -12 -4 -15z" />
    <glyph glyph-name="wgrave" unicode="&#x1e81;" horiz-adv-x="661" 
d="M639 436l-156 -429c-4 -10 -11 -14 -20 -14c-11 0 -16 4 -20 13l-111 352l-110 -347c-4 -12 -12 -18 -22 -18c-11 0 -17 4 -22 18l-156 425c-1 3 -4 11 -4 14c0 13 14 23 28 23c8 0 16 -4 20 -12l135 -375l109 344c3 11 11 15 22 15c10 0 18 -4 21 -15l106 -349l138 380
c2 8 10 12 19 12c13 0 27 -8 27 -22c0 -5 -2 -12 -4 -15zM366 599l-100 55c-8 5 -11 13 -11 20c0 11 8 23 20 23c2 0 5 -1 7 -2l107 -61c7 -3 9 -9 9 -15c0 -12 -10 -23 -22 -23c-3 0 -6 1 -10 3z" />
    <glyph glyph-name="x" unicode="x" horiz-adv-x="394" 
d="M25 18c0 4 2 8 4 11l136 210l-135 204c-2 3 -3 7 -3 10c0 13 14 25 28 25c6 0 13 -2 17 -8l125 -192l126 191c4 6 11 9 16 9c13 0 28 -11 28 -25c0 -3 -1 -7 -3 -10l-136 -205l137 -209c2 -3 4 -7 4 -11c0 -12 -15 -24 -28 -24c-6 0 -13 3 -17 8l-127 196l-126 -196
c-5 -5 -11 -8 -18 -8c-13 0 -28 11 -28 24z" />
    <glyph glyph-name="y" unicode="y" horiz-adv-x="408" 
d="M181 16l-162 431c-1 3 -2 5 -2 8c0 13 15 24 29 24c8 0 17 -5 19 -13l141 -385l137 385c4 8 11 13 19 13c12 0 28 -10 28 -24c0 -3 0 -5 -1 -8l-158 -431c-38 -103 -90 -251 -190 -251c-12 0 -23 7 -23 23c0 12 5 23 18 23c67 0 115 106 145 205z" />
    <glyph glyph-name="yacute" unicode="&#xfd;" horiz-adv-x="408" 
d="M181 16l-162 431c-1 3 -2 5 -2 8c0 13 15 24 29 24c8 0 17 -5 19 -13l141 -385l137 385c4 8 11 13 19 13c12 0 28 -10 28 -24c0 -3 0 -5 -1 -8l-158 -431c-38 -103 -90 -251 -190 -251c-12 0 -23 7 -23 23c0 12 5 23 18 23c67 0 115 106 145 205zM270 654l-100 -55
c-3 -2 -7 -3 -10 -3c-12 0 -22 11 -22 23c0 6 2 12 9 15l107 61c2 1 5 2 8 2c12 0 19 -12 19 -23c0 -7 -3 -15 -11 -20z" />
    <glyph glyph-name="ycircumflex" unicode="&#x177;" horiz-adv-x="408" 
d="M181 16l-162 431c-1 3 -2 5 -2 8c0 13 15 24 29 24c8 0 17 -5 19 -13l141 -385l137 385c4 8 11 13 19 13c12 0 28 -10 28 -24c0 -3 0 -5 -1 -8l-158 -431c-38 -103 -90 -251 -190 -251c-12 0 -23 7 -23 23c0 12 5 23 18 23c67 0 115 106 145 205zM206 655l-104 -56
c-3 -1 -6 -3 -8 -3c-11 0 -20 10 -20 23c0 6 3 13 11 17l104 56c5 3 11 5 17 5s12 -2 17 -5l104 -55c7 -4 11 -12 11 -20c0 -11 -9 -20 -19 -20c-3 0 -6 2 -9 3z" />
    <glyph glyph-name="ydieresis" unicode="&#xff;" horiz-adv-x="408" 
d="M181 16l-162 431c-1 3 -2 5 -2 8c0 13 15 24 29 24c8 0 17 -5 19 -13l141 -385l137 385c4 8 11 13 19 13c12 0 28 -10 28 -24c0 -3 0 -5 -1 -8l-158 -431c-38 -103 -90 -251 -190 -251c-12 0 -23 7 -23 23c0 12 5 23 18 23c67 0 115 106 145 205zM147 662
c19 0 32 -13 32 -32s-13 -33 -32 -33s-33 14 -33 33s14 32 33 32zM264 662c19 0 32 -13 32 -32s-13 -33 -32 -33c-20 0 -33 14 -33 33s13 32 33 32z" />
    <glyph glyph-name="yen" unicode="&#xa5;" horiz-adv-x="490" 
d="M77 331c0 13 8 22 20 22h107l-177 348c-1 2 -2 5 -2 8c0 11 12 23 26 23c9 0 16 -5 20 -13l170 -335l179 335c5 8 11 13 20 13c12 0 25 -10 25 -23c0 -3 -1 -6 -2 -8l-186 -348h114c10 0 21 -9 21 -22c0 -12 -11 -21 -21 -21h-126v-76h126c10 0 21 -10 21 -22
c0 -13 -11 -21 -21 -21h-126v-170c0 -12 -10 -21 -24 -21c-13 0 -25 9 -25 21v170h-119c-12 0 -20 8 -20 21c0 12 8 22 20 22h119v76h-119c-12 0 -20 9 -20 21z" />
    <glyph glyph-name="ygrave" unicode="&#x1ef3;" horiz-adv-x="408" 
d="M181 16l-162 431c-1 3 -2 5 -2 8c0 13 15 24 29 24c8 0 17 -5 19 -13l141 -385l137 385c4 8 11 13 19 13c12 0 28 -10 28 -24c0 -3 0 -5 -1 -8l-158 -431c-38 -103 -90 -251 -190 -251c-12 0 -23 7 -23 23c0 12 5 23 18 23c67 0 115 106 145 205zM239 599l-100 55
c-8 5 -11 13 -11 20c0 11 8 23 20 23c2 0 5 -1 7 -2l107 -61c7 -3 9 -9 9 -15c0 -12 -10 -23 -22 -23c-3 0 -6 1 -10 3z" />
    <glyph glyph-name="z" unicode="z" horiz-adv-x="393" 
d="M94 46h253c12 0 21 -11 21 -24c0 -12 -9 -22 -21 -22h-300c-13 0 -22 10 -22 20c0 6 3 14 7 19l256 388h-232c-12 0 -21 10 -21 22c0 13 9 23 21 23h280c11 0 21 -8 21 -21c0 -7 -2 -12 -6 -17z" />
    <glyph glyph-name="zacute" unicode="&#x17a;" horiz-adv-x="393" 
d="M258 654l-100 -55c-3 -2 -7 -3 -10 -3c-12 0 -22 11 -22 23c0 6 2 12 9 15l107 61c2 1 5 2 8 2c12 0 19 -12 19 -23c0 -7 -3 -15 -11 -20zM94 46h253c12 0 21 -11 21 -24c0 -12 -9 -22 -21 -22h-300c-13 0 -22 10 -22 20c0 6 3 14 7 19l256 388h-232c-12 0 -21 10 -21 22
c0 13 9 23 21 23h280c11 0 21 -8 21 -21c0 -7 -2 -12 -6 -17z" />
    <glyph glyph-name="zcaron" unicode="&#x17e;" horiz-adv-x="393" 
d="M93 724l99 -98l98 98c5 5 11 7 16 7c10 0 17 -10 17 -19c0 -6 -4 -12 -10 -19l-101 -96c-7 -6 -13 -10 -20 -10s-15 4 -21 10l-100 96c-7 7 -10 13 -10 19c0 9 7 19 17 19c4 0 10 -2 15 -7zM94 46h253c12 0 21 -11 21 -24c0 -12 -9 -22 -21 -22h-300c-13 0 -22 10 -22 20
c0 6 3 14 7 19l256 388h-232c-12 0 -21 10 -21 22c0 13 9 23 21 23h280c11 0 21 -8 21 -21c0 -7 -2 -12 -6 -17z" />
    <glyph glyph-name="zdotaccent" unicode="&#x17c;" horiz-adv-x="393" 
d="M94 46h253c12 0 21 -11 21 -24c0 -12 -9 -22 -21 -22h-300c-13 0 -22 10 -22 20c0 6 3 14 7 19l256 388h-232c-12 0 -21 10 -21 22c0 13 9 23 21 23h280c11 0 21 -8 21 -21c0 -7 -2 -12 -6 -17zM192 662c19 0 33 -13 33 -32s-14 -33 -33 -33s-33 14 -33 33s14 32 33 32z
" />
    <glyph glyph-name="zero" unicode="0" horiz-adv-x="527" 
d="M263 -6c-114 0 -201 57 -201 210v317c0 153 87 210 201 210c113 0 202 -57 202 -210v-317c0 -153 -89 -210 -202 -210zM415 204v317c0 111 -57 162 -152 162s-151 -51 -151 -162v-317c0 -111 56 -162 151 -162s152 51 152 162zM264 395c18 0 33 -14 33 -33
s-15 -34 -33 -34c-20 0 -34 15 -34 34s14 33 34 33z" />
    <glyph glyph-name="zeroinferior" unicode="&#x2080;" horiz-adv-x="334" 
d="M167 -3c-67 0 -119 30 -119 110v154c0 79 52 110 119 110s119 -31 119 -110v-154c0 -80 -52 -110 -119 -110zM245 107v154c0 50 -29 72 -78 72c-48 0 -77 -22 -77 -72v-154c0 -50 29 -72 77 -72c49 0 78 22 78 72z" />
    <glyph glyph-name="zerosuperior" unicode="&#x2070;" horiz-adv-x="334" 
d="M167 357c-67 0 -119 30 -119 110v154c0 79 52 110 119 110s119 -31 119 -110v-154c0 -80 -52 -110 -119 -110zM245 467v154c0 50 -29 72 -78 72c-48 0 -77 -22 -77 -72v-154c0 -50 29 -72 77 -72c49 0 78 22 78 72z" />
    </font>
</defs>
</svg>
